<?xml version="1.0" standalone="no"?>
<!DOCTYPE svg PUBLIC "-//W3C//DTD SVG 1.1//EN" "http://www.w3.org/Graphics/SVG/1.1/DTD/svg11.dtd" >
<svg xmlns="http://www.w3.org/2000/svg" xmlns:xlink="http://www.w3.org/1999/xlink" version="1.1">
<metadata>
Created by FontForge 20201107 at Tue Jul 30 06:34:30 2024
 By 
Copyright 2024 The Urbanist Project Authors (https://github.com/coreyhu/Urbanist)
</metadata>
<defs>
<font id="Urbanist-Bold" horiz-adv-x="0" >
  <font-face 
    font-family="Urbanist"
    font-weight="700"
    font-stretch="normal"
    units-per-em="2048"
    panose-1="0 0 0 0 0 0 0 0 0 0"
    ascent="1638"
    descent="-410"
    x-height="1024"
    cap-height="1434"
    bbox="-369 -553 2145 2271"
    underline-thickness="51"
    underline-position="-127"
    unicode-range="U+0020-1F12F"
  />
<missing-glyph horiz-adv-x="1024" 
d="M102 -553v2499h820v-2499h-820zM205 -451h614v2294h-614v-2294z" />
    <glyph glyph-name="fi" unicode="fi" horiz-adv-x="1234" 
d="M417 1236v-212h278v-256h-278v-768h-256v768h-110v256h110v212q0 134 95.5 229.5t230.5 95.5q145 0 243 -110l-183 -180q-18 34 -60 34q-29 0 -49.5 -20t-20.5 -49zM985 1153q-56 0 -94 37.5t-38 93.5t38 93.5t94 37.5q55 0 93 -37.5t38 -93.5t-37.5 -93.5t-93.5 -37.5z
M856 1024h256v-1024h-256v1024z" />
    <glyph glyph-name="fl" unicode="fl" horiz-adv-x="1282" 
d="M417 1236v-212h278v-256h-278v-768h-256v768h-110v256h110v212q0 134 95.5 229.5t230.5 95.5q145 0 243 -110l-183 -180q-18 34 -60 34q-29 0 -49.5 -20t-20.5 -49zM893 0v1536h256v-1536h-256z" />
    <glyph glyph-name=".notdef" horiz-adv-x="1024" 
d="M102 -553v2499h820v-2499h-820zM205 -451h614v2294h-614v-2294z" />
    <glyph glyph-name=".null" horiz-adv-x="1228" 
 />
    <glyph glyph-name="nonmarkingreturn" unicode="&#xfeff;" horiz-adv-x="1228" 
 />
    <glyph glyph-name="nonmarkingreturn" unicode="&#xd;" horiz-adv-x="1228" 
 />
    <glyph glyph-name="space" unicode=" " horiz-adv-x="491" 
 />
    <glyph glyph-name="exclam" unicode="!" horiz-adv-x="464" 
d="M104 430v1004h215v-1004h-215zM213 -27q-56 0 -93.5 38t-37.5 95q0 54 38 92t93 38q54 0 91.5 -38t37.5 -92q0 -57 -37.5 -95t-91.5 -38z" />
    <glyph glyph-name="quotedbl" unicode="&#x22;" horiz-adv-x="606" 
d="M66 899v535h175v-535h-175zM367 899v535h174v-535h-174z" />
    <glyph glyph-name="numbersign" unicode="#" horiz-adv-x="1613" 
d="M1465 896h-169l-97 -357h171l-66 -247h-169l-78 -292h-256l79 292h-373l-77 -292h-256l77 292h-169l66 247h169l98 357h-171l66 247h169l79 291h255l-78 -291h373l77 291h255l-77 -291h169zM944 539l97 357h-371l-98 -357h372z" />
    <glyph glyph-name="dollar" unicode="$" horiz-adv-x="1239" 
d="M620 1201q-110 2 -195 -50t-85 -128q0 -32 9 -57t30.5 -43t41 -29.5t59 -21t64.5 -14.5t76 -13q112 -18 206 -52t169 -86t117.5 -128.5t42.5 -169.5q0 -170 -128 -287t-319 -142v-209h-176v209q-158 19 -281.5 100.5t-168.5 206.5l240 89q22 -62 107 -104.5t191 -42.5
q113 0 196 50.5t83 129.5q0 133 -279 180q-121 18 -214 49t-168 81.5t-114.5 127t-39.5 176.5q0 172 128 289t320 141v210h176v-210q156 -19 280 -101t169 -209l-241 -87q-21 61 -105 103t-191 42z" />
    <glyph glyph-name="percent" unicode="%" horiz-adv-x="1556" 
d="M217 0l827 1434h295l-827 -1434h-295zM393 808q-128 0 -219.5 90.5t-91.5 219.5q0 132 92 221t219 89q128 0 219 -90.5t91 -219.5q0 -130 -92 -220t-218 -90zM393 983q56 0 95.5 39t39.5 96t-39.5 96t-95.5 39q-57 0 -96.5 -39t-39.5 -96t39.5 -96t96.5 -39zM1163 3
q-128 0 -219 93t-91 217q0 131 92 222t218 91q131 0 221.5 -93t90.5 -220q0 -128 -91.5 -219t-220.5 -91zM1163 178q57 0 97 39.5t40 95.5q0 57 -40 97.5t-97 40.5q-56 0 -95.5 -40.5t-39.5 -97.5q0 -55 40 -95t95 -40z" />
    <glyph glyph-name="ampersand" unicode="&#x26;" horiz-adv-x="1465" 
d="M524 -27q-123 0 -225.5 62t-159.5 163.5t-57 217.5q0 53 9 94.5t23 76.5t50 80t72 83.5t107 109.5q-86 86 -116.5 144t-30.5 142q0 140 97 235.5t231 95.5q136 0 233.5 -96.5t97.5 -234.5q0 -85 -31.5 -142.5t-118.5 -143.5l264 -264l260 261v-361l-80 -81l234 -235
l-180 -180l-234 234q-88 -88 -135 -130.5t-100.5 -76.5t-98.5 -44t-111 -10zM524 1004q14 14 33 32.5t26.5 25.5t18.5 18.5t14.5 17t7.5 15t5 17.5t1 20q0 48 -32.5 77t-73.5 29q-42 0 -73.5 -31t-31.5 -75q0 -14 3 -25t6 -18.5t14 -20.5t18.5 -20.5t28.5 -28t35 -33.5z
M524 229q18 0 33 2.5t26.5 5.5t27.5 13.5t25.5 17t30 26t32 31.5t41 42t48.5 49l-264 264l-50.5 -50.5l-42.5 -42.5t-31.5 -32.5t-26 -30t-16 -24.5t-12 -26.5t-5 -26t-2.5 -32.5q0 -79 55.5 -132.5t130.5 -53.5z" />
    <glyph glyph-name="quotesingle" unicode="'" horiz-adv-x="306" 
d="M66 899v535h175v-535h-175z" />
    <glyph glyph-name="parenleft" unicode="(" horiz-adv-x="782" 
d="M424 -115q-157 154 -229 343t-72 431q0 128 38 289.5t109.5 303t153.5 182.5h256q-68 -46 -138.5 -182.5t-116 -301t-46.5 -291.5q1 -115 27 -231.5t70 -215t95 -180.5t109 -147h-256z" />
    <glyph glyph-name="parenright" unicode=")" horiz-adv-x="782" 
d="M102 -115q58 65 109 147t95 180.5t70 215t27 231.5q-1 127 -46.5 291.5t-116 301t-138.5 182.5h256q82 -41 153.5 -182.5t109.5 -303t38 -289.5q0 -242 -72 -431t-229 -343h-256z" />
    <glyph glyph-name="asterisk" unicode="*" horiz-adv-x="742" 
d="M254 854l-141 103l101 140l-163 52l52 167l165 -53v171h175v-171l163 53l54 -167l-164 -52l102 -140l-142 -103l-101 140z" />
    <glyph glyph-name="plus" unicode="+" horiz-adv-x="1187" 
d="M466 102v384h-384v256h384v384h256v-384h384v-256h-384v-384h-256z" />
    <glyph glyph-name="comma" unicode="," horiz-adv-x="524" 
d="M82 -115l63 346h256l-149 -346h-170z" />
    <glyph glyph-name="hyphen" unicode="-" horiz-adv-x="901" 
d="M123 742h655v-256h-655v256z" />
    <glyph glyph-name="period" unicode="." horiz-adv-x="466" 
d="M213 -27q-55 0 -93 37.5t-38 93.5q0 54 38 93t93 39q54 0 92.5 -39t38.5 -93q0 -55 -38.5 -93t-92.5 -38z" />
    <glyph glyph-name="slash" unicode="/" horiz-adv-x="834" 
d="M753 1434l-415 -1549h-256l416 1549h255z" />
    <glyph glyph-name="zero" unicode="0" horiz-adv-x="1239" 
d="M621 -27q-163 0 -292 100.5t-198.5 270t-69.5 373.5q0 153 41 289t113.5 236.5t178 159t227.5 58.5q162 0 290.5 -100t197.5 -269.5t69 -373.5t-69 -373.5t-197.5 -270t-290.5 -100.5zM621 229q104 0 177.5 70t106.5 178t33 240q0 137 -35 245.5t-108 175t-174 66.5
q-104 0 -178.5 -70t-108 -178t-33.5 -239t34.5 -239.5t108.5 -178.5t177 -70z" />
    <glyph glyph-name="one" unicode="1" horiz-adv-x="683" 
d="M263 0v1178h-181l69 256h368v-1434h-256z" />
    <glyph glyph-name="two" unicode="2" horiz-adv-x="1173" 
d="M82 0v228q75 56 158.5 123t184 158t179 173t131.5 163.5t53 135.5q0 92 -64.5 157.5t-156.5 65.5t-157.5 -65.5t-65.5 -157.5h-256q0 132 65 242.5t175 173.5t239 63q197 0 336.5 -140t139.5 -339q0 -68 -26.5 -140.5t-66.5 -137.5t-109.5 -146t-132.5 -145.5
t-158 -155.5h501v-256h-969z" />
    <glyph glyph-name="three" unicode="3" horiz-adv-x="1049" 
d="M524 -27q-194 0 -328.5 134t-134.5 325h256q0 -84 59.5 -143.5t147.5 -59.5q84 0 146 60t62 143q0 107 -84 163.5t-228 56.5v197q128 0 200 47.5t72 138.5q0 69 -52 120t-122 51q-73 0 -134 -51.5t-61 -119.5h-255q0 114 62 213t165.5 156.5t219.5 57.5
q175 0 303.5 -125.5t128.5 -301.5q0 -87 -39 -164.5t-107 -109.5q88 -33 137.5 -127t49.5 -202q0 -124 -63 -230t-170 -167.5t-231 -61.5z" />
    <glyph glyph-name="four" unicode="4" horiz-adv-x="1189" 
d="M692 0v344h-610v257l551 833h314v-834h120v-256h-120v-344h-255zM378 601l314 -1l-1 485z" />
    <glyph glyph-name="five" unicode="5" horiz-adv-x="1178" 
d="M565 -27q-136 0 -250 67t-178.5 180t-64.5 245h256q0 -98 69 -167t168 -69q97 0 166.5 69t69.5 167q0 107 -68.5 174t-214.5 67h-370l153 728h706v-256h-499l-44 -216l97 -3q143 -5 256.5 -70.5t176 -176.5t62.5 -247q0 -132 -65.5 -245.5t-179 -180t-246.5 -66.5z" />
    <glyph glyph-name="six" unicode="6" horiz-adv-x="1126" 
d="M556 -27q-135 0 -251.5 68t-185 185t-68.5 254q0 134 70 257l401 697h296l-267 -463q134 7 252.5 -55.5t190 -179t71.5 -256.5q0 -137 -68 -253.5t-185 -185t-256 -68.5zM556 229q106 0 179.5 75.5t73.5 174.5q0 104 -73 178t-178 74q-107 0 -179 -75.5t-72 -176.5
q0 -105 74.5 -177.5t174.5 -72.5z" />
    <glyph glyph-name="seven" unicode="7" horiz-adv-x="1127" 
d="M112 0l679 1178h-750v256h1045v-256l-680 -1178h-294z" />
    <glyph glyph-name="eight" unicode="8" horiz-adv-x="1118" 
d="M558 -27q-198 0 -337 131.5t-139 319.5q0 96 43 182.5t119 147.5q-131 121 -131 285q0 174 130.5 297.5t314.5 123.5t315 -123.5t131 -297.5q0 -165 -132 -285q77 -61 120.5 -147t43.5 -183q0 -123 -63.5 -226.5t-174 -164t-240.5 -60.5zM558 876q73 0 124.5 48t51.5 115
q0 68 -51.5 116.5t-124.5 48.5t-124 -48.5t-51 -116.5t51 -115.5t124 -47.5zM558 229q86 0 147 57t61 138q0 82 -61 139t-147 57t-147 -57.5t-61 -138.5t61 -138t147 -57z" />
    <glyph glyph-name="nine" unicode="9" horiz-adv-x="1125" 
d="M293 0l274 473q-133 -7 -249.5 55t-186.5 177t-70 253q0 135 67 251t183 183.5t253 67.5q134 0 249.5 -67.5t183 -183t67.5 -251.5q0 -131 -69 -253l-406 -705h-296zM562 713q106 0 176.5 73.5t70.5 172.5q0 103 -73.5 174.5t-171.5 71.5q-105 0 -176.5 -74.5
t-71.5 -171.5q0 -102 71.5 -174t174.5 -72z" />
    <glyph glyph-name="colon" unicode=":" horiz-adv-x="466" 
d="M213 762q-55 0 -93 38t-38 93q0 54 38 92.5t93 38.5q54 0 92.5 -38.5t38.5 -92.5q0 -55 -38.5 -93t-92.5 -38zM213 -27q-55 0 -93 37.5t-38 93.5q0 54 38 93t93 39q54 0 92.5 -39t38.5 -93q0 -55 -38.5 -93t-92.5 -38z" />
    <glyph glyph-name="semicolon" unicode=";" horiz-adv-x="526" 
d="M272 762q-55 0 -93 38t-38 93q0 54 38 92.5t93 38.5q54 0 92.5 -38.5t38.5 -92.5q0 -55 -38.5 -93t-92.5 -38zM82 -115l63 346h256l-149 -346h-170z" />
    <glyph glyph-name="less" unicode="&#x3c;" horiz-adv-x="1187" 
d="M1106 110l-1024 290v426l1024 293v-266l-840 -239l840 -239v-265z" />
    <glyph glyph-name="equal" unicode="=" horiz-adv-x="1187" 
d="M82 708v256h1024v-256h-1024zM82 266v255h1024v-255h-1024z" />
    <glyph glyph-name="greater" unicode="&#x3e;" horiz-adv-x="1187" 
d="M82 119v266l840 229l-840 230v266l1024 -284v-426z" />
    <glyph glyph-name="question" unicode="?" horiz-adv-x="1139" 
d="M436 436q0 117 58.5 215t161.5 154q49 26 77.5 76.5t28.5 112.5q0 88 -62.5 149.5t-150.5 61.5t-149.5 -61.5t-61.5 -149.5h-256q0 126 62.5 233.5t170.5 170t234 62.5q127 0 235 -62.5t170.5 -170t62.5 -233.5q0 -132 -64.5 -243t-175.5 -171q-40 -22 -63 -60t-23 -84
h-255zM573 -27q-55 0 -93 38.5t-38 94.5q0 54 38 92t93 38q54 0 92 -38t38 -92q0 -56 -38 -94.5t-92 -38.5z" />
    <glyph glyph-name="at" unicode="@" horiz-adv-x="1884" 
d="M942 -260q-176 0 -334.5 62.5t-274 170.5t-183.5 261.5t-68 328.5t68 334.5t183.5 275t274.5 183.5t334 68q176 0 336 -68.5t274.5 -184.5t182 -275t67.5 -333q0 -135 -41.5 -253.5t-127 -196.5t-198.5 -78q-98 0 -190.5 61t-109.5 142q-85 -82 -215 -82
q-168 0 -287.5 119.5t-119.5 287.5q0 169 119.5 288.5t287.5 119.5q62 0 127 -19.5t101 -51.5v49l190 -40v-536q0 -38 22 -60.5t58 -22.5q43 0 73.5 49t42.5 108.5t12 115.5q0 165 -81.5 304.5t-220.5 220t-302 80.5q-122 0 -234 -47.5t-193 -128.5t-129 -193t-48 -236
q0 -163 81 -294t218.5 -202.5t304.5 -71.5v-255zM941 346q88 0 148 65.5t60 155.5q0 89 -58.5 151t-149.5 62q-90 0 -154 -63t-64 -154q0 -90 64 -153.5t154 -63.5z" />
    <glyph glyph-name="A" unicode="A" horiz-adv-x="1498" 
d="M602 1434h294l520 -1434h-271l-91 251h-610l-91 -251h-271zM538 507h423l-212 579z" />
    <glyph glyph-name="B" unicode="B" horiz-adv-x="1205" 
d="M123 0v1434h573q140 0 239 -99t99 -239q0 -96 -50 -176.5t-132 -123.5q121 -42 196 -148t75 -238q0 -170 -120 -290t-289 -120h-591zM378 880h254q68 0 117 49t49 119q0 72 -48.5 121.5t-117.5 49.5h-254v-339zM378 215h295q92 0 157.5 65t65.5 158q0 95 -65.5 161
t-157.5 66h-295v-450z" />
    <glyph glyph-name="C" unicode="C" horiz-adv-x="1431" 
d="M766 -27q-191 0 -353.5 100t-257 271t-94.5 373q0 152 56 289.5t150.5 237t225 158t273.5 58.5q170 0 317 -79t246 -216l-227 -123q-63 75 -151 118.5t-185 43.5q-186 0 -317.5 -143t-131.5 -344q0 -132 60 -244.5t163.5 -178t225.5 -65.5q99 0 186.5 43.5t149.5 119.5
l227 -124q-99 -137 -246 -216t-317 -79z" />
    <glyph glyph-name="D" unicode="D" horiz-adv-x="1376" 
d="M123 0v1434h475q145 0 278 -57t229 -153t153 -229t57 -278t-57 -278t-153 -229t-229 -153t-278 -57h-475zM379 256h219q189 0 325 135t136 326q0 190 -136 325.5t-325 135.5h-219v-922z" />
    <glyph glyph-name="E" unicode="E" horiz-adv-x="1125" 
d="M123 0v1434h900v-256h-644v-282h510v-256h-510v-384h644v-256h-900z" />
    <glyph glyph-name="F" unicode="F" horiz-adv-x="991" 
d="M123 0v1434h848v-256h-592v-282h493v-256h-493v-640h-256z" />
    <glyph glyph-name="G" unicode="G" horiz-adv-x="1532" 
d="M766 -27q-147 0 -278 59.5t-224.5 160t-148 238t-54.5 288.5q0 158 59 297t157 235t227 151.5t267 55.5q159 0 303.5 -74t254.5 -221l-227 -122q-68 81 -155 122t-179 41q-88 0 -170.5 -37t-144.5 -101t-99 -156t-37 -196q0 -99 36 -189t96.5 -154.5t144.5 -103
t176 -38.5q126 0 234.5 75.5t164.5 208.5h-254v223h555q4 -154 -50 -295t-148.5 -243.5t-227 -163.5t-278.5 -61z" />
    <glyph glyph-name="H" unicode="H" horiz-adv-x="1341" 
d="M964 1434h255v-1434h-255v640h-585v-640h-256v1434h256v-538h585v538z" />
    <glyph glyph-name="I" unicode="I" horiz-adv-x="563" 
d="M154 0v1434h256v-1434h-256z" />
    <glyph glyph-name="J" unicode="J" horiz-adv-x="914" 
d="M334 -27q-168 0 -293 107l164 196q55 -47 129 -47q83 0 142.5 61t59.5 145v999h256v-999q0 -124 -61.5 -230.5t-167 -169t-229.5 -62.5z" />
    <glyph glyph-name="K" unicode="K" horiz-adv-x="1206" 
d="M1178 0h-334l-400 558l-65 -80v-478h-256v1434h256v-558l467 558h334l-568 -676z" />
    <glyph glyph-name="L" unicode="L" horiz-adv-x="1074" 
d="M123 0v1434h256v-1178h593v-256h-849z" />
    <glyph glyph-name="M" unicode="M" horiz-adv-x="1920" 
d="M123 0l278 1434h212l348 -912l346 912h212l278 -1434h-261l-169 876l-319 -846h-176l-319 846l-170 -876h-260z" />
    <glyph glyph-name="N" unicode="N" horiz-adv-x="1375" 
d="M123 0v1434h276l597 -972v972h256v-1434h-276l-597 972v-972h-256z" />
    <glyph glyph-name="O" unicode="O" horiz-adv-x="1536" 
d="M768 -27q-143 0 -274 59t-226 158.5t-151 237.5t-56 289q0 202 95 373t258 270.5t354 99.5t354 -99.5t258 -270.5t95 -373q0 -151 -56 -289t-151 -237.5t-226 -158.5t-274 -59zM768 229q122 0 226 66t164.5 178.5t60.5 243.5t-60.5 243.5t-164.5 178t-226 65.5
q-186 0 -318.5 -143t-132.5 -344q0 -132 60.5 -244.5t164.5 -178t226 -65.5z" />
    <glyph glyph-name="P" unicode="P" horiz-adv-x="1137" 
d="M123 0v1434h515q174 0 296 -127t122 -306t-124 -305.5t-294 -126.5h-259v-569h-256zM379 825h231q78 0 134 56.5t56 137.5t-56 137.5t-134 56.5h-231v-388z" />
    <glyph glyph-name="Q" unicode="Q" horiz-adv-x="1611" 
d="M1349 -44l-159 158q-180 -134 -402 -134q-191 0 -354 99.5t-257.5 270.5t-94.5 373q0 151 56 288.5t150.5 237t225.5 158.5t274 59q191 0 354 -99.5t258 -270.5t95 -373q0 -230 -128 -424l163 -163zM788 236q119 0 216 64l-125 126l180 181l118 -118q62 107 62 234
q0 201 -133 344.5t-318 143.5q-122 0 -226 -66t-164 -178.5t-60 -243.5q0 -132 60.5 -244.5t164 -177.5t225.5 -65z" />
    <glyph glyph-name="R" unicode="R" horiz-adv-x="1248" 
d="M123 0v1434h553q174 0 295 -126.5t121 -306.5q0 -143 -75.5 -253t-200.5 -156l343 -592h-295l-329 569h-156v-569h-256zM379 825h268q78 0 134 56.5t56 137.5t-56 137.5t-134 56.5h-268v-388z" />
    <glyph glyph-name="S" unicode="S" horiz-adv-x="1148" 
d="M604 -27q-148 0 -306.5 84.5t-236.5 201.5l211 144q40 -58 140 -115.5t191 -57.5q89 0 159.5 49.5t70.5 127.5q0 77 -69 135.5t-175 78.5q-223 40 -348 157t-125 275q0 169 129 281.5t307 112.5q147 0 268.5 -76.5t174.5 -191.5l-232 -110q-27 58 -87.5 89.5t-124.5 31.5
q-69 0 -124.5 -39t-55.5 -98q0 -58 52 -104t122 -62q123 -30 216.5 -69t169.5 -95.5t116 -135.5t40 -178q0 -125 -66.5 -225.5t-177 -155.5t-239.5 -55z" />
    <glyph glyph-name="T" unicode="T" horiz-adv-x="1290" 
d="M1208 1434v-256h-436v-1178h-255v1178h-435v256h1126z" />
    <glyph glyph-name="U" unicode="U" horiz-adv-x="1394" 
d="M698 -27q-126 0 -234.5 49t-182.5 133.5t-116 199t-42 243.5v836h256v-836q0 -158 86 -263.5t233 -105.5q99 0 172.5 50.5t109.5 133t36 185.5v836h256v-836q0 -173 -71 -315t-203 -226t-300 -84z" />
    <glyph glyph-name="V" unicode="V" horiz-adv-x="1538" 
d="M605 0l-520 1434h271l413 -1136l413 1136h271l-521 -1434h-327z" />
    <glyph glyph-name="W" unicode="W" horiz-adv-x="1918" 
d="M452 0l-367 1434h264l247 -969l247 969h233l247 -969l247 969h264l-365 -1434h-290l-220 856l-217 -856h-290z" />
    <glyph glyph-name="X" unicode="X" horiz-adv-x="1488" 
d="M61 0l525 721l-518 713h315l361 -497l362 497h315l-518 -713l524 -721h-317l-366 503l-365 -503h-318z" />
    <glyph glyph-name="Y" unicode="Y" horiz-adv-x="1363" 
d="M1001 1434h303l-494 -788v-646h-256v646l-493 788h303l318 -509z" />
    <glyph glyph-name="Z" unicode="Z" horiz-adv-x="1323" 
d="M82 0v256l814 922h-814v256h1159v-256l-814 -922h814v-256h-1159z" />
    <glyph glyph-name="bracketleft" unicode="[" horiz-adv-x="661" 
d="M559 141v-256h-436v1549h436v-256h-180v-1037h180z" />
    <glyph glyph-name="backslash" unicode="\" horiz-adv-x="833" 
d="M496 -115l-414 1549h256l414 -1549h-256z" />
    <glyph glyph-name="bracketright" unicode="]" horiz-adv-x="663" 
d="M102 -115v256h183v1037h-183v256h439v-1549h-439z" />
    <glyph glyph-name="asciicircum" unicode="^" horiz-adv-x="991" 
d="M82 1024l242 666h344l241 -666h-272l-141 389l-142 -389h-272z" />
    <glyph glyph-name="underscore" unicode="_" horiz-adv-x="1269" 
d="M123 141h1024v-256h-1024v256z" />
    <glyph glyph-name="grave" unicode="`" horiz-adv-x="1071" 
d="M302 1432h255l82 -295h-170z" />
    <glyph glyph-name="a" unicode="a" horiz-adv-x="1269" 
d="M892 1024h256v-1024h-257l-11 123q-44 -70 -112.5 -110t-157.5 -40q-149 0 -276 74t-200 200.5t-73 275.5q0 144 70 266t191.5 193t265.5 71q184 0 315 -157zM603 219q116 0 192 85t76 208q0 124 -76 208.5t-192 84.5q-117 0 -198 -85t-81 -208q0 -122 82 -207.5
t197 -85.5z" />
    <glyph glyph-name="b" unicode="b" horiz-adv-x="1271" 
d="M671 1053q147 0 271 -72.5t196 -196.5t72 -270q0 -147 -72 -271.5t-196 -197t-271 -72.5q-180 0 -292 153v-126h-256v1536h256v-636q112 153 292 153zM667 221q117 0 199 85.5t82 207.5q0 121 -82.5 207t-198.5 86q-114 0 -190.5 -85.5t-76.5 -207.5q0 -123 76.5 -208
t190.5 -85z" />
    <glyph glyph-name="c" unicode="c" horiz-adv-x="1044" 
d="M754 311l229 -125q-72 -99 -179 -156t-231 -57q-139 0 -257 72.5t-186.5 196.5t-68.5 270q0 147 68.5 271.5t186.5 197t257 72.5q124 0 231 -57.5t179 -157.5l-229 -124q-75 83 -181 83q-107 0 -181.5 -84.5t-74.5 -200.5q0 -115 74.5 -199t181.5 -84q104 0 181 82z" />
    <glyph glyph-name="d" unicode="d" horiz-adv-x="1271" 
d="M893 1536h256v-1536h-256v125q-111 -152 -293 -152q-146 0 -270 72.5t-196.5 196.5t-72.5 270t72.5 270t196.5 196.5t270 72.5q182 0 293 -151v636zM603 219q116 0 192 85t76 208q0 124 -76 208.5t-192 84.5q-117 0 -198 -85.5t-81 -207.5t82 -207.5t197 -85.5z" />
    <glyph glyph-name="e" unicode="e" horiz-adv-x="1145" 
d="M573 -27q-139 0 -257 72.5t-186.5 196.5t-68.5 271t68.5 271t186.5 196.5t257 72.5q117 0 219.5 -52t170.5 -138t100 -201.5t14 -236.5h-740q21 -87 83 -141t153 -55q61 -1 114 29.5t89 84.5l261 -60q-64 -139 -188.5 -224.5t-275.5 -85.5zM328 616h492q-20 91 -89 152
t-158 61t-156.5 -60t-88.5 -153z" />
    <glyph glyph-name="f" unicode="f" horiz-adv-x="749" 
d="M417 1236v-212h278v-256h-278v-768h-256v768h-110v256h110v212q0 134 95.5 229.5t230.5 95.5q145 0 243 -110l-183 -180q-18 34 -60 34q-29 0 -49.5 -20t-20.5 -49z" />
    <glyph glyph-name="g" unicode="g" horiz-adv-x="1258" 
d="M881 1024h255v-1042q0 -108 -46 -201.5t-123 -157t-179 -99.5t-213 -36q-161 0 -299.5 94.5t-199.5 242.5l233 106q31 -83 105.5 -134.5t160.5 -51.5q124 0 215 65t91 172v139q-109 -148 -287 -148q-144 0 -267 72.5t-194.5 196.5t-71.5 270t71.5 270t194.5 196.5
t267 72.5q178 0 287 -148v121zM598 219q114 0 189.5 85.5t75.5 207.5q0 123 -75.5 208t-189.5 85t-194 -85.5t-80 -207.5t80.5 -207.5t193.5 -85.5z" />
    <glyph glyph-name="h" unicode="h" horiz-adv-x="1144" 
d="M1063 648v-648h-256v580q0 89 -62.5 151.5t-151.5 62.5t-151.5 -62.5t-62.5 -151.5v-580h-255l-1 1536h256v-600q115 117 278 117q168 0 287 -119t119 -286z" />
    <glyph glyph-name="i" unicode="i" horiz-adv-x="501" 
d="M252 1153q-57 0 -95 37.5t-38 93.5t38 93.5t95 37.5q55 0 93 -38t38 -93q0 -56 -37.5 -93.5t-93.5 -37.5zM123 1024h256v-1024h-256v1024z" />
    <glyph glyph-name="j" unicode="j" horiz-adv-x="501" 
d="M252 1153q-57 0 -95 37.5t-38 93.5t38 93.5t95 37.5q55 0 93 -38t38 -93q0 -56 -37.5 -93.5t-93.5 -37.5zM-82 -512v256q86 0 145.5 58.5t59.5 143.5v1078h256v-1078q0 -190 -134 -324t-327 -134z" />
    <glyph glyph-name="k" unicode="k" horiz-adv-x="1100" 
d="M1043 0h-293l-231 397l-140 -167v-230h-256v1536h256v-908l332 396h333l-350 -419z" />
    <glyph glyph-name="l" unicode="l" horiz-adv-x="522" 
d="M133 0v1536h256v-1536h-256z" />
    <glyph glyph-name="m" unicode="m" horiz-adv-x="1819" 
d="M123 0v1024h256v-88q114 117 278 117q104 0 193.5 -49.5t144.5 -133.5q55 84 144.5 133.5t193.5 49.5q167 0 286 -119t119 -286v-648h-256v580q0 88 -62 151t-149 63q-89 0 -151 -62t-62 -152v-580h-255v580q0 90 -62 152t-151 62q-87 0 -149 -63t-62 -151v-580h-256z
" />
    <glyph glyph-name="n" unicode="n" horiz-adv-x="1144" 
d="M1063 648v-648h-256v580q0 89 -62.5 151.5t-151.5 62.5t-151.5 -62.5t-62.5 -151.5v-580h-255l-1 1024h256v-88q115 117 278 117q168 0 287 -119t119 -286z" />
    <glyph glyph-name="o" unicode="o" horiz-adv-x="1146" 
d="M573 -27q-139 0 -257 72.5t-186.5 196.5t-68.5 270q0 147 68.5 271.5t186.5 197t257 72.5t257 -72.5t186.5 -197t68.5 -271.5q0 -146 -68.5 -270t-186.5 -196.5t-257 -72.5zM573 229q108 0 182 83.5t74 199.5q0 118 -75.5 201.5t-180.5 83.5q-107 0 -181.5 -84.5
t-74.5 -200.5q0 -119 75.5 -201t180.5 -82z" />
    <glyph glyph-name="p" unicode="p" horiz-adv-x="1269" 
d="M379 -512h-256v1536h256v-126q112 153 292 153q146 0 270 -72.5t196 -196.5t72 -270q0 -147 -72 -271.5t-195.5 -197t-270.5 -72.5q-180 0 -292 153v-636zM667 805q-114 0 -190.5 -85.5t-76.5 -207.5q0 -123 76.5 -208t190.5 -85q117 0 199 85t82 208q0 121 -82 207
t-199 86z" />
    <glyph glyph-name="q" unicode="q" horiz-adv-x="1269" 
d="M600 -29q-146 0 -270 72.5t-196.5 197t-72.5 271.5q0 146 72.5 270t196.5 196.5t270 72.5q180 0 292 -153v126h256v-1536h-256v636q-112 -153 -292 -153zM603 805q-117 0 -198 -86t-81 -207q0 -123 81.5 -208t197.5 -85q115 0 190.5 85t75.5 208t-75.5 208t-190.5 85z
" />
    <glyph glyph-name="r" unicode="r" horiz-adv-x="791" 
d="M124 0l-1 1024h256v-88q115 117 278 117q53 0 114 -17l-101 -258q-38 16 -77 16q-89 0 -151.5 -62.5t-62.5 -151.5v-580h-255z" />
    <glyph glyph-name="s" unicode="s" horiz-adv-x="889" 
d="M425 -18q-125 9 -227.5 66.5t-146.5 152.5l216 93q22 -36 73 -66t113 -30t105.5 25t43.5 74q0 33 -27.5 55.5t-50.5 29.5t-74 18l-12 3q-76 15 -140 42t-115.5 66t-81 95t-29.5 123q0 147 112.5 238.5t269.5 91.5q122 0 224 -51t161 -142l-202 -120q-23 36 -67.5 63.5
t-94.5 31.5q-72 4 -118 -22.5t-46 -83.5q0 -27 20 -46t42 -26.5t64 -17.5t59 -16q73 -24 131 -52t108.5 -67.5t77.5 -93t25 -116.5q0 -96 -59 -173t-154 -115t-200 -30z" />
    <glyph glyph-name="t" unicode="t" horiz-adv-x="734" 
d="M674 768h-197v-768h-256v768h-149v256h149v322h256v-322h197v-256z" />
    <glyph glyph-name="u" unicode="u" horiz-adv-x="1103" 
d="M82 378v646h256v-578q0 -89 62.5 -151.5t151.5 -62.5t151 62.5t62 151.5v578h256l1 -1024h-256l-1 90q-114 -117 -279 -117q-167 0 -285.5 119t-118.5 286z" />
    <glyph glyph-name="v" unicode="v" horiz-adv-x="1198" 
d="M764 0h-330l-373 1025h273l265 -731l265 731h274z" />
    <glyph glyph-name="w" unicode="w" horiz-adv-x="1750" 
d="M656 0h-253l-342 1024h250l220 -654l219 654h251l219 -654l219 654h251l-343 -1024h-253l-220 656z" />
    <glyph glyph-name="x" unicode="x" horiz-adv-x="1228" 
d="M82 0l375 514l-372 511h315l213 -293l215 293h316l-372 -511l375 -514h-316l-218 298l-216 -298h-315z" />
    <glyph glyph-name="y" unicode="y" horiz-adv-x="1178" 
d="M825 1024h272l-560 -1536h-272l186 512l-369 1024h279l217 -675z" />
    <glyph glyph-name="z" unicode="z" horiz-adv-x="1038" 
d="M956 768l-505 -512h505v-256h-874v256l506 512h-506v256h874v-256z" />
    <glyph glyph-name="braceleft" unicode="{" horiz-adv-x="841" 
d="M627 -115q-149 0 -254 105t-105 254v250q0 25 -23 45t-50 33t-49.5 35.5t-22.5 51.5q0 27 22.5 50.5t49.5 37.5t50 34t23 42v252q0 148 105 253.5t254 105.5h112v-256h-112q-42 0 -72.5 -30t-30.5 -73v-260q-2 -30 -20 -56t-42.5 -52t-34.5 -48q10 -25 52.5 -70.5
t44.5 -84.5v-260q0 -43 30 -73.5t73 -30.5h112v-255h-112z" />
    <glyph glyph-name="bar" unicode="|" horiz-adv-x="542" 
d="M143 1434h256v-1743h-256v1743z" />
    <glyph glyph-name="braceright" unicode="}" horiz-adv-x="841" 
d="M102 -115v255h113q42 0 72 30.5t30 73.5v260q2 39 44.5 84.5t52.5 70.5q-9 22 -33.5 48t-43 52t-20.5 56v260q0 43 -30 73t-72 30h-113v256h113q149 0 253.5 -105.5t104.5 -253.5v-252q0 -22 23 -42t50.5 -34t50 -37.5t22.5 -50.5q0 -29 -22.5 -51.5t-50 -35.5t-50.5 -33
t-23 -45v-250q0 -149 -104.5 -254t-253.5 -105h-113z" />
    <glyph glyph-name="asciitilde" unicode="~" horiz-adv-x="1341" 
d="M988 406q-60 0 -144.5 28t-155 61t-147 60.5t-123.5 27.5q-44 1 -65.5 -33.5t-16.5 -81.5l-251 3q-14 89 24 170.5t114.5 131.5t168.5 50q49 0 108 -19t113.5 -46t107.5 -54t105.5 -46t92.5 -19q47 0 69 34t17 84l249 -2q23 -141 -53 -245t-213 -104z" />
    <glyph glyph-name="uni00A0" unicode="&#xa0;" horiz-adv-x="491" 
 />
    <glyph glyph-name="exclamdown" unicode="&#xa1;" horiz-adv-x="456" 
d="M211 1051q56 0 93.5 -38t37.5 -95q0 -54 -38 -92t-93 -38q-54 0 -91.5 38t-37.5 92q0 57 37.5 95t91.5 38zM319 594v-1004h-215v1004h215z" />
    <glyph glyph-name="cent" unicode="&#xa2;" horiz-adv-x="1118" 
d="M508 0v211q-183 33 -304.5 176t-121.5 332q0 188 122 331.5t304 174.5v209h175v-209q111 -19 203 -82t150 -158l-221 -128q-36 55 -95 87.5t-124 32.5q-106 0 -182 -76t-76 -182q0 -107 76 -183.5t182 -76.5q65 0 124 32.5t95 87.5l221 -128q-58 -95 -150 -158t-203 -82
v-211h-175z" />
    <glyph glyph-name="sterling" unicode="&#xa3;" horiz-adv-x="1225" 
d="M106 0v256q73 0 141.5 22t107 67.5t13.5 100.5q-3 10 -4 11h-258v174h128q-72 79 -112 147.5t-40 151.5q0 143 71.5 265t193.5 193.5t265 71.5q144 0 266.5 -71t194 -193t71.5 -266h-255q0 114 -81 194t-196 80q-113 0 -193.5 -80t-80.5 -194q0 -34 8.5 -66t18 -54
t32 -51t34.5 -42.5t42.5 -44.5t40.5 -41h382v-174h-272q11 -42 11 -88q0 -33 -15 -66t-32 -47h535v-256h-1017z" />
    <glyph glyph-name="currency" unicode="&#xa4;" horiz-adv-x="1053" 
d="M206 271l-124 124l133 133q-53 86 -53 188.5t55 187.5l-135 135l124 123l133 -134q85 53 188.5 53.5t189.5 -51.5l133 132l122 -123l-131 -131q56 -87 56.5 -191.5t-54.5 -191.5l129 -130l-122 -124l-130 130q-91 -55 -193 -55t-190 57zM529 521q80 2 136.5 58t56.5 137
q0 83 -57 136.5t-136 54.5q-82 1 -137.5 -56.5t-55.5 -134.5q0 -81 57 -138.5t136 -56.5z" />
    <glyph glyph-name="yen" unicode="&#xa5;" horiz-adv-x="1373" 
d="M559 0v150h-246v174h246v98h-246v174h246v50l-493 788h302l318 -509l320 509h302l-494 -788v-50h245v-174h-245v-98h245v-174h-245v-150h-255z" />
    <glyph glyph-name="brokenbar" unicode="&#xa6;" horiz-adv-x="501" 
d="M123 1434h256v-768h-256v768zM123 459h256v-768h-256v768z" />
    <glyph glyph-name="section" unicode="&#xa7;" horiz-adv-x="1129" 
d="M556 -256q-122 0 -223.5 51t-161.5 142l202 119q23 -37 67.5 -63.5t94.5 -30.5q73 -4 118 22.5t45 83.5q0 22 -12.5 39t-29 27.5t-45 19t-47.5 12t-50 8.5q-166 22 -278.5 156.5t-112.5 304.5q0 111 50 207t136 154q-116 69 -116 200q0 148 112 239t269 91
q122 0 223.5 -51t161.5 -142l-202 -120q-22 37 -66.5 64t-95.5 31q-72 4 -117.5 -22.5t-45.5 -82.5q0 -26 14 -44.5t41.5 -29.5t51.5 -16.5t60 -12.5q8 -1 12 -2q178 -34 287 -158.5t109 -304.5q0 -111 -51 -207t-137 -154q119 -71 119 -200q0 -99 -54 -175.5t-140 -115.5
t-188 -39zM577 400q82 0 143.5 71.5t61.5 161.5q0 106 -65.5 171t-169.5 65q-76 0 -137.5 -73t-61.5 -161q0 -99 65 -167t164 -68z" />
    <glyph glyph-name="dieresis" unicode="&#xa8;" horiz-adv-x="1494" 
d="M543 1095q-57 0 -95 37t-38 94q0 55 38.5 93t94.5 38q55 0 93 -38t38 -93q0 -57 -37.5 -94t-93.5 -37zM953 1095q-57 0 -95.5 37t-38.5 94q0 55 38.5 93t95.5 38q55 0 93 -38t38 -93q0 -56 -38 -93.5t-93 -37.5z" />
    <glyph glyph-name="copyright" unicode="&#xa9;" horiz-adv-x="1517" 
d="M759 19q-141 0 -270.5 55.5t-223 149t-149 222.5t-55.5 271t55.5 271t149 222.5t223 148.5t270.5 55q189 0 349.5 -93.5t254 -254t93.5 -349.5q0 -142 -55 -271t-148.5 -222.5t-222.5 -149t-271 -55.5zM237 717q0 -141 69.5 -261t190 -190.5t262.5 -70.5q107 0 204 41.5
t166.5 111.5t110.5 166.5t41 202.5q0 144 -70.5 264.5t-190.5 189t-261 68.5q-106 0 -202.5 -41t-166.5 -110.5t-111.5 -166.5t-41.5 -204zM407 717q0 154 103 263t249 109q85 0 158 -40t123 -109l-121 -66q-63 80 -160 80q-91 0 -154.5 -71t-63.5 -166t62.5 -166.5
t155.5 -71.5q95 0 161 79l120 -65q-50 -69 -123 -108.5t-158 -39.5q-146 0 -249 108.5t-103 263.5z" />
    <glyph glyph-name="ordfeminine" unicode="&#xaa;" horiz-adv-x="845" 
d="M414 748q-146 0 -249.5 105t-103.5 253t103.5 253t249.5 105q149 0 235 -105v86h135v-680h-135v88q-86 -105 -235 -105zM240 1105q0 -79 53.5 -135t126.5 -56q76 0 125.5 56t49.5 135q0 82 -50 136t-125 54q-74 0 -127 -55t-53 -135z" />
    <glyph glyph-name="guillemotleft" unicode="&#xab;" horiz-adv-x="1212" 
d="M430 267l-307 348l307 347h260l-306 -347l306 -348h-260zM851 267l-307 348l307 347h259l-305 -347l305 -348h-259z" />
    <glyph glyph-name="logicalnot" unicode="&#xac;" horiz-adv-x="1050" 
d="M713 295v384h-631v255h887v-639h-256z" />
    <glyph glyph-name="uni00AD" unicode="&#xad;" horiz-adv-x="909" 
d="M131 742h655v-256h-655v256z" />
    <glyph glyph-name="registered" unicode="&#xae;" horiz-adv-x="964" 
d="M482 675q-179 0 -305 126t-126 305t126 305t305 126t305 -126t126 -305q0 -178 -126.5 -304.5t-304.5 -126.5zM577 1056l72 -127q52 49 68 114q25 99 -25.5 184.5t-146.5 112.5q-102 26 -189 -27h154q56 0 96 -40t40 -97q0 -38 -19 -70t-50 -50zM420 871q118 -33 217 47
h-89l-71 120h-31v-120h-94l1 393q-81 -50 -105 -143q-25 -97 25 -183.5t147 -113.5zM447 1132h63q18 0 30 13t12 31t-12 31t-30 13h-63v-88z" />
    <glyph glyph-name="macron" unicode="&#xaf;" horiz-adv-x="1228" 
d="M268 1361h693v-191h-693v191z" />
    <glyph glyph-name="degree" unicode="&#xb0;" horiz-adv-x="825" 
d="M414 756q-148 0 -250.5 104t-102.5 246q0 143 103.5 246.5t249.5 103.5q148 0 249 -104t101 -246q0 -148 -103.5 -249t-246.5 -101zM414 971q56 0 95.5 39t39.5 96t-39.5 96t-95.5 39q-57 0 -97.5 -39t-40.5 -96t40.5 -96t97.5 -39z" />
    <glyph glyph-name="plusminus" unicode="&#xb1;" horiz-adv-x="1187" 
d="M466 388v384h-384v256h384v384h256v-384h384v-256h-384v-384h-256zM82 0v256h1024v-256h-1024z" />
    <glyph glyph-name="uni00B2" unicode="&#xb2;" horiz-adv-x="732" 
d="M98 838v134q16 11 71 46.5t82.5 55.5t69 54t68.5 69t44 74q0 39 -26 65t-64 26q-39 0 -66 -26t-27 -65h-152q0 99 71.5 165.5t173.5 66.5t172 -66t70 -166q0 -32 -14 -65t-31.5 -58t-51.5 -58.5t-54.5 -50.5t-60.5 -50h202v-151h-477z" />
    <glyph glyph-name="uni00B3" unicode="&#xb3;" horiz-adv-x="591" 
d="M297 817q-93 0 -158 60.5t-65 151.5h151q0 -31 20.5 -50.5t51.5 -19.5q30 0 50 20t20 50q0 39 -33 67t-91 28v101q56 0 81 24t25 58q0 23 -16.5 38.5t-40.5 15.5q-23 0 -39.5 -15.5t-16.5 -38.5h-152q0 85 60.5 140.5t147.5 55.5q88 0 148.5 -55.5t60.5 -140.5
q0 -73 -45 -128q62 -59 62 -150t-65 -151.5t-156 -60.5z" />
    <glyph glyph-name="acute" unicode="&#xb4;" horiz-adv-x="1071" 
d="M431 1139l82 295h256l-167 -295h-171z" />
    <glyph glyph-name="uni00B5" unicode="&#xb5;" horiz-adv-x="1166" 
d="M82 -442v1466h256v-522q0 -119 71.5 -201t181.5 -82q108 0 172.5 81t64.5 202v522h256v-1024h-256v119q-114 -148 -280 -148q-118 0 -210 74v-487h-256z" />
    <glyph glyph-name="paragraph" unicode="&#xb6;" horiz-adv-x="1104" 
d="M441 -309v1044q-152 0 -255.5 101.5t-103.5 248.5q0 146 103.5 247.5t255.5 101.5h255v-1743h-255zM768 -309v1743h255v-1743h-255z" />
    <glyph glyph-name="periodcentered" unicode="&#xb7;" horiz-adv-x="425" 
d="M213 483q-55 0 -93 37.5t-38 93.5q0 54 38 92.5t93 38.5q54 0 92.5 -38.5t38.5 -92.5q0 -55 -38.5 -93t-92.5 -38z" />
    <glyph glyph-name="cedilla" unicode="&#xb8;" horiz-adv-x="1182" 
d="M637 -385q-73 -20 -139 18t-86 111l129 35q5 -20 23 -30t38 -5t30 23t5 38q-10 40 -60 36l-134 -5l145 255l118 -67l-39 -67q78 -33 100 -118q20 -73 -18 -138.5t-112 -85.5z" />
    <glyph glyph-name="uni00B9" unicode="&#xb9;" horiz-adv-x="462" 
d="M165 838v494h-67l22 152h195v-646h-150z" />
    <glyph glyph-name="ordmasculine" unicode="&#xba;" horiz-adv-x="802" 
d="M401 748q-141 0 -240.5 104.5t-99.5 252.5q0 149 99.5 254t240.5 105t240.5 -105t99.5 -254q0 -148 -100 -252.5t-240 -104.5zM196 1105q0 -92 60 -157.5t145 -65.5q88 0 147 67t59 156q0 91 -59 158t-147 67q-89 0 -147 -68t-58 -157z" />
    <glyph glyph-name="guillemotright" unicode="&#xbb;" horiz-adv-x="1232" 
d="M523 267l305 348l-305 347h259l308 -347l-308 -348h-259zM102 267l306 348l-306 347h260l308 -347l-308 -348h-260z" />
    <glyph glyph-name="onequarter" unicode="&#xbc;" horiz-adv-x="1632" 
d="M165 838v494h-67l22 152h195v-646h-150zM175 0l827 1434h210l-827 -1434h-210zM1274 0v99h-252v183l231 364h171v-395h61v-152h-61v-99h-150zM1170 251h117v184z" />
    <glyph glyph-name="onehalf" unicode="&#xbd;" horiz-adv-x="1655" 
d="M165 838v494h-67l22 152h195v-646h-150zM175 0l827 1434h210l-827 -1434h-210zM1022 0v134q18 13 71 47t82 55.5t70 55t68.5 69t43.5 73.5q0 39 -26 64.5t-64 25.5q-39 0 -66 -25.5t-27 -64.5h-152q0 100 72 171t173 71q100 0 170.5 -71t70.5 -171q0 -27 -7.5 -52.5
t-27.5 -53.5t-33 -45t-47.5 -48.5t-45 -40.5t-50.5 -42h202v-152h-477z" />
    <glyph glyph-name="threequarters" unicode="&#xbe;" horiz-adv-x="1760" 
d="M297 817q-93 0 -158 60.5t-65 151.5h151q0 -31 20.5 -50.5t51.5 -19.5q30 0 50 20t20 50q0 39 -33 67t-91 28v101q56 0 81 24t25 58q0 23 -16.5 38.5t-40.5 15.5q-23 0 -39.5 -15.5t-16.5 -38.5h-152q0 85 60.5 140.5t147.5 55.5q88 0 148.5 -55.5t60.5 -140.5
q0 -73 -45 -128q62 -59 62 -150t-65 -151.5t-156 -60.5zM303 0l827 1434h211l-827 -1434h-211zM1402 0v99h-251v183l231 364h171v-395h60v-152h-60v-99h-151zM1299 251h117v184z" />
    <glyph glyph-name="questiondown" unicode="&#xbf;" horiz-adv-x="1131" 
d="M525 788q-54 0 -92 38t-38 92q0 57 38 95t92 38q56 0 93.5 -38t37.5 -95q0 -54 -38 -92t-93 -38zM550 -436q-127 0 -235 62.5t-170.5 170t-62.5 233.5q0 132 64.5 243.5t176.5 170.5q40 22 62.5 60.5t22.5 84.5h256q0 -116 -59 -214.5t-162 -154.5q-49 -27 -77 -77.5
t-28 -112.5q0 -88 62 -149.5t150 -61.5t150 61.5t62 149.5h256q0 -126 -62.5 -233.5t-170.5 -170t-235 -62.5z" />
    <glyph glyph-name="Agrave" unicode="&#xc0;" horiz-adv-x="1498" 
d="M478 1841h255l82 -295h-170zM602 1434h294l520 -1434h-271l-91 251h-610l-91 -251h-271zM538 507h423l-212 579z" />
    <glyph glyph-name="Aacute" unicode="&#xc1;" horiz-adv-x="1498" 
d="M682 1549l82 295h256l-167 -295h-171zM602 1434h294l520 -1434h-271l-91 251h-610l-91 -251h-271zM538 507h423l-212 579z" />
    <glyph glyph-name="Acircumflex" unicode="&#xc2;" horiz-adv-x="1498" 
d="M892 1841l199 -295h-170l-172 198l-169 -198h-170l194 295h288zM602 1434h294l520 -1434h-271l-91 251h-610l-91 -251h-271zM538 507h423l-212 579z" />
    <glyph glyph-name="Atilde" unicode="&#xc3;" horiz-adv-x="1498" 
d="M908 1540q-34 0 -90.5 27.5t-103.5 58.5t-88.5 50.5t-52.5 7.5q-24 -29 -8 -89l-148 -41q-41 122 8 207.5t164 85.5q43 0 115 -36.5t133 -72.5t76 -36q49 0 19 87l150 49q41 -126 -11 -212t-163 -86zM602 1434h294l520 -1434h-271l-91 251h-610l-91 -251h-271zM538 507
h423l-212 579z" />
    <glyph glyph-name="Adieresis" unicode="&#xc4;" horiz-adv-x="1498" 
d="M545 1504q-57 0 -95 37t-38 94q0 55 38.5 93t94.5 38q55 0 93 -38t38 -93q0 -57 -37.5 -94t-93.5 -37zM955 1504q-57 0 -95 37t-38 94q0 55 38 93t95 38q55 0 93 -38t38 -93q0 -56 -38 -93.5t-93 -37.5zM602 1434h294l520 -1434h-271l-91 251h-610l-91 -251h-271z
M538 507h423l-212 579z" />
    <glyph glyph-name="Aring" unicode="&#xc5;" horiz-adv-x="1498" 
d="M749 1502q-79 0 -135.5 57.5t-56.5 136.5q0 77 56.5 133t135.5 56t135.5 -56t56.5 -133q0 -81 -56.5 -137.5t-135.5 -56.5zM749 1625q28 0 48 20.5t20 49.5q0 28 -19.5 47t-48.5 19q-28 0 -48 -19t-20 -47q0 -29 20 -49.5t48 -20.5zM602 1434h294l520 -1434h-271l-91 251
h-610l-91 -251h-271zM538 507h423l-212 579z" />
    <glyph glyph-name="AE" unicode="&#xc6;" horiz-adv-x="1721" 
d="M82 0l520 1434h1017v-256h-501v-333h403v-256h-403v-333h501v-256h-757v251h-418l-91 -251h-271zM538 507h324v671h-80z" />
    <glyph glyph-name="Ccedilla" unicode="&#xc7;" horiz-adv-x="1431" 
d="M774 -385q-73 -20 -139 18t-86 111l130 35q5 -20 22.5 -30t37.5 -5t30.5 23t5.5 38q-10 40 -61 36l-133 -5l83 146q-169 26 -306.5 129t-217 263t-79.5 343q0 152 56 289.5t150.5 237t225 158t273.5 58.5q170 0 317 -79t246 -216l-227 -123q-63 75 -151 118.5t-185 43.5
q-186 0 -317.5 -143t-131.5 -344q0 -132 60 -244.5t163.5 -178t225.5 -65.5q99 0 186.5 43.5t149.5 119.5l227 -124q-92 -127 -225.5 -205t-289.5 -88l-10 -18q36 -15 63 -46t38 -72q20 -73 -19 -139t-112 -85z" />
    <glyph glyph-name="Egrave" unicode="&#xc8;" horiz-adv-x="1125" 
d="M292 1841h256l82 -295h-171zM123 0v1434h900v-256h-644v-282h510v-256h-510v-384h644v-256h-900z" />
    <glyph glyph-name="Eacute" unicode="&#xc9;" horiz-adv-x="1125" 
d="M496 1549l82 295h256l-167 -295h-171zM123 0v1434h900v-256h-644v-282h510v-256h-510v-384h644v-256h-900z" />
    <glyph glyph-name="Ecircumflex" unicode="&#xca;" horiz-adv-x="1125" 
d="M707 1841l197 -295h-170l-171 198l-169 -198h-171l195 295h289zM123 0v1434h900v-256h-644v-282h510v-256h-510v-384h644v-256h-900z" />
    <glyph glyph-name="Edieresis" unicode="&#xcb;" horiz-adv-x="1125" 
d="M359 1504q-57 0 -95.5 37t-38.5 94q0 55 38.5 93t95.5 38q55 0 93 -38t38 -93q0 -56 -38 -93.5t-93 -37.5zM769 1504q-57 0 -95 37t-38 94q0 55 38.5 93t94.5 38q55 0 93 -38t38 -93q0 -57 -37.5 -94t-93.5 -37zM123 0v1434h900v-256h-644v-282h510v-256h-510v-384h644
v-256h-900z" />
    <glyph glyph-name="Igrave" unicode="&#xcc;" horiz-adv-x="563" 
d="M10 1841h256l82 -295h-171zM154 0v1434h256v-1434h-256z" />
    <glyph glyph-name="Iacute" unicode="&#xcd;" horiz-adv-x="563" 
d="M215 1549l82 295h255l-167 -295h-170zM154 0v1434h256v-1434h-256z" />
    <glyph glyph-name="Icircumflex" unicode="&#xce;" horiz-adv-x="563" 
d="M425 1841l198 -295h-170l-171 198l-169 -198h-171l195 295h288zM154 0v1434h256v-1434h-256z" />
    <glyph glyph-name="Idieresis" unicode="&#xcf;" horiz-adv-x="563" 
d="M78 1504q-57 0 -95.5 37t-38.5 94q0 55 38.5 93t95.5 38q55 0 93 -38t38 -93q0 -56 -38 -93.5t-93 -37.5zM487 1504q-57 0 -95 37t-38 94q0 55 38.5 93t94.5 38q55 0 93 -38t38 -93q0 -57 -37.5 -94t-93.5 -37zM154 0v1434h256v-1434h-256z" />
    <glyph glyph-name="Eth" unicode="&#xd0;" horiz-adv-x="1376" 
d="M123 0v660h-113v216h113v558h475q145 0 278 -57t229 -153t153 -229t57 -278t-57 -278t-153 -229t-229 -153t-278 -57h-475zM379 256h219q189 0 325 135t136 326q0 190 -136 325.5t-325 135.5h-219v-302h280v-216h-280v-404z" />
    <glyph glyph-name="Ntilde" unicode="&#xd1;" horiz-adv-x="1375" 
d="M848 1540q-35 0 -91.5 27.5t-103.5 58.5t-88.5 50.5t-52.5 7.5q-24 -29 -8 -89l-149 -41q-41 122 8.5 207.5t164.5 85.5q43 0 115 -36.5t133 -72.5t76 -36q48 0 18 87l152 49q41 -126 -11.5 -212t-162.5 -86zM123 0v1434h276l597 -972v972h256v-1434h-276l-597 972v-972
h-256z" />
    <glyph glyph-name="Ograve" unicode="&#xd2;" horiz-adv-x="1536" 
d="M497 1841h256l82 -295h-171zM768 -27q-143 0 -274 59t-226 158.5t-151 237.5t-56 289q0 202 95 373t258 270.5t354 99.5t354 -99.5t258 -270.5t95 -373q0 -151 -56 -289t-151 -237.5t-226 -158.5t-274 -59zM768 229q122 0 226 66t164.5 178.5t60.5 243.5t-60.5 243.5
t-164.5 178t-226 65.5q-186 0 -318.5 -143t-132.5 -344q0 -132 60.5 -244.5t164.5 -178t226 -65.5z" />
    <glyph glyph-name="Oacute" unicode="&#xd3;" horiz-adv-x="1536" 
d="M701 1549l82 295h255l-167 -295h-170zM768 -27q-143 0 -274 59t-226 158.5t-151 237.5t-56 289q0 202 95 373t258 270.5t354 99.5t354 -99.5t258 -270.5t95 -373q0 -151 -56 -289t-151 -237.5t-226 -158.5t-274 -59zM768 229q122 0 226 66t164.5 178.5t60.5 243.5
t-60.5 243.5t-164.5 178t-226 65.5q-186 0 -318.5 -143t-132.5 -344q0 -132 60.5 -244.5t164.5 -178t226 -65.5z" />
    <glyph glyph-name="Ocircumflex" unicode="&#xd4;" horiz-adv-x="1536" 
d="M911 1841l199 -295h-171l-171 198l-169 -198h-171l196 295h287zM768 -27q-143 0 -274 59t-226 158.5t-151 237.5t-56 289q0 202 95 373t258 270.5t354 99.5t354 -99.5t258 -270.5t95 -373q0 -151 -56 -289t-151 -237.5t-226 -158.5t-274 -59zM768 229q122 0 226 66
t164.5 178.5t60.5 243.5t-60.5 243.5t-164.5 178t-226 65.5q-186 0 -318.5 -143t-132.5 -344q0 -132 60.5 -244.5t164.5 -178t226 -65.5z" />
    <glyph glyph-name="Otilde" unicode="&#xd5;" horiz-adv-x="1536" 
d="M928 1540q-43 0 -121.5 44.5t-139.5 79.5t-75 20q-25 -29 -7 -89l-149 -41q-42 122 7.5 207.5t164.5 85.5q43 0 115 -36.5t133.5 -72.5t76.5 -36q49 0 17 87l152 49q41 -126 -11 -212t-163 -86zM768 -27q-143 0 -274 59t-226 158.5t-151 237.5t-56 289q0 202 95 373
t258 270.5t354 99.5t354 -99.5t258 -270.5t95 -373q0 -151 -56 -289t-151 -237.5t-226 -158.5t-274 -59zM768 229q122 0 226 66t164.5 178.5t60.5 243.5t-60.5 243.5t-164.5 178t-226 65.5q-186 0 -318.5 -143t-132.5 -344q0 -132 60.5 -244.5t164.5 -178t226 -65.5z" />
    <glyph glyph-name="Odieresis" unicode="&#xd6;" horiz-adv-x="1536" 
d="M564 1504q-57 0 -95 37t-38 94q0 55 38.5 93t94.5 38q55 0 93 -38t38 -93q0 -56 -38 -93.5t-93 -37.5zM974 1504q-57 0 -95 37t-38 94q0 55 38.5 93t94.5 38q55 0 93 -38t38 -93q0 -57 -37.5 -94t-93.5 -37zM768 -27q-143 0 -274 59t-226 158.5t-151 237.5t-56 289
q0 202 95 373t258 270.5t354 99.5t354 -99.5t258 -270.5t95 -373q0 -151 -56 -289t-151 -237.5t-226 -158.5t-274 -59zM768 229q122 0 226 66t164.5 178.5t60.5 243.5t-60.5 243.5t-164.5 178t-226 65.5q-186 0 -318.5 -143t-132.5 -344q0 -132 60.5 -244.5t164.5 -178
t226 -65.5z" />
    <glyph glyph-name="multiply" unicode="&#xd7;" horiz-adv-x="1068" 
d="M262 162l-180 181l270 271l-270 273l180 180l272 -272l271 272l181 -180l-272 -273l272 -271l-181 -181l-271 272z" />
    <glyph glyph-name="Oslash" unicode="&#xd8;" horiz-adv-x="1536" 
d="M438 -112l-221 127l84 148q-112 104 -176 248.5t-64 305.5q0 202 95 373t258 270.5t354 99.5q131 0 253 -50l79 135l221 -127l-85 -146q112 -104 175.5 -248t63.5 -307q0 -151 -56 -289t-151 -237.5t-226 -158.5t-274 -59q-129 0 -251 53zM436 398l454 784
q-58 22 -122 22q-186 0 -318.5 -143t-132.5 -344q0 -185 119 -319zM768 229q122 0 226 66t164.5 178.5t60.5 243.5q0 186 -117 319l-454 -783q59 -24 120 -24z" />
    <glyph glyph-name="Ugrave" unicode="&#xd9;" horiz-adv-x="1394" 
d="M426 1841h256l82 -295h-171zM698 -27q-126 0 -234.5 49t-182.5 133.5t-116 199t-42 243.5v836h256v-836q0 -158 86 -263.5t233 -105.5q99 0 172.5 50.5t109.5 133t36 185.5v836h256v-836q0 -173 -71 -315t-203 -226t-300 -84z" />
    <glyph glyph-name="Uacute" unicode="&#xda;" horiz-adv-x="1394" 
d="M631 1549l82 295h255l-167 -295h-170zM698 -27q-126 0 -234.5 49t-182.5 133.5t-116 199t-42 243.5v836h256v-836q0 -158 86 -263.5t233 -105.5q99 0 172.5 50.5t109.5 133t36 185.5v836h256v-836q0 -173 -71 -315t-203 -226t-300 -84z" />
    <glyph glyph-name="Ucircumflex" unicode="&#xdb;" horiz-adv-x="1394" 
d="M841 1841l198 -295h-171l-171 198l-169 -198h-171l196 295h288zM698 -27q-126 0 -234.5 49t-182.5 133.5t-116 199t-42 243.5v836h256v-836q0 -158 86 -263.5t233 -105.5q99 0 172.5 50.5t109.5 133t36 185.5v836h256v-836q0 -173 -71 -315t-203 -226t-300 -84z" />
    <glyph glyph-name="Udieresis" unicode="&#xdc;" horiz-adv-x="1394" 
d="M494 1504q-57 0 -95.5 37t-38.5 94q0 55 39 93t95 38q55 0 93 -38t38 -93q0 -56 -38 -93.5t-93 -37.5zM903 1504q-57 0 -95 37t-38 94q0 55 38.5 93t94.5 38q55 0 93 -38t38 -93q0 -57 -37.5 -94t-93.5 -37zM698 -27q-126 0 -234.5 49t-182.5 133.5t-116 199t-42 243.5
v836h256v-836q0 -158 86 -263.5t233 -105.5q99 0 172.5 50.5t109.5 133t36 185.5v836h256v-836q0 -173 -71 -315t-203 -226t-300 -84z" />
    <glyph glyph-name="Yacute" unicode="&#xdd;" horiz-adv-x="1364" 
d="M615 1549l82 295h256l-168 -295h-170zM1001 1434h303l-494 -788v-646h-256v646l-493 788h303l318 -509z" />
    <glyph glyph-name="Thorn" unicode="&#xde;" horiz-adv-x="1117" 
d="M123 0v1434h256v-285h259q174 0 296 -127t122 -305q0 -179 -124 -305.5t-294 -126.5h-259v-285h-256zM379 541h231q79 0 134.5 56t55.5 137t-56 138t-134 57h-231v-388z" />
    <glyph glyph-name="germandbls" unicode="&#xdf;" horiz-adv-x="1176" 
d="M123 0v918q0 140 68.5 258.5t187 188t259.5 69.5q172 0 289 -117t117 -291q0 -87 -35 -165.5t-108 -115.5q51 -8 90 -34t62 -60t37.5 -78t19.5 -85t5 -85q0 -172 -122.5 -287.5t-296.5 -115.5h-75l-37 218h87q90 0 153 59.5t63 143.5q0 82 -63 140.5t-153 61.5l-87 3v209
l25 3q76 8 128.5 60.5t52.5 127.5q0 77 -53.5 132t-127.5 55q-96 0 -163 -67t-67 -164v-982h-256z" />
    <glyph glyph-name="agrave" unicode="&#xe0;" horiz-adv-x="1270" 
d="M358 1432h255l82 -295h-170zM892 1024h256v-1024h-257l-11 123q-44 -70 -112.5 -110t-157.5 -40q-149 0 -276 74t-200 200.5t-73 275.5q0 144 70 266t191.5 193t265.5 71q184 0 315 -157zM603 219q116 0 192 85t76 208q0 124 -76 208.5t-192 84.5q-117 0 -198 -85
t-81 -208q0 -122 82 -207.5t197 -85.5z" />
    <glyph glyph-name="aacute" unicode="&#xe1;" horiz-adv-x="1261" 
d="M562 1140l82 295h256l-168 -295h-170zM892 1024h256v-1024h-257l-11 123q-44 -70 -112.5 -110t-157.5 -40q-149 0 -276 74t-200 200.5t-73 275.5q0 144 70 266t191.5 193t265.5 71q184 0 315 -157zM603 219q116 0 192 85t76 208q0 124 -76 208.5t-192 84.5
q-117 0 -198 -85t-81 -208q0 -122 82 -207.5t197 -85.5z" />
    <glyph glyph-name="acircumflex" unicode="&#xe2;" horiz-adv-x="1270" 
d="M772 1432l199 -295h-171l-171 197l-169 -197h-170l194 295h288zM892 1024h256v-1024h-257l-11 123q-44 -70 -112.5 -110t-157.5 -40q-149 0 -276 74t-200 200.5t-73 275.5q0 144 70 266t191.5 193t265.5 71q184 0 315 -157zM603 219q116 0 192 85t76 208q0 124 -76 208.5
t-192 84.5q-117 0 -198 -85t-81 -208q0 -122 82 -207.5t197 -85.5z" />
    <glyph glyph-name="atilde" unicode="&#xe3;" horiz-adv-x="1270" 
d="M788 1130q-34 0 -90.5 27.5t-103.5 59t-88 51t-52 7.5q-26 -28 -9 -89l-148 -41q-42 122 7.5 207.5t164.5 85.5q43 0 115 -36.5t133.5 -73t76.5 -36.5q49 0 17 87l152 49q41 -125 -11.5 -211.5t-163.5 -86.5zM892 1024h256v-1024h-257l-11 123q-44 -70 -112.5 -110
t-157.5 -40q-149 0 -276 74t-200 200.5t-73 275.5q0 144 70 266t191.5 193t265.5 71q184 0 315 -157zM603 219q116 0 192 85t76 208q0 124 -76 208.5t-192 84.5q-117 0 -198 -85t-81 -208q0 -122 82 -207.5t197 -85.5z" />
    <glyph glyph-name="adieresis" unicode="&#xe4;" horiz-adv-x="1270" 
d="M425 1095q-57 0 -95 37t-38 94q0 55 38.5 93t94.5 38q55 0 93 -38t38 -93q0 -57 -37.5 -94t-93.5 -37zM836 1095q-57 0 -96 37t-39 94q0 55 39 93t96 38q55 0 93 -38t38 -93q0 -56 -38 -93.5t-93 -37.5zM892 1024h256v-1024h-257l-11 123q-44 -70 -112.5 -110t-157.5 -40
q-149 0 -276 74t-200 200.5t-73 275.5q0 144 70 266t191.5 193t265.5 71q184 0 315 -157zM603 219q116 0 192 85t76 208q0 124 -76 208.5t-192 84.5q-117 0 -198 -85t-81 -208q0 -122 82 -207.5t197 -85.5z" />
    <glyph glyph-name="aring" unicode="&#xe5;" horiz-adv-x="1270" 
d="M629 1093q-79 0 -135.5 57t-56.5 136q0 77 56.5 133.5t135.5 56.5t135 -56t56 -134q0 -81 -56 -137t-135 -56zM629 1215q28 0 48 20.5t20 49.5q0 28 -20 47.5t-48 19.5t-48 -19.5t-20 -47.5q0 -29 20 -49.5t48 -20.5zM892 1024h256v-1024h-257l-11 123
q-44 -70 -112.5 -110t-157.5 -40q-149 0 -276 74t-200 200.5t-73 275.5q0 144 70 266t191.5 193t265.5 71q184 0 315 -157zM603 219q116 0 192 85t76 208q0 124 -76 208.5t-192 84.5q-117 0 -198 -85t-81 -208q0 -122 82 -207.5t197 -85.5z" />
    <glyph glyph-name="ae" unicode="&#xe6;" horiz-adv-x="1767" 
d="M367 -27q-144 0 -240 94.5t-96 227.5q0 131 96 226t239 95h308q-12 78 -69 129.5t-141 51.5q-81 0 -147 -39l-141 212q128 83 285 83q108 0 203.5 -46.5t160.5 -130.5q67 82 164 129.5t206 47.5q157 0 282 -88t185 -233t38 -307h-742q21 -87 84 -141.5t155 -54.5
q61 0 114 30.5t88 83.5l260 -60q-64 -139 -188.5 -224.5t-275.5 -85.5q-122 0 -226.5 57t-172.5 156q-60 -89 -178 -151t-251 -62zM949 616h493q-20 91 -89 152t-158 61t-157 -60t-89 -153zM367 197q73 0 135.5 31t103.5 86q42 46 67 112h-307q-48 0 -80 -33t-32 -80
q0 -46 32 -81t81 -35z" />
    <glyph glyph-name="ccedilla" unicode="&#xe7;" horiz-adv-x="1044" 
d="M582 -385q-73 -20 -139.5 18t-86.5 111l130 35q4 -19 22.5 -29.5t38.5 -5.5t30.5 23t5.5 38q-10 40 -62 36l-133 -5l84 148q-177 38 -294 186.5t-117 341.5q0 147 68.5 271.5t186.5 197t257 72.5q124 0 231 -57.5t179 -157.5l-229 -124q-75 83 -181 83
q-107 0 -181.5 -84.5t-74.5 -200.5q0 -115 74.5 -199t181.5 -84q104 0 181 82l229 -125q-65 -89 -158 -144.5t-202 -66.5l-12 -18q37 -15 64 -46t38 -72q20 -73 -19 -139t-112 -85z" />
    <glyph glyph-name="egrave" unicode="&#xe8;" horiz-adv-x="1145" 
d="M302 1432h256l82 -295h-171zM573 -27q-139 0 -257 72.5t-186.5 196.5t-68.5 271t68.5 271t186.5 196.5t257 72.5q117 0 219.5 -52t170.5 -138t100 -201.5t14 -236.5h-740q21 -87 83 -141t153 -55q61 -1 114 29.5t89 84.5l261 -60q-64 -139 -188.5 -224.5t-275.5 -85.5z
M328 616h492q-20 91 -89 152t-158 61t-156.5 -60t-88.5 -153z" />
    <glyph glyph-name="eacute" unicode="&#xe9;" horiz-adv-x="1145" 
d="M506 1140l82 295h256l-167 -295h-171zM573 -27q-139 0 -257 72.5t-186.5 196.5t-68.5 271t68.5 271t186.5 196.5t257 72.5q117 0 219.5 -52t170.5 -138t100 -201.5t14 -236.5h-740q21 -87 83 -141t153 -55q61 -1 114 29.5t89 84.5l261 -60q-64 -139 -188.5 -224.5
t-275.5 -85.5zM328 616h492q-20 91 -89 152t-158 61t-156.5 -60t-88.5 -153z" />
    <glyph glyph-name="ecircumflex" unicode="&#xea;" horiz-adv-x="1145" 
d="M717 1432l197 -295h-170l-171 197l-170 -197h-170l195 295h289zM573 -27q-139 0 -257 72.5t-186.5 196.5t-68.5 271t68.5 271t186.5 196.5t257 72.5q117 0 219.5 -52t170.5 -138t100 -201.5t14 -236.5h-740q21 -87 83 -141t153 -55q61 -1 114 29.5t89 84.5l261 -60
q-64 -139 -188.5 -224.5t-275.5 -85.5zM328 616h492q-20 91 -89 152t-158 61t-156.5 -60t-88.5 -153z" />
    <glyph glyph-name="edieresis" unicode="&#xeb;" horiz-adv-x="1145" 
d="M370 1095q-57 0 -95.5 37t-38.5 94q0 55 38.5 93t95.5 38q55 0 93 -38t38 -93q0 -56 -38 -93.5t-93 -37.5zM779 1095q-57 0 -95 37t-38 94q0 55 38.5 93t94.5 38q55 0 93 -38t38 -93q0 -56 -38 -93.5t-93 -37.5zM573 -27q-139 0 -257 72.5t-186.5 196.5t-68.5 271
t68.5 271t186.5 196.5t257 72.5q117 0 219.5 -52t170.5 -138t100 -201.5t14 -236.5h-740q21 -87 83 -141t153 -55q61 -1 114 29.5t89 84.5l261 -60q-64 -139 -188.5 -224.5t-275.5 -85.5zM328 616h492q-20 91 -89 152t-158 61t-156.5 -60t-88.5 -153z" />
    <glyph glyph-name="igrave" unicode="&#xec;" horiz-adv-x="501" 
d="M-20 1432h256l81 -295h-171zM123 1024h256v-1024h-256v1024z" />
    <glyph glyph-name="iacute" unicode="&#xed;" horiz-adv-x="501" 
d="M184 1140l82 295h255l-167 -295h-170zM123 1024h256v-1024h-256v1024z" />
    <glyph glyph-name="icircumflex" unicode="&#xee;" horiz-adv-x="501" 
d="M394 1432l198 -295h-170l-171 197l-169 -197h-171l195 295h288zM123 1024h256v-1024h-256v1024z" />
    <glyph glyph-name="idieresis" unicode="&#xef;" horiz-adv-x="501" 
d="M47 1095q-57 0 -95.5 37t-38.5 94q0 55 38.5 93t95.5 38q55 0 93 -38t38 -93q0 -56 -38 -93.5t-93 -37.5zM457 1095q-57 0 -95 37t-38 94q0 55 38.5 93t94.5 38q55 0 93 -38t38 -93q0 -57 -37.5 -94t-93.5 -37zM123 1024h256v-1024h-256v1024z" />
    <glyph glyph-name="eth" unicode="&#xf0;" horiz-adv-x="1153" 
d="M598 -27q-140 0 -259 69t-188 187.5t-69 257.5q0 140 69 259t188 188.5t259 69.5q90 0 155 -57q-61 175 -148 261l-156 -154l-125 124l121 119q-46 11 -93 11l-1 256q154 0 291 -73l131 129l122 -124l-110 -108q153 -143 239.5 -372t87.5 -490q0 -243 -144.5 -398
t-369.5 -155zM598 229q106 0 182 76.5t76 181.5q0 107 -76 184t-182 77q-108 0 -184 -77t-76 -184q0 -105 76 -181.5t184 -76.5z" />
    <glyph glyph-name="ntilde" unicode="&#xf1;" horiz-adv-x="1144" 
d="M769 1130q-34 0 -90.5 27.5t-104 59t-89 51t-52.5 7.5q-25 -29 -7 -89l-148 -41q-42 122 7.5 207.5t164.5 85.5q43 0 115 -36.5t133 -73t76 -36.5q50 0 18 87l151 49q41 -126 -11 -212t-163 -86zM1063 648v-648h-256v580q0 89 -62.5 151.5t-151.5 62.5t-151.5 -62.5
t-62.5 -151.5v-580h-255l-1 1024h256v-88q115 117 278 117q168 0 287 -119t119 -286z" />
    <glyph glyph-name="ograve" unicode="&#xf2;" horiz-adv-x="1146" 
d="M302 1432h256l82 -295h-171zM573 -27q-139 0 -257 72.5t-186.5 196.5t-68.5 270q0 147 68.5 271.5t186.5 197t257 72.5t257 -72.5t186.5 -197t68.5 -271.5q0 -146 -68.5 -270t-186.5 -196.5t-257 -72.5zM573 229q108 0 182 83.5t74 199.5q0 118 -75.5 201.5t-180.5 83.5
q-107 0 -181.5 -84.5t-74.5 -200.5q0 -119 75.5 -201t180.5 -82z" />
    <glyph glyph-name="oacute" unicode="&#xf3;" horiz-adv-x="1146" 
d="M507 1140l82 295h255l-167 -295h-170zM573 -27q-139 0 -257 72.5t-186.5 196.5t-68.5 270q0 147 68.5 271.5t186.5 197t257 72.5t257 -72.5t186.5 -197t68.5 -271.5q0 -146 -68.5 -270t-186.5 -196.5t-257 -72.5zM573 229q108 0 182 83.5t74 199.5q0 118 -75.5 201.5
t-180.5 83.5q-107 0 -181.5 -84.5t-74.5 -200.5q0 -119 75.5 -201t180.5 -82z" />
    <glyph glyph-name="ocircumflex" unicode="&#xf4;" horiz-adv-x="1146" 
d="M717 1432l198 -295h-171l-171 197l-169 -197h-171l196 295h288zM573 -27q-139 0 -257 72.5t-186.5 196.5t-68.5 270q0 147 68.5 271.5t186.5 197t257 72.5t257 -72.5t186.5 -197t68.5 -271.5q0 -146 -68.5 -270t-186.5 -196.5t-257 -72.5zM573 229q108 0 182 83.5
t74 199.5q0 118 -75.5 201.5t-180.5 83.5q-107 0 -181.5 -84.5t-74.5 -200.5q0 -119 75.5 -201t180.5 -82z" />
    <glyph glyph-name="otilde" unicode="&#xf5;" horiz-adv-x="1146" 
d="M733 1130q-34 0 -90.5 27.5t-104 59t-89 51t-52.5 7.5q-25 -29 -7 -89l-148 -41q-42 122 7.5 207.5t164.5 85.5q43 0 115 -36.5t133 -73t76 -36.5q50 0 18 87l151 49q41 -126 -11 -212t-163 -86zM573 -27q-139 0 -257 72.5t-186.5 196.5t-68.5 270q0 147 68.5 271.5
t186.5 197t257 72.5t257 -72.5t186.5 -197t68.5 -271.5q0 -146 -68.5 -270t-186.5 -196.5t-257 -72.5zM573 229q108 0 182 83.5t74 199.5q0 118 -75.5 201.5t-180.5 83.5q-107 0 -181.5 -84.5t-74.5 -200.5q0 -119 75.5 -201t180.5 -82z" />
    <glyph glyph-name="odieresis" unicode="&#xf6;" horiz-adv-x="1146" 
d="M370 1095q-57 0 -95 37t-38 94q0 55 38.5 93t94.5 38q55 0 93 -38t38 -93q0 -56 -38 -93.5t-93 -37.5zM779 1095q-57 0 -95 37t-38 94q0 55 38.5 93t94.5 38q55 0 93 -38t38 -93q0 -57 -37.5 -94t-93.5 -37zM573 -27q-139 0 -257 72.5t-186.5 196.5t-68.5 270
q0 147 68.5 271.5t186.5 197t257 72.5t257 -72.5t186.5 -197t68.5 -271.5q0 -146 -68.5 -270t-186.5 -196.5t-257 -72.5zM573 229q108 0 182 83.5t74 199.5q0 118 -75.5 201.5t-180.5 83.5q-107 0 -181.5 -84.5t-74.5 -200.5q0 -119 75.5 -201t180.5 -82z" />
    <glyph glyph-name="divide" unicode="&#xf7;" horiz-adv-x="1187" 
d="M594 1122q57 0 97.5 -41t40.5 -98t-40.5 -97.5t-97.5 -40.5q-58 0 -98 40.5t-40 97.5t40 98t98 41zM82 486v256h1024v-256h-1024zM594 384q57 0 98 -41.5t41 -97.5q0 -57 -41 -98t-98 -41q-58 0 -98 41t-40 98t40 98t98 41z" />
    <glyph glyph-name="oslash" unicode="&#xf8;" horiz-adv-x="1146" 
d="M352 -78l-180 104l54 92q-77 75 -121 177.5t-44 216.5q0 147 68.5 271.5t186.5 197t257 72.5q94 0 172 -33l51 85l179 -104l-53 -93q77 -75 120 -177.5t43 -218.5q0 -146 -68.5 -270t-186.5 -196.5t-257 -72.5q-86 0 -173 33zM352 334l279 483q-84 16 -161.5 -23.5
t-124.5 -119.5t-47 -176q0 -94 54 -164zM516 210q86 -16 164 23t124 118.5t46 174.5q0 91 -54 167z" />
    <glyph glyph-name="ugrave" unicode="&#xf9;" horiz-adv-x="1103" 
d="M312 1432h255l82 -295h-170zM82 378v646h256v-578q0 -89 62.5 -151.5t151.5 -62.5t151 62.5t62 151.5v578h256l1 -1024h-256l-1 90q-114 -117 -279 -117q-167 0 -285.5 119t-118.5 286z" />
    <glyph glyph-name="uacute" unicode="&#xfa;" horiz-adv-x="1103" 
d="M516 1140l82 295h256l-167 -295h-171zM82 378v646h256v-578q0 -89 62.5 -151.5t151.5 -62.5t151 62.5t62 151.5v578h256l1 -1024h-256l-1 90q-114 -117 -279 -117q-167 0 -285.5 119t-118.5 286z" />
    <glyph glyph-name="ucircumflex" unicode="&#xfb;" horiz-adv-x="1103" 
d="M726 1432l199 -295h-170l-172 197l-169 -197h-170l194 295h288zM82 378v646h256v-578q0 -89 62.5 -151.5t151.5 -62.5t151 62.5t62 151.5v578h256l1 -1024h-256l-1 90q-114 -117 -279 -117q-167 0 -285.5 119t-118.5 286z" />
    <glyph glyph-name="udieresis" unicode="&#xfc;" horiz-adv-x="1103" 
d="M379 1095q-57 0 -95 37t-38 94q0 55 38.5 93t94.5 38q55 0 93 -38t38 -93q0 -57 -37.5 -94t-93.5 -37zM790 1095q-57 0 -95.5 37t-38.5 94q0 55 38.5 93t95.5 38q55 0 93 -38t38 -93q0 -56 -38 -93.5t-93 -37.5zM82 378v646h256v-578q0 -89 62.5 -151.5t151.5 -62.5
t151 62.5t62 151.5v578h256l1 -1024h-256l-1 90q-114 -117 -279 -117q-167 0 -285.5 119t-118.5 286z" />
    <glyph glyph-name="yacute" unicode="&#xfd;" horiz-adv-x="1178" 
d="M522 1140l82 295h256l-167 -295h-171zM825 1024h272l-560 -1536h-272l186 512l-369 1024h279l217 -675z" />
    <glyph glyph-name="thorn" unicode="&#xfe;" horiz-adv-x="1269" 
d="M123 -512v1946h256v-536q112 153 292 153q146 0 270 -72.5t196 -196.5t72 -270q0 -147 -72 -271.5t-195.5 -197t-270.5 -72.5q-180 0 -292 153v-636h-256zM667 219q117 0 199 85t82 208q0 121 -82 207t-199 86q-114 0 -190.5 -85.5t-76.5 -207.5q0 -123 76.5 -208
t190.5 -85z" />
    <glyph glyph-name="ydieresis" unicode="&#xff;" horiz-adv-x="1178" 
d="M386 1095q-57 0 -95.5 37t-38.5 94q0 55 38.5 93t95.5 38q55 0 93 -38t38 -93q0 -56 -38 -93.5t-93 -37.5zM796 1095q-57 0 -95 37t-38 94q0 55 38.5 93t94.5 38q55 0 93 -38t38 -93q0 -57 -37.5 -94t-93.5 -37zM825 1024h272l-560 -1536h-272l186 512l-369 1024h279
l217 -675z" />
    <glyph glyph-name="Amacron" unicode="&#x100;" horiz-adv-x="1498" 
d="M402 1770h693v-190h-693v190zM602 1434h294l520 -1434h-271l-91 251h-610l-91 -251h-271zM538 507h423l-212 579z" />
    <glyph glyph-name="amacron" unicode="&#x101;" horiz-adv-x="1269" 
d="M283 1361h692v-191h-692v191zM892 1024h256v-1024h-257l-11 123q-44 -70 -112.5 -110t-157.5 -40q-149 0 -276 74t-200 200.5t-73 275.5q0 144 70 266t191.5 193t265.5 71q184 0 315 -157zM603 219q116 0 192 85t76 208q0 124 -76 208.5t-192 84.5q-117 0 -198 -85
t-81 -208q0 -122 82 -207.5t197 -85.5z" />
    <glyph glyph-name="Abreve" unicode="&#x102;" horiz-adv-x="1498" 
d="M749 1524q-139 0 -239.5 100t-100.5 240h158q0 -74 54 -128t128 -54q75 0 128.5 53t53.5 129h158q0 -142 -99.5 -241t-240.5 -99zM602 1434h294l520 -1434h-271l-91 251h-610l-91 -251h-271zM538 507h423l-212 579z" />
    <glyph glyph-name="abreve" unicode="&#x103;" horiz-adv-x="1269" 
d="M629 1114q-139 0 -239.5 100t-100.5 240h158q0 -74 54 -127.5t128 -53.5q75 0 128 52.5t53 128.5h159q0 -142 -99.5 -241t-240.5 -99zM892 1024h256v-1024h-257l-11 123q-44 -70 -112.5 -110t-157.5 -40q-149 0 -276 74t-200 200.5t-73 275.5q0 144 70 266t191.5 193
t265.5 71q184 0 315 -157zM603 219q116 0 192 85t76 208q0 124 -76 208.5t-192 84.5q-117 0 -198 -85t-81 -208q0 -122 82 -207.5t197 -85.5z" />
    <glyph glyph-name="Aogonek" unicode="&#x104;" horiz-adv-x="1498" 
d="M1291 -465q-106 0 -174 74t-68 172q0 101 70 171l48 48h-22l-91 251h-610l-91 -251h-271l520 1434h294l520 -1434h-1q-15 -15 -54 -53t-52.5 -52.5t-35 -40.5t-29 -45t-7.5 -38q0 -25 18 -45t47 -20q39 0 67.5 28t28.5 69h162q0 -109 -78 -188.5t-191 -79.5zM538 507h423
l-212 579z" />
    <glyph glyph-name="aogonek" unicode="&#x105;" horiz-adv-x="1269" 
d="M1022 -465q-106 0 -174.5 74t-68.5 172q0 100 72 171l48 48h-8l-11 123q-44 -70 -112.5 -110t-157.5 -40q-149 0 -276 74t-200 200.5t-73 275.5q0 144 70 266t191.5 193t265.5 71q184 0 315 -157l-11 128h256v-1024h-1q-15 -15 -54 -53t-52.5 -52.5t-35 -40.5t-29 -45
t-7.5 -38q0 -26 17 -45.5t46 -19.5q39 0 67.5 28t28.5 69h162q0 -110 -77.5 -189t-190.5 -79zM603 219q116 0 192 85t76 208q0 124 -76 208.5t-192 84.5q-117 0 -198 -85t-81 -208q0 -122 82 -207.5t197 -85.5z" />
    <glyph glyph-name="Cacute" unicode="&#x106;" horiz-adv-x="1431" 
d="M699 1549l82 295h255l-167 -295h-170zM766 -27q-191 0 -353.5 100t-257 271t-94.5 373q0 152 56 289.5t150.5 237t225 158t273.5 58.5q170 0 317 -79t246 -216l-227 -123q-63 75 -151 118.5t-185 43.5q-186 0 -317.5 -143t-131.5 -344q0 -132 60 -244.5t163.5 -178
t225.5 -65.5q99 0 186.5 43.5t149.5 119.5l227 -124q-99 -137 -246 -216t-317 -79z" />
    <glyph glyph-name="cacute" unicode="&#x107;" horiz-adv-x="1044" 
d="M507 1140l82 295h255l-167 -295h-170zM754 311l229 -125q-72 -99 -179 -156t-231 -57q-139 0 -257 72.5t-186.5 196.5t-68.5 270q0 147 68.5 271.5t186.5 197t257 72.5q124 0 231 -57.5t179 -157.5l-229 -124q-75 83 -181 83q-107 0 -181.5 -84.5t-74.5 -200.5
q0 -115 74.5 -199t181.5 -84q104 0 181 82z" />
    <glyph glyph-name="Ccircumflex" unicode="&#x108;" horiz-adv-x="1431" 
d="M909 1841l199 -295h-171l-171 198l-169 -198h-171l196 295h287zM766 -27q-191 0 -353.5 100t-257 271t-94.5 373q0 152 56 289.5t150.5 237t225 158t273.5 58.5q170 0 317 -79t246 -216l-227 -123q-63 75 -151 118.5t-185 43.5q-186 0 -317.5 -143t-131.5 -344
q0 -132 60 -244.5t163.5 -178t225.5 -65.5q99 0 186.5 43.5t149.5 119.5l227 -124q-99 -137 -246 -216t-317 -79z" />
    <glyph glyph-name="ccircumflex" unicode="&#x109;" horiz-adv-x="1044" 
d="M717 1432l198 -295h-171l-171 197l-169 -197h-171l196 295h288zM754 311l229 -125q-72 -99 -179 -156t-231 -57q-139 0 -257 72.5t-186.5 196.5t-68.5 270q0 147 68.5 271.5t186.5 197t257 72.5q124 0 231 -57.5t179 -157.5l-229 -124q-75 83 -181 83
q-107 0 -181.5 -84.5t-74.5 -200.5q0 -115 74.5 -199t181.5 -84q104 0 181 82z" />
    <glyph glyph-name="Cdotaccent" unicode="&#x10a;" horiz-adv-x="1431" 
d="M767 1563q-56 0 -94.5 37.5t-38.5 93.5q0 55 38.5 93t94.5 38q55 0 93 -38t38 -93q0 -56 -37.5 -93.5t-93.5 -37.5zM766 -27q-191 0 -353.5 100t-257 271t-94.5 373q0 152 56 289.5t150.5 237t225 158t273.5 58.5q170 0 317 -79t246 -216l-227 -123q-63 75 -151 118.5
t-185 43.5q-186 0 -317.5 -143t-131.5 -344q0 -132 60 -244.5t163.5 -178t225.5 -65.5q99 0 186.5 43.5t149.5 119.5l227 -124q-99 -137 -246 -216t-317 -79z" />
    <glyph glyph-name="cdotaccent" unicode="&#x10b;" horiz-adv-x="1044" 
d="M574 1153q-56 0 -94.5 37.5t-38.5 93.5q0 55 38.5 93t94.5 38q55 0 93.5 -38t38.5 -93q0 -56 -38 -93.5t-94 -37.5zM754 311l229 -125q-72 -99 -179 -156t-231 -57q-139 0 -257 72.5t-186.5 196.5t-68.5 270q0 147 68.5 271.5t186.5 197t257 72.5q124 0 231 -57.5
t179 -157.5l-229 -124q-75 83 -181 83q-107 0 -181.5 -84.5t-74.5 -200.5q0 -115 74.5 -199t181.5 -84q104 0 181 82z" />
    <glyph glyph-name="Ccaron" unicode="&#x10c;" horiz-adv-x="1431" 
d="M624 1546l-199 295h171l171 -197l169 197h170l-195 -295h-287zM766 -27q-191 0 -353.5 100t-257 271t-94.5 373q0 152 56 289.5t150.5 237t225 158t273.5 58.5q170 0 317 -79t246 -216l-227 -123q-63 75 -151 118.5t-185 43.5q-186 0 -317.5 -143t-131.5 -344
q0 -132 60 -244.5t163.5 -178t225.5 -65.5q99 0 186.5 43.5t149.5 119.5l227 -124q-99 -137 -246 -216t-317 -79z" />
    <glyph glyph-name="ccaron" unicode="&#x10d;" horiz-adv-x="1044" 
d="M431 1137l-199 295h171l171 -198l169 198h170l-194 -295h-288zM754 311l229 -125q-72 -99 -179 -156t-231 -57q-139 0 -257 72.5t-186.5 196.5t-68.5 270q0 147 68.5 271.5t186.5 197t257 72.5q124 0 231 -57.5t179 -157.5l-229 -124q-75 83 -181 83q-107 0 -181.5 -84.5
t-74.5 -200.5q0 -115 74.5 -199t181.5 -84q104 0 181 82z" />
    <glyph glyph-name="Dcaron" unicode="&#x10e;" horiz-adv-x="1376" 
d="M525 1546l-198 295h171l171 -197l169 197h170l-195 -295h-288zM123 0v1434h475q145 0 278 -57t229 -153t153 -229t57 -278t-57 -278t-153 -229t-229 -153t-278 -57h-475zM379 256h219q189 0 325 135t136 326q0 190 -136 325.5t-325 135.5h-219v-922z" />
    <glyph glyph-name="dcaron" unicode="&#x10f;" horiz-adv-x="1271" 
d="M1205 1243l82 295h255l-167 -295h-170zM893 1536h256v-1536h-256v125q-111 -152 -293 -152q-146 0 -270 72.5t-196.5 196.5t-72.5 270t72.5 270t196.5 196.5t270 72.5q182 0 293 -151v636zM603 219q116 0 192 85t76 208q0 124 -76 208.5t-192 84.5q-117 0 -198 -85.5
t-81 -207.5t82 -207.5t197 -85.5z" />
    <glyph glyph-name="Dcroat" unicode="&#x110;" horiz-adv-x="1376" 
d="M123 0v660h-113v216h113v558h475q145 0 278 -57t229 -153t153 -229t57 -278t-57 -278t-153 -229t-229 -153t-278 -57h-475zM379 256h219q189 0 325 135t136 326q0 190 -136 325.5t-325 135.5h-219v-302h280v-216h-280v-404z" />
    <glyph glyph-name="dcroat" unicode="&#x111;" horiz-adv-x="1271" 
d="M615 1089v215h278v232h256v-232h117v-215h-117v-1089h-256v125q-111 -152 -293 -152q-146 0 -270 72.5t-196.5 196.5t-72.5 270t72.5 270t196.5 196.5t270 72.5q182 0 293 -151v189h-278zM603 219q116 0 192 85t76 208q0 124 -76 208.5t-192 84.5q-117 0 -198 -85.5
t-81 -207.5t82 -207.5t197 -85.5z" />
    <glyph glyph-name="Emacron" unicode="&#x112;" horiz-adv-x="1125" 
d="M217 1770h692v-190h-692v190zM123 0v1434h900v-256h-644v-282h510v-256h-510v-384h644v-256h-900z" />
    <glyph glyph-name="emacron" unicode="&#x113;" horiz-adv-x="1145" 
d="M227 1361h693v-191h-693v191zM573 -27q-139 0 -257 72.5t-186.5 196.5t-68.5 271t68.5 271t186.5 196.5t257 72.5q117 0 219.5 -52t170.5 -138t100 -201.5t14 -236.5h-740q21 -87 83 -141t153 -55q61 -1 114 29.5t89 84.5l261 -60q-64 -139 -188.5 -224.5t-275.5 -85.5z
M328 616h492q-20 91 -89 152t-158 61t-156.5 -60t-88.5 -153z" />
    <glyph glyph-name="Edotaccent" unicode="&#x116;" horiz-adv-x="1125" 
d="M564 1563q-57 0 -95 37.5t-38 93.5t38 93.5t95 37.5q55 0 93 -38t38 -93q0 -56 -37.5 -93.5t-93.5 -37.5zM123 0v1434h900v-256h-644v-282h510v-256h-510v-384h644v-256h-900z" />
    <glyph glyph-name="edotaccent" unicode="&#x117;" horiz-adv-x="1145" 
d="M574 1153q-57 0 -95 37.5t-38 93.5t38 93.5t95 37.5q55 0 93.5 -38t38.5 -93q0 -56 -38 -93.5t-94 -37.5zM573 -27q-139 0 -257 72.5t-186.5 196.5t-68.5 271t68.5 271t186.5 196.5t257 72.5q117 0 219.5 -52t170.5 -138t100 -201.5t14 -236.5h-740q21 -87 83 -141
t153 -55q61 -1 114 29.5t89 84.5l261 -60q-64 -139 -188.5 -224.5t-275.5 -85.5zM328 616h492q-20 91 -89 152t-158 61t-156.5 -60t-88.5 -153z" />
    <glyph glyph-name="Eogonek" unicode="&#x118;" horiz-adv-x="1125" 
d="M123 0v1434h900v-256h-644v-282h510v-256h-510v-384h644v-256h-111q-15 -15 -54 -53t-52.5 -52.5t-35 -40.5t-29 -45t-7.5 -38q0 -25 18 -45t46 -20q40 0 68.5 28t28.5 69h162q0 -109 -78.5 -188.5t-191.5 -79.5q-106 0 -174 74t-68 172q0 100 71 171l49 48h-542z" />
    <glyph glyph-name="eogonek" unicode="&#x119;" horiz-adv-x="1145" 
d="M607 -465q-106 0 -174 74t-68 172q0 100 71 171l33 33q-176 39 -292 187t-116 341q0 147 68.5 271t186.5 196.5t257 72.5q117 0 219.5 -52t170.5 -138t100 -201.5t14 -236.5h-740q21 -87 83 -141t153 -55q61 -1 114 29.5t89 84.5l261 -60q-45 -100 -125 -174.5
t-181 -108.5q-16 -16 -54 -53t-52 -52t-35 -40.5t-28.5 -45t-7.5 -38.5q0 -25 17.5 -45t45.5 -20q39 0 68.5 28t29.5 69h162q0 -109 -78.5 -188.5t-191.5 -79.5zM328 616h492q-20 91 -89 152t-158 61t-156.5 -60t-88.5 -153z" />
    <glyph glyph-name="Ecaron" unicode="&#x11a;" horiz-adv-x="1125" 
d="M421 1546l-199 295h171l171 -197l169 197h170l-194 -295h-288zM123 0v1434h900v-256h-644v-282h510v-256h-510v-384h644v-256h-900z" />
    <glyph glyph-name="ecaron" unicode="&#x11b;" horiz-adv-x="1145" 
d="M431 1137l-199 295h170l172 -198l169 198h170l-194 -295h-288zM573 -27q-139 0 -257 72.5t-186.5 196.5t-68.5 271t68.5 271t186.5 196.5t257 72.5q117 0 219.5 -52t170.5 -138t100 -201.5t14 -236.5h-740q21 -87 83 -141t153 -55q61 -1 114 29.5t89 84.5l261 -60
q-64 -139 -188.5 -224.5t-275.5 -85.5zM328 616h492q-20 91 -89 152t-158 61t-156.5 -60t-88.5 -153z" />
    <glyph glyph-name="Gcircumflex" unicode="&#x11c;" horiz-adv-x="1532" 
d="M910 1841l199 -295h-170l-172 198l-169 -198h-170l195 295h287zM766 -27q-147 0 -278 59.5t-224.5 160t-148 238t-54.5 288.5q0 158 59 297t157 235t227 151.5t267 55.5q159 0 303.5 -74t254.5 -221l-227 -122q-68 81 -155 122t-179 41q-88 0 -170.5 -37t-144.5 -101
t-99 -156t-37 -196q0 -99 36 -189t96.5 -154.5t144.5 -103t176 -38.5q126 0 234.5 75.5t164.5 208.5h-254v223h555q4 -154 -50 -295t-148.5 -243.5t-227 -163.5t-278.5 -61z" />
    <glyph glyph-name="gcircumflex" unicode="&#x11d;" horiz-adv-x="1258" 
d="M773 1432l198 -295h-170l-171 197l-169 -197h-171l195 295h288zM881 1024h255v-1042q0 -108 -46 -201.5t-123 -157t-179 -99.5t-213 -36q-161 0 -299.5 94.5t-199.5 242.5l233 106q31 -83 105.5 -134.5t160.5 -51.5q124 0 215 65t91 172v139q-109 -148 -287 -148
q-144 0 -267 72.5t-194.5 196.5t-71.5 270t71.5 270t194.5 196.5t267 72.5q178 0 287 -148v121zM598 219q114 0 189.5 85.5t75.5 207.5q0 123 -75.5 208t-189.5 85t-194 -85.5t-80 -207.5t80.5 -207.5t193.5 -85.5z" />
    <glyph glyph-name="Gbreve" unicode="&#x11e;" horiz-adv-x="1532" 
d="M767 1524q-139 0 -239.5 100t-100.5 240h159q0 -74 53.5 -128t127.5 -54q75 0 128.5 53t53.5 129h158q0 -142 -99.5 -241t-240.5 -99zM766 -27q-147 0 -278 59.5t-224.5 160t-148 238t-54.5 288.5q0 158 59 297t157 235t227 151.5t267 55.5q159 0 303.5 -74t254.5 -221
l-227 -122q-68 81 -155 122t-179 41q-88 0 -170.5 -37t-144.5 -101t-99 -156t-37 -196q0 -99 36 -189t96.5 -154.5t144.5 -103t176 -38.5q126 0 234.5 75.5t164.5 208.5h-254v223h555q4 -154 -50 -295t-148.5 -243.5t-227 -163.5t-278.5 -61z" />
    <glyph glyph-name="gbreve" unicode="&#x11f;" horiz-adv-x="1258" 
d="M630 1114q-140 0 -240 100t-100 240h159q0 -74 53.5 -127.5t127.5 -53.5q75 0 128 53t53 128h159q0 -142 -100 -241t-240 -99zM881 1024h255v-1042q0 -108 -46 -201.5t-123 -157t-179 -99.5t-213 -36q-161 0 -299.5 94.5t-199.5 242.5l233 106q31 -83 105.5 -134.5
t160.5 -51.5q124 0 215 65t91 172v139q-109 -148 -287 -148q-144 0 -267 72.5t-194.5 196.5t-71.5 270t71.5 270t194.5 196.5t267 72.5q178 0 287 -148v121zM598 219q114 0 189.5 85.5t75.5 207.5q0 123 -75.5 208t-189.5 85t-194 -85.5t-80 -207.5t80.5 -207.5t193.5 -85.5
z" />
    <glyph glyph-name="Gdotaccent" unicode="&#x120;" horiz-adv-x="1532" 
d="M768 1563q-56 0 -94.5 37.5t-38.5 93.5q0 55 38.5 93t94.5 38q55 0 93 -38t38 -93q0 -56 -37.5 -93.5t-93.5 -37.5zM766 -27q-147 0 -278 59.5t-224.5 160t-148 238t-54.5 288.5q0 158 59 297t157 235t227 151.5t267 55.5q159 0 303.5 -74t254.5 -221l-227 -122
q-68 81 -155 122t-179 41q-88 0 -170.5 -37t-144.5 -101t-99 -156t-37 -196q0 -99 36 -189t96.5 -154.5t144.5 -103t176 -38.5q126 0 234.5 75.5t164.5 208.5h-254v223h555q4 -154 -50 -295t-148.5 -243.5t-227 -163.5t-278.5 -61z" />
    <glyph glyph-name="gdotaccent" unicode="&#x121;" horiz-adv-x="1258" 
d="M630 1153q-56 0 -94 37.5t-38 93.5t38 93.5t94 37.5t93.5 -37.5t37.5 -93.5t-37.5 -93.5t-93.5 -37.5zM881 1024h255v-1042q0 -108 -46 -201.5t-123 -157t-179 -99.5t-213 -36q-161 0 -299.5 94.5t-199.5 242.5l233 106q31 -83 105.5 -134.5t160.5 -51.5q124 0 215 65
t91 172v139q-109 -148 -287 -148q-144 0 -267 72.5t-194.5 196.5t-71.5 270t71.5 270t194.5 196.5t267 72.5q178 0 287 -148v121zM598 219q114 0 189.5 85.5t75.5 207.5q0 123 -75.5 208t-189.5 85t-194 -85.5t-80 -207.5t80.5 -207.5t193.5 -85.5z" />
    <glyph glyph-name="uni0122" unicode="&#x122;" horiz-adv-x="1532" 
d="M766 -27q-147 0 -278 59.5t-224.5 160t-148 238t-54.5 288.5q0 158 59 297t157 235t227 151.5t267 55.5q159 0 303.5 -74t254.5 -221l-227 -122q-68 81 -155 122t-179 41q-88 0 -170.5 -37t-144.5 -101t-99 -156t-37 -196q0 -99 36 -189t96.5 -154.5t144.5 -103
t176 -38.5q126 0 234.5 75.5t164.5 208.5h-254v223h555q4 -154 -50 -295t-148.5 -243.5t-227 -163.5t-278.5 -61zM575 -452l64 347h255l-149 -347h-170z" />
    <glyph glyph-name="uni0123" unicode="&#x123;" horiz-adv-x="1258" 
d="M562 1140l82 295h256l-167 -295h-171zM881 1024h255v-1042q0 -108 -46 -201.5t-123 -157t-179 -99.5t-213 -36q-161 0 -299.5 94.5t-199.5 242.5l233 106q31 -83 105.5 -134.5t160.5 -51.5q124 0 215 65t91 172v139q-109 -148 -287 -148q-144 0 -267 72.5t-194.5 196.5
t-71.5 270t71.5 270t194.5 196.5t267 72.5q178 0 287 -148v121zM598 219q114 0 189.5 85.5t75.5 207.5q0 123 -75.5 208t-189.5 85t-194 -85.5t-80 -207.5t80.5 -207.5t193.5 -85.5z" />
    <glyph glyph-name="Hcircumflex" unicode="&#x124;" horiz-adv-x="1341" 
d="M814 1841l199 -295h-170l-172 198l-169 -198h-170l194 295h288zM964 1434h255v-1434h-255v640h-585v-640h-256v1434h256v-538h585v538z" />
    <glyph glyph-name="hcircumflex" unicode="&#x125;" horiz-adv-x="1144" 
d="M769 1867l199 -295h-171l-171 197l-169 -197h-170l194 295h288zM1063 648v-648h-256v580q0 89 -62.5 151.5t-151.5 62.5t-151.5 -62.5t-62.5 -151.5v-580h-255l-1 1536h256v-600q115 117 278 117q168 0 287 -119t119 -286z" />
    <glyph glyph-name="Hbar" unicode="&#x126;" horiz-adv-x="1341" 
d="M19 1089v215h104v130h256v-130h585v130h255v-130h101v-215h-101v-1089h-255v640h-585v-640h-256v1089h-104zM379 896h585v193h-585v-193z" />
    <glyph glyph-name="hbar" unicode="&#x127;" horiz-adv-x="1144" 
d="M6 1089v215h117v232h256v-232h276v-215h-276v-153q115 117 278 117q168 0 287 -119t119 -286v-648h-256v580q0 89 -62.5 151.5t-151.5 62.5t-151.5 -62.5t-62.5 -151.5v-580h-255l-1 1089h-117z" />
    <glyph glyph-name="Itilde" unicode="&#x128;" horiz-adv-x="563" 
d="M441 1540q-43 0 -121.5 44.5t-139.5 79.5t-75 20q-24 -29 -8 -89l-147 -41q-42 122 7.5 207.5t164.5 85.5q43 0 115 -36.5t132.5 -72.5t76.5 -36q50 0 18 87l151 49q41 -126 -11.5 -212t-162.5 -86zM154 0v1434h256v-1434h-256z" />
    <glyph glyph-name="itilde" unicode="&#x129;" horiz-adv-x="501" 
d="M374 1109q-33 0 -94 36t-108.5 64t-58.5 16q-19 -22 -7 -72l-115 -33q-32 98 6.5 167t127.5 69q34 0 90 -29.5t103.5 -59t59.5 -29.5q37 0 14 71l118 39q32 -101 -8.5 -170t-127.5 -69zM123 1024h256v-1024h-256v1024z" />
    <glyph glyph-name="Imacron" unicode="&#x12a;" horiz-adv-x="563" 
d="M-65 1770h693v-190h-693v190zM154 0v1434h256v-1434h-256z" />
    <glyph glyph-name="imacron" unicode="&#x12b;" horiz-adv-x="501" 
d="M-1 1361h502v-191h-502v191zM123 1024h256v-1024h-256v1024z" />
    <glyph glyph-name="Iogonek" unicode="&#x12e;" horiz-adv-x="563" 
d="M154 0v1434h256v-1434h-1q-17 -17 -55 -53.5t-52 -52t-35.5 -40.5t-29 -44.5t-7.5 -38.5q0 -25 18 -45t46 -20q40 0 68.5 28t28.5 69h162q0 -109 -78 -188.5t-191 -79.5q-106 0 -174.5 74t-68.5 172q0 99 72 171l48 48h-7z" />
    <glyph glyph-name="iogonek" unicode="&#x12f;" horiz-adv-x="501" 
d="M252 1153q-57 0 -95 37.5t-38 93.5t38 93.5t95 37.5q55 0 93 -38t38 -93q0 -56 -37.5 -93.5t-93.5 -37.5zM253 -465q-106 0 -174.5 74t-68.5 172q0 99 72 171l48 48h-7v1024h256v-1024h-1q-15 -15 -54 -53t-52.5 -52.5t-35 -40.5t-29 -45t-7.5 -38q0 -25 17.5 -45
t45.5 -20q40 0 68.5 28t28.5 69h162q0 -109 -78 -188.5t-191 -79.5z" />
    <glyph glyph-name="Idotaccent" unicode="&#x130;" horiz-adv-x="563" 
d="M283 1563q-57 0 -95 37.5t-38 93.5t38 93.5t95 37.5q55 0 93 -38t38 -93q0 -56 -37.5 -93.5t-93.5 -37.5zM154 0v1434h256v-1434h-256z" />
    <glyph glyph-name="dotlessi" unicode="&#x131;" horiz-adv-x="501" 
d="M123 1024h256v-1024h-256v1024z" />
    <glyph glyph-name="IJ" unicode="&#x132;" horiz-adv-x="1476" 
d="M154 0v1434h256v-1434h-256zM896 -27q-168 0 -292 107l163 196q56 -47 129 -47q84 0 143.5 61t59.5 145v999h255v-999q0 -124 -61 -230.5t-167 -169t-230 -62.5z" />
    <glyph glyph-name="ij" unicode="&#x133;" horiz-adv-x="1001" 
d="M252 1153q-57 0 -95 37.5t-38 93.5t38 93.5t95 37.5q55 0 93 -38t38 -93q0 -56 -37.5 -93.5t-93.5 -37.5zM752 1153q-56 0 -94 37.5t-38 93.5t38 93.5t94 37.5t93.5 -37.5t37.5 -93.5t-37.5 -93.5t-93.5 -37.5zM123 1024h256v-1024h-256v1024zM419 -512v256
q86 0 145.5 58.5t59.5 143.5v1078h255v-1078q0 -190 -134 -324t-326 -134z" />
    <glyph glyph-name="Jcircumflex" unicode="&#x134;" horiz-adv-x="914" 
d="M807 1841l199 -295h-171l-171 198l-169 -198h-170l194 295h288zM334 -27q-168 0 -293 107l164 196q55 -47 129 -47q83 0 142.5 61t59.5 145v999h256v-999q0 -124 -61.5 -230.5t-167 -169t-229.5 -62.5z" />
    <glyph glyph-name="jcircumflex" unicode="&#x135;" horiz-adv-x="501" 
d="M394 1432l199 -295h-171l-171 197l-169 -197h-170l194 295h288zM-82 -512v256q86 0 145.5 58.5t59.5 143.5v1078h256v-1078q0 -190 -134 -324t-327 -134z" />
    <glyph glyph-name="uni0136" unicode="&#x136;" horiz-adv-x="1206" 
d="M1178 0h-334l-400 558l-65 -80v-478h-256v1434h256v-558l467 558h334l-568 -676zM412 -452l63 347h256l-148 -347h-171z" />
    <glyph glyph-name="uni0137" unicode="&#x137;" horiz-adv-x="1100" 
d="M1043 0h-293l-231 397l-140 -167v-230h-256v1536h256v-908l332 396h333l-350 -419zM356 -452l64 347h255l-149 -347h-170z" />
    <glyph glyph-name="Lacute" unicode="&#x139;" horiz-adv-x="1074" 
d="M184 1549l82 295h255l-167 -295h-170zM123 0v1434h256v-1178h593v-256h-849z" />
    <glyph glyph-name="lacute" unicode="&#x13a;" horiz-adv-x="522" 
d="M195 1652l81 295h255l-166 -295h-170zM133 0v1536h256v-1536h-256z" />
    <glyph glyph-name="uni013B" unicode="&#x13b;" horiz-adv-x="1074" 
d="M123 0v1434h256v-1178h593v-256h-849zM356 -452l64 347h255l-149 -347h-170z" />
    <glyph glyph-name="uni013C" unicode="&#x13c;" horiz-adv-x="522" 
d="M133 0v1536h256v-1536h-256zM70 -452l63 347h256l-149 -347h-170z" />
    <glyph glyph-name="Lcaron" unicode="&#x13d;" horiz-adv-x="1074" 
d="M598 1243l82 295h255l-167 -295h-170zM123 0v1434h256v-1178h593v-256h-849z" />
    <glyph glyph-name="lcaron" unicode="&#x13e;" horiz-adv-x="522" 
d="M443 1243l82 295h255l-167 -295h-170zM133 0v1536h256v-1536h-256z" />
    <glyph glyph-name="Lslash" unicode="&#x141;" horiz-adv-x="1223" 
d="M528 1434v-470l314 180l128 -220l-442 -256v-412h593v-256h-849v520l-103 -59l-128 221l231 134v618h256z" />
    <glyph glyph-name="lslash" unicode="&#x142;" horiz-adv-x="768" 
d="M512 1536v-477l109 63l127 -222l-236 -136v-764h-256v616l-108 -62l-128 222l236 136v624h256z" />
    <glyph glyph-name="Nacute" unicode="&#x143;" horiz-adv-x="1375" 
d="M621 1549l81 295h256l-166 -295h-171zM123 0v1434h276l597 -972v972h256v-1434h-276l-597 972v-972h-256z" />
    <glyph glyph-name="nacute" unicode="&#x144;" horiz-adv-x="1144" 
d="M543 1140l82 295h255l-167 -295h-170zM1063 648v-648h-256v580q0 89 -62.5 151.5t-151.5 62.5t-151.5 -62.5t-62.5 -151.5v-580h-255l-1 1024h256v-88q115 117 278 117q168 0 287 -119t119 -286z" />
    <glyph glyph-name="uni0145" unicode="&#x145;" horiz-adv-x="1375" 
d="M123 0v1434h276l597 -972v972h256v-1434h-276l-597 972v-972h-256zM497 -452l63 347h255l-148 -347h-170z" />
    <glyph glyph-name="uni0146" unicode="&#x146;" horiz-adv-x="1144" 
d="M1063 648v-648h-256v580q0 89 -62.5 151.5t-151.5 62.5t-151.5 -62.5t-62.5 -151.5v-580h-255l-1 1024h256v-88q115 117 278 117q168 0 287 -119t119 -286zM401 -452l64 347h256l-149 -347h-171z" />
    <glyph glyph-name="Ncaron" unicode="&#x147;" horiz-adv-x="1375" 
d="M546 1546l-199 295h170l172 -197l168 197h171l-194 -295h-288zM123 0v1434h276l597 -972v972h256v-1434h-276l-597 972v-972h-256z" />
    <glyph glyph-name="ncaron" unicode="&#x148;" horiz-adv-x="1144" 
d="M467 1137l-199 295h171l171 -198l169 198h170l-194 -295h-288zM1063 648v-648h-256v580q0 89 -62.5 151.5t-151.5 62.5t-151.5 -62.5t-62.5 -151.5v-580h-255l-1 1024h256v-88q115 117 278 117q168 0 287 -119t119 -286z" />
    <glyph glyph-name="Eng" unicode="&#x14a;" horiz-adv-x="1375" 
d="M123 0v1434h276l597 -972v972h256v-1434v-58q0 -204 -144.5 -348.5t-350.5 -144.5v276q92 0 156 63t64 154v58h-1l-597 972v-972h-256z" />
    <glyph glyph-name="eng" unicode="&#x14b;" horiz-adv-x="1144" 
d="M602 -256q86 0 145.5 58.5t59.5 143.5v634q0 89 -62.5 151.5t-151.5 62.5t-151.5 -62.5t-62.5 -151.5v-580h-255l-1 1024h256v-88q115 117 278 117q168 0 287 -119t119 -286v-702q0 -190 -134 -324t-327 -134v256z" />
    <glyph glyph-name="Omacron" unicode="&#x14c;" horiz-adv-x="1536" 
d="M422 1770h692v-190h-692v190zM768 -27q-143 0 -274 59t-226 158.5t-151 237.5t-56 289q0 202 95 373t258 270.5t354 99.5t354 -99.5t258 -270.5t95 -373q0 -151 -56 -289t-151 -237.5t-226 -158.5t-274 -59zM768 229q122 0 226 66t164.5 178.5t60.5 243.5t-60.5 243.5
t-164.5 178t-226 65.5q-186 0 -318.5 -143t-132.5 -344q0 -132 60.5 -244.5t164.5 -178t226 -65.5z" />
    <glyph glyph-name="omacron" unicode="&#x14d;" horiz-adv-x="1146" 
d="M227 1361h693v-191h-693v191zM573 -27q-139 0 -257 72.5t-186.5 196.5t-68.5 270q0 147 68.5 271.5t186.5 197t257 72.5t257 -72.5t186.5 -197t68.5 -271.5q0 -146 -68.5 -270t-186.5 -196.5t-257 -72.5zM573 229q108 0 182 83.5t74 199.5q0 118 -75.5 201.5t-180.5 83.5
q-107 0 -181.5 -84.5t-74.5 -200.5q0 -119 75.5 -201t180.5 -82z" />
    <glyph glyph-name="Ohungarumlaut" unicode="&#x150;" horiz-adv-x="1536" 
d="M885 1548l82 295h256l-168 -295h-170zM539 1548l82 295h255l-167 -295h-170zM768 -27q-143 0 -274 59t-226 158.5t-151 237.5t-56 289q0 202 95 373t258 270.5t354 99.5t354 -99.5t258 -270.5t95 -373q0 -151 -56 -289t-151 -237.5t-226 -158.5t-274 -59zM768 229
q122 0 226 66t164.5 178.5t60.5 243.5t-60.5 243.5t-164.5 178t-226 65.5q-186 0 -318.5 -143t-132.5 -344q0 -132 60.5 -244.5t164.5 -178t226 -65.5z" />
    <glyph glyph-name="ohungarumlaut" unicode="&#x151;" horiz-adv-x="1146" 
d="M690 1139l82 295h256l-168 -295h-170zM344 1139l82 295h255l-167 -295h-170zM573 -27q-139 0 -257 72.5t-186.5 196.5t-68.5 270q0 147 68.5 271.5t186.5 197t257 72.5t257 -72.5t186.5 -197t68.5 -271.5q0 -146 -68.5 -270t-186.5 -196.5t-257 -72.5zM573 229
q108 0 182 83.5t74 199.5q0 118 -75.5 201.5t-180.5 83.5q-107 0 -181.5 -84.5t-74.5 -200.5q0 -119 75.5 -201t180.5 -82z" />
    <glyph glyph-name="OE" unicode="&#x152;" horiz-adv-x="2149" 
d="M768 -27q-143 0 -274 59t-226 158.5t-151 237.5t-56 289q0 202 95 373t258 270.5t354 99.5q131 0 249 -52t206 -145v171h824v-256h-569v-333h471v-256h-471v-333h569v-256h-824v171q-88 -93 -206 -145.5t-249 -52.5zM768 229q122 0 226 66t164.5 178.5t60.5 243.5
t-60.5 243.5t-164.5 178t-226 65.5q-186 0 -318.5 -143t-132.5 -344q0 -132 60.5 -244.5t164.5 -178t226 -65.5z" />
    <glyph glyph-name="oe" unicode="&#x153;" horiz-adv-x="1912" 
d="M573 -27q-139 0 -257 72.5t-186.5 196.5t-68.5 270q0 147 68.5 271.5t186.5 197t257 72.5q115 0 216 -53t168 -144q67 91 168 144t216 53q156 0 281 -87t185.5 -232t37.5 -308h-740q21 -87 83 -141.5t153 -55.5q62 0 115 30.5t88 84.5l260 -61q-63 -139 -187.5 -224.5
t-275.5 -85.5q-115 0 -216 53t-168 143q-68 -91 -168.5 -143.5t-215.5 -52.5zM1096 617h490q-19 91 -87.5 151.5t-157.5 60.5t-157 -60t-88 -152zM573 229q108 0 182 83.5t74 199.5q0 118 -75.5 201.5t-180.5 83.5q-107 0 -181.5 -84.5t-74.5 -200.5q0 -119 75.5 -201
t180.5 -82z" />
    <glyph glyph-name="Racute" unicode="&#x154;" horiz-adv-x="1248" 
d="M441 1549l82 295h256l-167 -295h-171zM123 0v1434h553q174 0 295 -126.5t121 -306.5q0 -143 -75.5 -253t-200.5 -156l343 -592h-295l-329 569h-156v-569h-256zM379 825h268q78 0 134 56.5t56 137.5t-56 137.5t-134 56.5h-268v-388z" />
    <glyph glyph-name="racute" unicode="&#x155;" horiz-adv-x="791" 
d="M387 1140l82 295h255l-167 -295h-170zM124 0l-1 1024h256v-88q115 117 278 117q53 0 114 -17l-101 -258q-38 16 -77 16q-89 0 -151.5 -62.5t-62.5 -151.5v-580h-255z" />
    <glyph glyph-name="uni0156" unicode="&#x156;" horiz-adv-x="1248" 
d="M123 0v1434h553q174 0 295 -126.5t121 -306.5q0 -143 -75.5 -253t-200.5 -156l343 -592h-295l-329 569h-156v-569h-256zM379 825h268q78 0 134 56.5t56 137.5t-56 137.5t-134 56.5h-268v-388zM429 -452l64 347h256l-149 -347h-171z" />
    <glyph glyph-name="uni0157" unicode="&#x157;" horiz-adv-x="791" 
d="M124 0l-1 1024h256v-88q115 117 278 117q53 0 114 -17l-101 -258q-38 16 -77 16q-89 0 -151.5 -62.5t-62.5 -151.5v-580h-255zM60 -452l64 347h255l-149 -347h-170z" />
    <glyph glyph-name="Rcaron" unicode="&#x158;" horiz-adv-x="1248" 
d="M367 1546l-199 295h171l171 -197l169 197h170l-195 -295h-287zM123 0v1434h553q174 0 295 -126.5t121 -306.5q0 -143 -75.5 -253t-200.5 -156l343 -592h-295l-329 569h-156v-569h-256zM379 825h268q78 0 134 56.5t56 137.5t-56 137.5t-134 56.5h-268v-388z" />
    <glyph glyph-name="rcaron" unicode="&#x159;" horiz-adv-x="791" 
d="M311 1137l-198 295h171l171 -198l169 198h170l-195 -295h-288zM124 0l-1 1024h256v-88q115 117 278 117q53 0 114 -17l-101 -258q-38 16 -77 16q-89 0 -151.5 -62.5t-62.5 -151.5v-580h-255z" />
    <glyph glyph-name="Sacute" unicode="&#x15a;" horiz-adv-x="1148" 
d="M485 1549l82 295h255l-167 -295h-170zM604 -27q-148 0 -306.5 84.5t-236.5 201.5l211 144q40 -58 140 -115.5t191 -57.5q89 0 159.5 49.5t70.5 127.5q0 77 -69 135.5t-175 78.5q-223 40 -348 157t-125 275q0 169 129 281.5t307 112.5q147 0 268.5 -76.5t174.5 -191.5
l-232 -110q-27 58 -87.5 89.5t-124.5 31.5q-69 0 -124.5 -39t-55.5 -98q0 -58 52 -104t122 -62q123 -30 216.5 -69t169.5 -95.5t116 -135.5t40 -178q0 -125 -66.5 -225.5t-177 -155.5t-239.5 -55z" />
    <glyph glyph-name="sacute" unicode="&#x15b;" horiz-adv-x="889" 
d="M378 1140l82 295h256l-167 -295h-171zM425 -18q-125 9 -227.5 66.5t-146.5 152.5l216 93q22 -36 73 -66t113 -30t105.5 25t43.5 74q0 33 -27.5 55.5t-50.5 29.5t-74 18l-12 3q-76 15 -140 42t-115.5 66t-81 95t-29.5 123q0 147 112.5 238.5t269.5 91.5q122 0 224 -51
t161 -142l-202 -120q-23 36 -67.5 63.5t-94.5 31.5q-72 4 -118 -22.5t-46 -83.5q0 -27 20 -46t42 -26.5t64 -17.5t59 -16q73 -24 131 -52t108.5 -67.5t77.5 -93t25 -116.5q0 -96 -59 -173t-154 -115t-200 -30z" />
    <glyph glyph-name="Scircumflex" unicode="&#x15c;" horiz-adv-x="1148" 
d="M695 1841l199 -295h-171l-171 198l-169 -198h-170l195 295h287zM604 -27q-148 0 -306.5 84.5t-236.5 201.5l211 144q40 -58 140 -115.5t191 -57.5q89 0 159.5 49.5t70.5 127.5q0 77 -69 135.5t-175 78.5q-223 40 -348 157t-125 275q0 169 129 281.5t307 112.5
q147 0 268.5 -76.5t174.5 -191.5l-232 -110q-27 58 -87.5 89.5t-124.5 31.5q-69 0 -124.5 -39t-55.5 -98q0 -58 52 -104t122 -62q123 -30 216.5 -69t169.5 -95.5t116 -135.5t40 -178q0 -125 -66.5 -225.5t-177 -155.5t-239.5 -55z" />
    <glyph glyph-name="scircumflex" unicode="&#x15d;" horiz-adv-x="889" 
d="M589 1432l198 -295h-171l-171 197l-169 -197h-171l196 295h288zM425 -18q-125 9 -227.5 66.5t-146.5 152.5l216 93q22 -36 73 -66t113 -30t105.5 25t43.5 74q0 33 -27.5 55.5t-50.5 29.5t-74 18l-12 3q-76 15 -140 42t-115.5 66t-81 95t-29.5 123q0 147 112.5 238.5
t269.5 91.5q122 0 224 -51t161 -142l-202 -120q-23 36 -67.5 63.5t-94.5 31.5q-72 4 -118 -22.5t-46 -83.5q0 -27 20 -46t42 -26.5t64 -17.5t59 -16q73 -24 131 -52t108.5 -67.5t77.5 -93t25 -116.5q0 -96 -59 -173t-154 -115t-200 -30z" />
    <glyph glyph-name="Scedilla" unicode="&#x15e;" horiz-adv-x="1148" 
d="M706 -385q-73 -20 -139.5 18t-86.5 111l129 35q5 -20 23.5 -30t38.5 -5t30 23t5 38q-5 19 -22 28.5t-39 7.5l-133 -5l78 137q-146 4 -299 88t-230 198l211 144q40 -58 140 -115.5t191 -57.5q89 0 159.5 49.5t70.5 127.5q0 77 -69 135.5t-175 78.5q-223 40 -348 157
t-125 275q0 169 129 281.5t307 112.5q147 0 268.5 -76.5t174.5 -191.5l-232 -110q-27 58 -87.5 89.5t-124.5 31.5q-69 0 -124.5 -39t-55.5 -98q0 -58 52 -104t122 -62q123 -30 216.5 -69t169.5 -95.5t116 -135.5t40 -178q0 -149 -92.5 -260t-237.5 -154l-23 -38
q80 -33 102 -118q20 -73 -18 -138.5t-112 -85.5z" />
    <glyph glyph-name="scedilla" unicode="&#x15f;" horiz-adv-x="889" 
d="M513 -385q-73 -20 -139 18t-86 111l130 35q5 -20 22.5 -30t37.5 -5t30 23t5 38q-10 40 -60 36l-134 -5l83 148q-118 12 -213.5 69t-137.5 148l216 93q22 -36 73 -66t113 -30t105.5 25t43.5 74q0 33 -27.5 55.5t-50.5 29.5t-74 18l-12 3q-76 15 -140 42t-115.5 66t-81 95
t-29.5 123q0 147 112.5 238.5t269.5 91.5q122 0 224 -51t161 -142l-202 -120q-23 36 -67.5 63.5t-94.5 31.5q-72 4 -118 -22.5t-46 -83.5q0 -27 20 -46t42 -26.5t64 -17.5t59 -16q73 -24 131 -52t108.5 -67.5t77.5 -93t25 -116.5q0 -113 -77.5 -196t-197.5 -112l-20 -35
q78 -33 100 -118q20 -73 -18 -138.5t-112 -85.5z" />
    <glyph glyph-name="Scaron" unicode="&#x160;" horiz-adv-x="1148" 
d="M410 1546l-198 295h170l171 -197l169 197h170l-195 -295h-287zM604 -27q-148 0 -306.5 84.5t-236.5 201.5l211 144q40 -58 140 -115.5t191 -57.5q89 0 159.5 49.5t70.5 127.5q0 77 -69 135.5t-175 78.5q-223 40 -348 157t-125 275q0 169 129 281.5t307 112.5
q147 0 268.5 -76.5t174.5 -191.5l-232 -110q-27 58 -87.5 89.5t-124.5 31.5q-69 0 -124.5 -39t-55.5 -98q0 -58 52 -104t122 -62q123 -30 216.5 -69t169.5 -95.5t116 -135.5t40 -178q0 -125 -66.5 -225.5t-177 -155.5t-239.5 -55z" />
    <glyph glyph-name="scaron" unicode="&#x161;" horiz-adv-x="889" 
d="M303 1137l-199 295h170l172 -198l168 198h171l-194 -295h-288zM425 -18q-125 9 -227.5 66.5t-146.5 152.5l216 93q22 -36 73 -66t113 -30t105.5 25t43.5 74q0 33 -27.5 55.5t-50.5 29.5t-74 18l-12 3q-76 15 -140 42t-115.5 66t-81 95t-29.5 123q0 147 112.5 238.5
t269.5 91.5q122 0 224 -51t161 -142l-202 -120q-23 36 -67.5 63.5t-94.5 31.5q-72 4 -118 -22.5t-46 -83.5q0 -27 20 -46t42 -26.5t64 -17.5t59 -16q73 -24 131 -52t108.5 -67.5t77.5 -93t25 -116.5q0 -96 -59 -173t-154 -115t-200 -30z" />
    <glyph glyph-name="uni0162" unicode="&#x162;" horiz-adv-x="1290" 
d="M653 -385q-73 -20 -139 18t-86 111l130 35q5 -20 22.5 -30t37.5 -5t30 23t5 38q-10 40 -60 36l-133 -5l93 164h-36v1178h-435v256h1126v-256h-436v-1178h-64l-25 -43q78 -33 100 -118q20 -73 -18 -138.5t-112 -85.5z" />
    <glyph glyph-name="uni0163" unicode="&#x163;" horiz-adv-x="734" 
d="M357 -385q-73 -20 -139 18t-86 111l130 35q4 -19 22.5 -29.5t38.5 -5.5t30 22.5t5 38.5q-10 40 -61 36l-133 -5l93 164h-36v768h-149v256h149v322h256v-322h197v-256h-197v-768h-65l-25 -43q78 -33 100 -118q20 -73 -18 -138.5t-112 -85.5z" />
    <glyph glyph-name="Tcaron" unicode="&#x164;" horiz-adv-x="1290" 
d="M503 1546l-199 295h170l172 -197l169 197h170l-194 -295h-288zM1208 1434v-256h-436v-1178h-255v1178h-435v256h1126z" />
    <glyph glyph-name="tcaron" unicode="&#x165;" horiz-adv-x="734" 
d="M545 1243l82 295h255l-167 -295h-170zM674 768h-197v-768h-256v768h-149v256h149v322h256v-322h197v-256z" />
    <glyph glyph-name="Utilde" unicode="&#x168;" horiz-adv-x="1394" 
d="M857 1540q-35 0 -91.5 27.5t-103.5 58.5t-88.5 50.5t-52.5 7.5q-24 -29 -8 -89l-148 -41q-41 122 8.5 207.5t164.5 85.5q43 0 114.5 -36.5t132.5 -72.5t76 -36q49 0 19 87l151 49q41 -126 -11.5 -212t-162.5 -86zM698 -27q-126 0 -234.5 49t-182.5 133.5t-116 199
t-42 243.5v836h256v-836q0 -158 86 -263.5t233 -105.5q99 0 172.5 50.5t109.5 133t36 185.5v836h256v-836q0 -173 -71 -315t-203 -226t-300 -84z" />
    <glyph glyph-name="utilde" unicode="&#x169;" horiz-adv-x="1103" 
d="M742 1130q-34 0 -90.5 27.5t-103.5 59t-88 51t-52 7.5q-27 -30 -9 -89l-148 -41q-42 122 7.5 207.5t164.5 85.5q43 0 115 -36.5t133.5 -73t76.5 -36.5q49 0 17 87l151 49q41 -126 -11 -212t-163 -86zM82 378v646h256v-578q0 -89 62.5 -151.5t151.5 -62.5t151 62.5
t62 151.5v578h256l1 -1024h-256l-1 90q-114 -117 -279 -117q-167 0 -285.5 119t-118.5 286z" />
    <glyph glyph-name="Umacron" unicode="&#x16a;" horiz-adv-x="1394" 
d="M351 1770h692v-190h-692v190zM698 -27q-126 0 -234.5 49t-182.5 133.5t-116 199t-42 243.5v836h256v-836q0 -158 86 -263.5t233 -105.5q99 0 172.5 50.5t109.5 133t36 185.5v836h256v-836q0 -173 -71 -315t-203 -226t-300 -84z" />
    <glyph glyph-name="umacron" unicode="&#x16b;" horiz-adv-x="1103" 
d="M237 1361h692v-191h-692v191zM82 378v646h256v-578q0 -89 62.5 -151.5t151.5 -62.5t151 62.5t62 151.5v578h256l1 -1024h-256l-1 90q-114 -117 -279 -117q-167 0 -285.5 119t-118.5 286z" />
    <glyph glyph-name="Ubreve" unicode="&#x16c;" horiz-adv-x="1394" 
d="M697 1524q-139 0 -239.5 100t-100.5 240h159q0 -74 53.5 -128t127.5 -54q75 0 128.5 53.5t53.5 128.5h158q0 -142 -100 -241t-240 -99zM698 -27q-126 0 -234.5 49t-182.5 133.5t-116 199t-42 243.5v836h256v-836q0 -158 86 -263.5t233 -105.5q99 0 172.5 50.5t109.5 133
t36 185.5v836h256v-836q0 -173 -71 -315t-203 -226t-300 -84z" />
    <glyph glyph-name="ubreve" unicode="&#x16d;" horiz-adv-x="1103" 
d="M583 1114q-139 0 -239.5 100t-100.5 240h158q0 -74 54 -127.5t128 -53.5q75 0 128.5 53t53.5 128h158q0 -142 -99.5 -241t-240.5 -99zM82 378v646h256v-578q0 -89 62.5 -151.5t151.5 -62.5t151 62.5t62 151.5v578h256l1 -1024h-256l-1 90q-114 -117 -279 -117
q-167 0 -285.5 119t-118.5 286z" />
    <glyph glyph-name="Uring" unicode="&#x16e;" horiz-adv-x="1394" 
d="M697 1502q-78 0 -134.5 57.5t-56.5 136.5q0 77 56 133t135 56t135.5 -56t56.5 -133q0 -81 -56.5 -137.5t-135.5 -56.5zM697 1625q28 0 48 20.5t20 49.5q0 28 -20 47t-48 19t-47.5 -19t-19.5 -47q0 -29 19.5 -49.5t47.5 -20.5zM698 -27q-126 0 -234.5 49t-182.5 133.5
t-116 199t-42 243.5v836h256v-836q0 -158 86 -263.5t233 -105.5q99 0 172.5 50.5t109.5 133t36 185.5v836h256v-836q0 -173 -71 -315t-203 -226t-300 -84z" />
    <glyph glyph-name="uring" unicode="&#x16f;" horiz-adv-x="1103" 
d="M583 1093q-79 0 -135.5 57t-56.5 136q0 77 56.5 133.5t135.5 56.5t135.5 -56.5t56.5 -133.5q0 -81 -56.5 -137t-135.5 -56zM583 1215q28 0 48 20.5t20 49.5q0 28 -20 47.5t-48 19.5t-48 -19.5t-20 -47.5q0 -29 20 -49.5t48 -20.5zM82 378v646h256v-578q0 -89 62.5 -151.5
t151.5 -62.5t151 62.5t62 151.5v578h256l1 -1024h-256l-1 90q-114 -117 -279 -117q-167 0 -285.5 119t-118.5 286z" />
    <glyph glyph-name="Uhungarumlaut" unicode="&#x170;" horiz-adv-x="1394" 
d="M814 1548l82 295h256l-168 -295h-170zM468 1548l82 295h255l-167 -295h-170zM698 -27q-126 0 -234.5 49t-182.5 133.5t-116 199t-42 243.5v836h256v-836q0 -158 86 -263.5t233 -105.5q99 0 172.5 50.5t109.5 133t36 185.5v836h256v-836q0 -173 -71 -315t-203 -226
t-300 -84z" />
    <glyph glyph-name="uhungarumlaut" unicode="&#x171;" horiz-adv-x="1103" 
d="M699 1139l82 295h256l-167 -295h-171zM353 1139l82 295h256l-167 -295h-171zM82 378v646h256v-578q0 -89 62.5 -151.5t151.5 -62.5t151 62.5t62 151.5v578h256l1 -1024h-256l-1 90q-114 -117 -279 -117q-167 0 -285.5 119t-118.5 286z" />
    <glyph glyph-name="Uogonek" unicode="&#x172;" horiz-adv-x="1394" 
d="M731 -468q-106 0 -174.5 74t-68.5 171q0 101 71 172l34 34q-140 25 -247.5 112t-165 218t-57.5 285v836h256v-836q0 -158 86 -263.5t233 -105.5q99 0 172.5 50.5t109.5 133t36 185.5v836h256v-836q0 -220 -114 -386t-306 -218q-15 -15 -45.5 -44.5t-43.5 -42.5t-33.5 -36
t-29 -37t-15.5 -32t-7 -34q0 -26 17 -45.5t46 -19.5q39 0 68 28t29 69h161q0 -110 -77.5 -189t-190.5 -79z" />
    <glyph glyph-name="uogonek" unicode="&#x173;" horiz-adv-x="1103" 
d="M82 378v646h256v-578q0 -89 62.5 -151.5t151.5 -62.5t151 62.5t62 151.5v578h256l1 -1024h-3q-15 -15 -53.5 -52.5t-52 -52t-35 -40t-28.5 -44.5t-7 -38q0 -26 17.5 -45.5t45.5 -20.5q40 0 69 28.5t29 69.5h161q0 -109 -78 -188.5t-191 -79.5q-106 0 -174.5 73.5
t-68.5 171.5q0 100 72 172l46 46h-5l-1 90q-114 -117 -279 -117q-167 0 -285.5 119t-118.5 286z" />
    <glyph glyph-name="Wcircumflex" unicode="&#x174;" horiz-adv-x="1918" 
d="M1103 1841l199 -295h-170l-173 198l-168 -198h-170l194 295h288zM452 0l-367 1434h264l247 -969l247 969h233l247 -969l247 969h264l-365 -1434h-290l-220 856l-217 -856h-290z" />
    <glyph glyph-name="wcircumflex" unicode="&#x175;" horiz-adv-x="1751" 
d="M1019 1432l198 -295h-170l-171 197l-169 -197h-171l195 295h288zM656 0h-253l-342 1024h250l220 -654l219 654h251l219 -654l219 654h251l-343 -1024h-253l-220 656z" />
    <glyph glyph-name="Ycircumflex" unicode="&#x176;" horiz-adv-x="1364" 
d="M825 1841l199 -295h-171l-171 198l-169 -198h-170l195 295h287zM1001 1434h303l-494 -788v-646h-256v646l-493 788h303l318 -509z" />
    <glyph glyph-name="ycircumflex" unicode="&#x177;" horiz-adv-x="1178" 
d="M733 1432l198 -295h-170l-171 197l-169 -197h-171l194 295h289zM825 1024h272l-560 -1536h-272l186 512l-369 1024h279l217 -675z" />
    <glyph glyph-name="Ydieresis" unicode="&#x178;" horiz-adv-x="1364" 
d="M478 1504q-57 0 -95 37t-38 94q0 55 38.5 93t94.5 38q55 0 93 -38t38 -93q0 -57 -37.5 -94t-93.5 -37zM889 1504q-57 0 -95.5 37t-38.5 94q0 55 38.5 93t95.5 38q55 0 93 -38t38 -93q0 -56 -38 -93.5t-93 -37.5zM1001 1434h303l-494 -788v-646h-256v646l-493 788h303
l318 -509z" />
    <glyph glyph-name="Zacute" unicode="&#x179;" horiz-adv-x="1323" 
d="M595 1549l82 295h255l-167 -295h-170zM82 0v256l814 922h-814v256h1159v-256l-814 -922h814v-256h-1159z" />
    <glyph glyph-name="zacute" unicode="&#x17a;" horiz-adv-x="1038" 
d="M453 1140l82 295h255l-167 -295h-170zM956 768l-505 -512h505v-256h-874v256l506 512h-506v256h874v-256z" />
    <glyph glyph-name="Zdotaccent" unicode="&#x17b;" horiz-adv-x="1323" 
d="M663 1563q-57 0 -95.5 37.5t-38.5 93.5q0 55 39 93t95 38q55 0 93 -38t38 -93q0 -56 -37.5 -93.5t-93.5 -37.5zM82 0v256l814 922h-814v256h1159v-256l-814 -922h814v-256h-1159z" />
    <glyph glyph-name="zdotaccent" unicode="&#x17c;" horiz-adv-x="1038" 
d="M520 1153q-56 0 -94.5 37.5t-38.5 93.5q0 55 38.5 93t94.5 38q55 0 93 -38t38 -93q0 -56 -37.5 -93.5t-93.5 -37.5zM956 768l-505 -512h505v-256h-874v256l506 512h-506v256h874v-256z" />
    <glyph glyph-name="Zcaron" unicode="&#x17d;" horiz-adv-x="1323" 
d="M519 1546l-198 295h171l171 -197l168 197h170l-194 -295h-288zM82 0v256l814 922h-814v256h1159v-256l-814 -922h814v-256h-1159z" />
    <glyph glyph-name="zcaron" unicode="&#x17e;" horiz-adv-x="1038" 
d="M377 1137l-199 295h171l171 -198l169 198h170l-194 -295h-288zM956 768l-505 -512h505v-256h-874v256l506 512h-506v256h874v-256z" />
    <glyph glyph-name="Dtail" unicode="&#x189;" horiz-adv-x="1376" 
d="M123 0v660h-113v216h113v558h475q145 0 278 -57t229 -153t153 -229t57 -278t-57 -278t-153 -229t-229 -153t-278 -57h-475zM379 256h219q189 0 325 135t136 326q0 190 -136 325.5t-325 135.5h-219v-302h280v-216h-280v-404z" />
    <glyph glyph-name="uni018F" unicode="&#x18f;" horiz-adv-x="1532" 
d="M766 -27q-146 0 -278.5 61t-227 163.5t-148.5 243.5t-50 295h1152q-9 201 -140.5 334.5t-308.5 133.5q-93 0 -179 -41t-154 -122l-229 122q110 147 255 221t304 74q138 0 267 -55.5t226.5 -151.5t156.5 -235t59 -297q0 -151 -54.5 -288.5t-148 -238t-224.5 -160
t-278 -59.5zM763 229q135 0 245.5 78.5t161.5 205.5h-806q56 -133 164.5 -208.5t234.5 -75.5z" />
    <glyph glyph-name="florin" unicode="&#x192;" horiz-adv-x="1197" 
d="M289 -27q-147 0 -228 110l209 180q13 -34 55 -34q29 0 52 20t27 49l67 470h-110l35 256h111l30 212q20 134 128.5 229.5t243.5 95.5q146 0 228 -110l-209 -180q-15 34 -55 34q-29 0 -52.5 -20t-27.5 -49l-30 -212h277l-35 -256h-278l-67 -470q-19 -134 -127.5 -229.5
t-243.5 -95.5z" />
    <glyph glyph-name="uni01CD" unicode="&#x1cd;" horiz-adv-x="1498" 
d="M607 1546l-198 295h170l171 -197l169 197h171l-195 -295h-288zM602 1434h294l520 -1434h-271l-91 251h-610l-91 -251h-271zM538 507h423l-212 579z" />
    <glyph glyph-name="uni01CE" unicode="&#x1ce;" horiz-adv-x="1269" 
d="M486 1137l-197 295h170l171 -198l169 198h171l-195 -295h-289zM892 1024h256v-1024h-257l-11 123q-44 -70 -112.5 -110t-157.5 -40q-149 0 -276 74t-200 200.5t-73 275.5q0 144 70 266t191.5 193t265.5 71q184 0 315 -157zM603 219q116 0 192 85t76 208q0 124 -76 208.5
t-192 84.5q-117 0 -198 -85t-81 -208q0 -122 82 -207.5t197 -85.5z" />
    <glyph glyph-name="uni01CF" unicode="&#x1cf;" horiz-adv-x="563" 
d="M139 1546l-198 295h171l171 -197l169 197h170l-195 -295h-288zM154 0v1434h256v-1434h-256z" />
    <glyph glyph-name="uni01D0" unicode="&#x1d0;" horiz-adv-x="501" 
d="M109 1137l-199 295h171l171 -198l169 198h170l-195 -295h-287zM123 1024h256v-1024h-256v1024z" />
    <glyph glyph-name="uni01D1" unicode="&#x1d1;" horiz-adv-x="1536" 
d="M626 1546l-199 295h171l171 -197l169 197h170l-195 -295h-287zM768 -27q-143 0 -274 59t-226 158.5t-151 237.5t-56 289q0 202 95 373t258 270.5t354 99.5t354 -99.5t258 -270.5t95 -373q0 -151 -56 -289t-151 -237.5t-226 -158.5t-274 -59zM768 229q122 0 226 66
t164.5 178.5t60.5 243.5t-60.5 243.5t-164.5 178t-226 65.5q-186 0 -318.5 -143t-132.5 -344q0 -132 60.5 -244.5t164.5 -178t226 -65.5z" />
    <glyph glyph-name="uni01D2" unicode="&#x1d2;" horiz-adv-x="1146" 
d="M431 1137l-199 295h171l171 -198l169 198h170l-194 -295h-288zM573 -27q-139 0 -257 72.5t-186.5 196.5t-68.5 270q0 147 68.5 271.5t186.5 197t257 72.5t257 -72.5t186.5 -197t68.5 -271.5q0 -146 -68.5 -270t-186.5 -196.5t-257 -72.5zM573 229q108 0 182 83.5
t74 199.5q0 118 -75.5 201.5t-180.5 83.5q-107 0 -181.5 -84.5t-74.5 -200.5q0 -119 75.5 -201t180.5 -82z" />
    <glyph glyph-name="uni01D3" unicode="&#x1d3;" horiz-adv-x="1394" 
d="M555 1546l-199 295h171l171 -197l169 197h170l-194 -295h-288zM698 -27q-126 0 -234.5 49t-182.5 133.5t-116 199t-42 243.5v836h256v-836q0 -158 86 -263.5t233 -105.5q99 0 172.5 50.5t109.5 133t36 185.5v836h256v-836q0 -173 -71 -315t-203 -226t-300 -84z" />
    <glyph glyph-name="uni01D4" unicode="&#x1d4;" horiz-adv-x="1103" 
d="M441 1137l-198 295h170l171 -198l169 198h171l-195 -295h-288zM82 378v646h256v-578q0 -89 62.5 -151.5t151.5 -62.5t151 62.5t62 151.5v578h256l1 -1024h-256l-1 90q-114 -117 -279 -117q-167 0 -285.5 119t-118.5 286z" />
    <glyph glyph-name="uni01D5" unicode="&#x1d5;" horiz-adv-x="1394" 
d="M351 2063h692v-190h-692v190zM494 1504q-57 0 -96 37t-39 94q0 55 39 93t96 38q55 0 93 -38t38 -93q0 -56 -38 -93.5t-93 -37.5zM903 1504q-57 0 -95 37t-38 94q0 55 38.5 93t94.5 38q55 0 93 -38t38 -93q0 -56 -38 -93.5t-93 -37.5zM698 -27q-126 0 -234.5 49
t-182.5 133.5t-116 199t-42 243.5v836h256v-836q0 -158 86 -263.5t233 -105.5q99 0 172.5 50.5t109.5 133t36 185.5v836h256v-836q0 -173 -71 -315t-203 -226t-300 -84z" />
    <glyph glyph-name="uni01D6" unicode="&#x1d6;" horiz-adv-x="1103" 
d="M237 1654h692v-191h-692v191zM379 1095q-57 0 -95 37t-38 94q0 55 38.5 93t94.5 38q55 0 93 -38t38 -93q0 -56 -38 -93.5t-93 -37.5zM790 1095q-57 0 -96 37t-39 94q0 55 39 93t96 38q55 0 92.5 -38t37.5 -93q0 -57 -37.5 -94t-92.5 -37zM82 378v646h256v-578
q0 -89 62.5 -151.5t151.5 -62.5t151 62.5t62 151.5v578h256l1 -1024h-256l-1 90q-114 -117 -279 -117q-167 0 -285.5 119t-118.5 286z" />
    <glyph glyph-name="uni01D7" unicode="&#x1d7;" horiz-adv-x="1394" 
d="M631 1843l82 295h255l-167 -295h-170zM494 1504q-57 0 -96 37t-39 94q0 55 39 93t96 38q55 0 93 -38t38 -93q0 -56 -38 -93.5t-93 -37.5zM903 1504q-57 0 -95 37t-38 94q0 55 38.5 93t94.5 38q55 0 93 -38t38 -93q0 -56 -38 -93.5t-93 -37.5zM698 -27q-126 0 -234.5 49
t-182.5 133.5t-116 199t-42 243.5v836h256v-836q0 -158 86 -263.5t233 -105.5q99 0 172.5 50.5t109.5 133t36 185.5v836h256v-836q0 -173 -71 -315t-203 -226t-300 -84z" />
    <glyph glyph-name="uni01D8" unicode="&#x1d8;" horiz-adv-x="1103" 
d="M516 1434l82 295h256l-167 -295h-171zM379 1095q-57 0 -95 37t-38 94q0 55 38.5 93t94.5 38q55 0 93 -38t38 -93q0 -56 -38 -93.5t-93 -37.5zM790 1095q-57 0 -96 37t-39 94q0 55 39 93t96 38q55 0 92.5 -38t37.5 -93q0 -57 -37.5 -94t-92.5 -37zM82 378v646h256v-578
q0 -89 62.5 -151.5t151.5 -62.5t151 62.5t62 151.5v578h256l1 -1024h-256l-1 90q-114 -117 -279 -117q-167 0 -285.5 119t-118.5 286z" />
    <glyph glyph-name="uni01D9" unicode="&#x1d9;" horiz-adv-x="1394" 
d="M555 1839l-199 295h171l171 -197l169 197h170l-194 -295h-288zM494 1504q-57 0 -96 37t-39 94q0 55 39 93t96 38q55 0 93 -38t38 -93q0 -56 -38 -93.5t-93 -37.5zM903 1504q-57 0 -95 37t-38 94q0 55 38.5 93t94.5 38q55 0 93 -38t38 -93q0 -56 -38 -93.5t-93 -37.5z
M698 -27q-126 0 -234.5 49t-182.5 133.5t-116 199t-42 243.5v836h256v-836q0 -158 86 -263.5t233 -105.5q99 0 172.5 50.5t109.5 133t36 185.5v836h256v-836q0 -173 -71 -315t-203 -226t-300 -84z" />
    <glyph glyph-name="uni01DA" unicode="&#x1da;" horiz-adv-x="1103" 
d="M441 1430l-198 294h170l171 -196l169 196h171l-195 -294h-288zM379 1095q-57 0 -95 37t-38 94q0 55 38.5 93t94.5 38q55 0 93 -38t38 -93q0 -56 -38 -93.5t-93 -37.5zM790 1095q-57 0 -96 37t-39 94q0 55 39 93t96 38q55 0 92.5 -38t37.5 -93q0 -57 -37.5 -94t-92.5 -37z
M82 378v646h256v-578q0 -89 62.5 -151.5t151.5 -62.5t151 62.5t62 151.5v578h256l1 -1024h-256l-1 90q-114 -117 -279 -117q-167 0 -285.5 119t-118.5 286z" />
    <glyph glyph-name="uni01DB" unicode="&#x1db;" horiz-adv-x="1394" 
d="M426 2134h255l82 -295h-170zM494 1504q-57 0 -96 37t-39 94q0 55 39 93t96 38q55 0 93 -38t38 -93q0 -56 -38 -93.5t-93 -37.5zM903 1504q-57 0 -95 37t-38 94q0 55 38.5 93t94.5 38q55 0 93 -38t38 -93q0 -56 -38 -93.5t-93 -37.5zM698 -27q-126 0 -234.5 49
t-182.5 133.5t-116 199t-42 243.5v836h256v-836q0 -158 86 -263.5t233 -105.5q99 0 172.5 50.5t109.5 133t36 185.5v836h256v-836q0 -173 -71 -315t-203 -226t-300 -84z" />
    <glyph glyph-name="uni01DC" unicode="&#x1dc;" horiz-adv-x="1103" 
d="M311 1724h256l82 -294h-170zM379 1095q-57 0 -95 37t-38 94q0 55 38.5 93t94.5 38q55 0 93 -38t38 -93q0 -56 -38 -93.5t-93 -37.5zM790 1095q-57 0 -96 37t-39 94q0 55 39 93t96 38q55 0 92.5 -38t37.5 -93q0 -57 -37.5 -94t-92.5 -37zM82 378v646h256v-578
q0 -89 62.5 -151.5t151.5 -62.5t151 62.5t62 151.5v578h256l1 -1024h-256l-1 90q-114 -117 -279 -117q-167 0 -285.5 119t-118.5 286z" />
    <glyph glyph-name="uni01DE" unicode="&#x1de;" horiz-adv-x="1498" 
d="M402 2063h693v-190h-693v190zM545 1504q-57 0 -95 37t-38 94q0 55 38.5 93t94.5 38q55 0 93 -38t38 -93q0 -57 -37.5 -94t-93.5 -37zM955 1504q-57 0 -95 37t-38 94q0 55 38 93t95 38q55 0 93 -38t38 -93q0 -56 -38 -93.5t-93 -37.5zM602 1434h294l520 -1434h-271
l-91 251h-610l-91 -251h-271zM538 507h423l-212 579z" />
    <glyph glyph-name="uni01DF" unicode="&#x1df;" horiz-adv-x="1269" 
d="M283 1654h692v-191h-692v191zM425 1095q-57 0 -95 37t-38 94q0 55 38.5 93t94.5 38q55 0 93 -38t38 -93q0 -57 -37.5 -94t-93.5 -37zM836 1095q-57 0 -96 37t-39 94q0 55 39 93t96 38q55 0 93 -38t38 -93q0 -56 -38 -93.5t-93 -37.5zM892 1024h256v-1024h-257l-11 123
q-44 -70 -112.5 -110t-157.5 -40q-149 0 -276 74t-200 200.5t-73 275.5q0 144 70 266t191.5 193t265.5 71q184 0 315 -157zM603 219q116 0 192 85t76 208q0 124 -76 208.5t-192 84.5q-117 0 -198 -85t-81 -208q0 -122 82 -207.5t197 -85.5z" />
    <glyph glyph-name="uni01E2" unicode="&#x1e2;" horiz-adv-x="1721" 
d="M765 1770h692v-190h-692v190zM82 0l520 1434h1017v-256h-501v-333h403v-256h-403v-333h501v-256h-757v251h-418l-91 -251h-271zM538 507h324v671h-80z" />
    <glyph glyph-name="uni01E3" unicode="&#x1e3;" horiz-adv-x="1767" 
d="M479 1363h692v-192h-692v192zM367 -27q-144 0 -240 94.5t-96 227.5q0 131 96 226t239 95h308q-12 78 -69 129.5t-141 51.5q-81 0 -147 -39l-141 212q128 83 285 83q108 0 203.5 -46.5t160.5 -130.5q67 82 164 129.5t206 47.5q157 0 282 -88t185 -233t38 -307h-742
q21 -87 84 -141.5t155 -54.5q61 0 114 30.5t88 83.5l260 -60q-64 -139 -188.5 -224.5t-275.5 -85.5q-122 0 -226.5 57t-172.5 156q-60 -89 -178 -151t-251 -62zM949 616h493q-20 91 -89 152t-158 61t-157 -60t-89 -153zM367 197q73 0 135.5 31t103.5 86q42 46 67 112h-307
q-48 0 -80 -33t-32 -80q0 -46 32 -81t81 -35z" />
    <glyph glyph-name="Gcaron" unicode="&#x1e6;" horiz-adv-x="1532" 
d="M625 1546l-198 295h170l171 -197l169 197h171l-195 -295h-288zM766 -27q-147 0 -278 59.5t-224.5 160t-148 238t-54.5 288.5q0 158 59 297t157 235t227 151.5t267 55.5q159 0 303.5 -74t254.5 -221l-227 -122q-68 81 -155 122t-179 41q-88 0 -170.5 -37t-144.5 -101
t-99 -156t-37 -196q0 -99 36 -189t96.5 -154.5t144.5 -103t176 -38.5q126 0 234.5 75.5t164.5 208.5h-254v223h555q4 -154 -50 -295t-148.5 -243.5t-227 -163.5t-278.5 -61z" />
    <glyph glyph-name="gcaron" unicode="&#x1e7;" horiz-adv-x="1258" 
d="M487 1137l-198 295h171l171 -198l169 198h170l-195 -295h-288zM881 1024h255v-1042q0 -108 -46 -201.5t-123 -157t-179 -99.5t-213 -36q-161 0 -299.5 94.5t-199.5 242.5l233 106q31 -83 105.5 -134.5t160.5 -51.5q124 0 215 65t91 172v139q-109 -148 -287 -148
q-144 0 -267 72.5t-194.5 196.5t-71.5 270t71.5 270t194.5 196.5t267 72.5q178 0 287 -148v121zM598 219q114 0 189.5 85.5t75.5 207.5q0 123 -75.5 208t-189.5 85t-194 -85.5t-80 -207.5t80.5 -207.5t193.5 -85.5z" />
    <glyph glyph-name="uni01E8" unicode="&#x1e8;" horiz-adv-x="1206" 
d="M461 1546l-198 295h170l171 -197l169 197h170l-194 -295h-288zM1178 0h-334l-400 558l-65 -80v-478h-256v1434h256v-558l467 558h334l-568 -676z" />
    <glyph glyph-name="uni01E9" unicode="&#x1e9;" horiz-adv-x="1100" 
d="M516 1546l-198 295h170l171 -197l169 197h170l-194 -295h-288zM1043 0h-293l-231 397l-140 -167v-230h-256v1536h256v-908l332 396h333l-350 -419z" />
    <glyph glyph-name="Oslashacute" unicode="&#x1fe;" horiz-adv-x="1536" 
d="M701 1549l82 295h255l-167 -295h-170zM438 -112l-221 127l84 148q-112 104 -176 248.5t-64 305.5q0 202 95 373t258 270.5t354 99.5q131 0 253 -50l79 135l221 -127l-85 -146q112 -104 175.5 -248t63.5 -307q0 -151 -56 -289t-151 -237.5t-226 -158.5t-274 -59
q-129 0 -251 53zM436 398l454 784q-58 22 -122 22q-186 0 -318.5 -143t-132.5 -344q0 -185 119 -319zM768 229q122 0 226 66t164.5 178.5t60.5 243.5q0 186 -117 319l-454 -783q59 -24 120 -24z" />
    <glyph glyph-name="oslashacute" unicode="&#x1ff;" horiz-adv-x="1146" 
d="M507 1140l82 295h255l-167 -295h-170zM352 -78l-180 104l54 92q-77 75 -121 177.5t-44 216.5q0 147 68.5 271.5t186.5 197t257 72.5q94 0 172 -33l51 85l179 -104l-53 -93q77 -75 120 -177.5t43 -218.5q0 -146 -68.5 -270t-186.5 -196.5t-257 -72.5q-86 0 -173 33z
M352 334l279 483q-84 16 -161.5 -23.5t-124.5 -119.5t-47 -176q0 -94 54 -164zM516 210q86 -16 164 23t124 118.5t46 174.5q0 91 -54 167z" />
    <glyph glyph-name="uni0218" unicode="&#x218;" horiz-adv-x="1148" 
d="M604 -27q-148 0 -306.5 84.5t-236.5 201.5l211 144q40 -58 140 -115.5t191 -57.5q89 0 159.5 49.5t70.5 127.5q0 77 -69 135.5t-175 78.5q-223 40 -348 157t-125 275q0 169 129 281.5t307 112.5q147 0 268.5 -76.5t174.5 -191.5l-232 -110q-27 58 -87.5 89.5t-124.5 31.5
q-69 0 -124.5 -39t-55.5 -98q0 -58 52 -104t122 -62q123 -30 216.5 -69t169.5 -95.5t116 -135.5t40 -178q0 -125 -66.5 -225.5t-177 -155.5t-239.5 -55zM506 -452l63 347h255l-148 -347h-170z" />
    <glyph glyph-name="uni0219" unicode="&#x219;" horiz-adv-x="889" 
d="M425 -18q-125 9 -227.5 66.5t-146.5 152.5l216 93q22 -36 73 -66t113 -30t105.5 25t43.5 74q0 33 -27.5 55.5t-50.5 29.5t-74 18l-12 3q-76 15 -140 42t-115.5 66t-81 95t-29.5 123q0 147 112.5 238.5t269.5 91.5q122 0 224 -51t161 -142l-202 -120q-23 36 -67.5 63.5
t-94.5 31.5q-72 4 -118 -22.5t-46 -83.5q0 -27 20 -46t42 -26.5t64 -17.5t59 -16q73 -24 131 -52t108.5 -67.5t77.5 -93t25 -116.5q0 -96 -59 -173t-154 -115t-200 -30zM313 -452l64 347h255l-149 -347h-170z" />
    <glyph glyph-name="uni021A" unicode="&#x21a;" horiz-adv-x="1290" 
d="M1208 1434v-256h-436v-1178h-255v1178h-435v256h1126zM454 -452l63 347h255l-148 -347h-170z" />
    <glyph glyph-name="uni021B" unicode="&#x21b;" horiz-adv-x="734" 
d="M674 768h-197v-768h-256v768h-149v256h149v322h256v-322h197v-256zM158 -452l63 347h256l-148 -347h-171z" />
    <glyph glyph-name="uni022A" unicode="&#x22a;" horiz-adv-x="1536" 
d="M422 2063h692v-190h-692v190zM564 1504q-57 0 -95 37t-38 94q0 55 38.5 93t94.5 38q55 0 93 -38t38 -93q0 -56 -38 -93.5t-93 -37.5zM974 1504q-57 0 -95 37t-38 94q0 55 38.5 93t94.5 38q55 0 93 -38t38 -93q0 -57 -37.5 -94t-93.5 -37zM768 -27q-143 0 -274 59
t-226 158.5t-151 237.5t-56 289q0 202 95 373t258 270.5t354 99.5t354 -99.5t258 -270.5t95 -373q0 -151 -56 -289t-151 -237.5t-226 -158.5t-274 -59zM768 229q122 0 226 66t164.5 178.5t60.5 243.5t-60.5 243.5t-164.5 178t-226 65.5q-186 0 -318.5 -143t-132.5 -344
q0 -132 60.5 -244.5t164.5 -178t226 -65.5z" />
    <glyph glyph-name="uni022B" unicode="&#x22b;" horiz-adv-x="1146" 
d="M227 1654h693v-191h-693v191zM370 1095q-57 0 -95 37t-38 94q0 55 38.5 93t94.5 38q55 0 93 -38t38 -93q0 -56 -38 -93.5t-93 -37.5zM779 1095q-57 0 -95 37t-38 94q0 55 38.5 93t94.5 38q55 0 93 -38t38 -93q0 -57 -37.5 -94t-93.5 -37zM573 -27q-139 0 -257 72.5
t-186.5 196.5t-68.5 270q0 147 68.5 271.5t186.5 197t257 72.5t257 -72.5t186.5 -197t68.5 -271.5q0 -146 -68.5 -270t-186.5 -196.5t-257 -72.5zM573 229q108 0 182 83.5t74 199.5q0 118 -75.5 201.5t-180.5 83.5q-107 0 -181.5 -84.5t-74.5 -200.5q0 -119 75.5 -201
t180.5 -82z" />
    <glyph glyph-name="uni0232" unicode="&#x232;" horiz-adv-x="1363" 
d="M336 1770h692v-190h-692v190zM1001 1434h303l-494 -788v-646h-256v646l-493 788h303l318 -509z" />
    <glyph glyph-name="uni0233" unicode="&#x233;" horiz-adv-x="1178" 
d="M244 1361h692v-191h-692v191zM825 1024h272l-560 -1536h-272l186 512l-369 1024h279l217 -675z" />
    <glyph glyph-name="uni0237" unicode="&#x237;" horiz-adv-x="501" 
d="M-82 -512v256q86 0 145.5 58.5t59.5 143.5v1078h256v-1078q0 -190 -134 -324t-327 -134z" />
    <glyph glyph-name="uni0259" unicode="&#x259;" horiz-adv-x="1145" 
d="M572 1053q139 0 257 -72.5t186.5 -196.5t68.5 -271t-68.5 -271t-186.5 -196.5t-257 -72.5q-156 0 -281 87.5t-185.5 233t-37.5 307.5h741q-21 86 -84 140.5t-153 55.5q-62 1 -114.5 -29.5t-88.5 -84.5l-260 60q64 139 188 224.5t275 85.5zM818 410h-492
q20 -92 88.5 -152.5t157.5 -60.5t157 60t89 153z" />
    <glyph glyph-name="quoteleft" unicode="&#x2018;" horiz-adv-x="421" 
d="M61 899l149 535h171l-64 -535h-256z" />
    <glyph glyph-name="quoteleft" unicode="&#x2bb;" horiz-adv-x="421" 
d="M61 899l149 535h171l-64 -535h-256z" />
    <glyph glyph-name="uni02BC" unicode="&#x2bc;" horiz-adv-x="551" 
d="M41 899l63 535h256l-149 -535h-170z" />
    <glyph glyph-name="circumflex" unicode="&#x2c6;" horiz-adv-x="712" 
d="M499 1432l198 -295h-171l-171 197l-169 -197h-171l196 295h288z" />
    <glyph glyph-name="caron" unicode="&#x2c7;" horiz-adv-x="672" 
d="M195 1137l-199 295h170l172 -198l168 198h171l-195 -295h-287z" />
    <glyph glyph-name="breve" unicode="&#x2d8;" horiz-adv-x="1171" 
d="M586 1114q-140 0 -240 100t-100 240h158q0 -74 54 -127.5t128 -53.5q75 0 128 53t53 128h159q0 -142 -100 -241t-240 -99z" />
    <glyph glyph-name="dotaccent" unicode="&#x2d9;" horiz-adv-x="1082" 
d="M543 1153q-57 0 -95 37.5t-38 93.5t38 93.5t95 37.5q55 0 93 -38t38 -93q0 -56 -37.5 -93.5t-93.5 -37.5z" />
    <glyph glyph-name="ring" unicode="&#x2da;" horiz-adv-x="1202" 
d="M601 1093q-79 0 -135 57t-56 136q0 78 56 134t135 56t135.5 -56.5t56.5 -133.5q0 -81 -56.5 -137t-135.5 -56zM601 1215q28 0 48 20.5t20 49.5q0 28 -20 47.5t-48 19.5t-47.5 -19.5t-19.5 -47.5q0 -29 19.5 -49.5t47.5 -20.5z" />
    <glyph glyph-name="ogonek" unicode="&#x2db;" horiz-adv-x="1126" 
d="M550 -465q-106 0 -174.5 74t-68.5 172q0 99 72 171l172 172l124 -124q-15 -15 -54 -53t-52.5 -52.5t-35 -40.5t-29 -45t-7.5 -38q0 -25 17.5 -45t45.5 -20q39 0 68 28t29 69h162q0 -109 -78 -188.5t-191 -79.5z" />
    <glyph glyph-name="tilde" unicode="&#x2dc;" horiz-adv-x="1284" 
d="M814 1134q-35 0 -91.5 27.5t-103.5 59t-88.5 51t-52.5 7.5q-24 -29 -8 -89l-148 -41q-41 122 8.5 207.5t164.5 85.5q43 0 114.5 -36.5t132.5 -73t76 -36.5q49 0 19 87l151 50q41 -126 -11.5 -212.5t-162.5 -86.5z" />
    <glyph glyph-name="hungarumlaut" unicode="&#x2dd;" horiz-adv-x="1092" 
d="M551 1139l82 295h256l-167 -295h-171zM205 1139l82 295h256l-168 -295h-170z" />
    <glyph glyph-name="gravecomb" unicode="&#x300;" 
d="M302 1432h255l82 -295h-170z" />
    <glyph glyph-name="acutecomb" unicode="&#x301;" 
d="M431 1139l82 295h256l-167 -295h-171z" />
    <glyph glyph-name="uni0302" unicode="&#x302;" 
d="M499 1432l198 -295h-171l-171 197l-169 -197h-171l196 295h288z" />
    <glyph glyph-name="tildecomb" unicode="&#x303;" 
d="M818 1130q-34 0 -90.5 27.5t-104 59t-89 51t-52.5 7.5q-24 -29 -8 -89l-147 -41q-42 122 7.5 207.5t164.5 85.5q43 0 115 -36.5t132.5 -73t76.5 -36.5q50 0 18 87l151 49q41 -126 -11.5 -212t-162.5 -86z" />
    <glyph glyph-name="uni0304" unicode="&#x304;" 
d="M268 1361h693v-191h-693v191z" />
    <glyph glyph-name="uni0306" unicode="&#x306;" 
d="M586 1114q-140 0 -240 100t-100 240h158q0 -74 54 -127.5t128 -53.5q75 0 128 53t53 128h159q0 -142 -100 -241t-240 -99z" />
    <glyph glyph-name="uni0307" unicode="&#x307;" 
d="M543 1153q-57 0 -95 37.5t-38 93.5t38 93.5t95 37.5q55 0 93 -38t38 -93q0 -56 -37.5 -93.5t-93.5 -37.5z" />
    <glyph glyph-name="uni0308" unicode="&#x308;" 
d="M543 1095q-57 0 -95 37t-38 94q0 55 38.5 93t94.5 38q55 0 93 -38t38 -93q0 -57 -37.5 -94t-93.5 -37zM953 1095q-57 0 -95.5 37t-38.5 94q0 55 38.5 93t95.5 38q55 0 93 -38t38 -93q0 -56 -38 -93.5t-93 -37.5z" />
    <glyph glyph-name="uni030A" unicode="&#x30a;" 
d="M601 1093q-79 0 -135 57t-56 136q0 78 56 134t135 56t135.5 -56.5t56.5 -133.5q0 -81 -56.5 -137t-135.5 -56zM601 1215q28 0 48 20.5t20 49.5q0 28 -20 47.5t-48 19.5t-47.5 -19.5t-19.5 -47.5q0 -29 19.5 -49.5t47.5 -20.5z" />
    <glyph glyph-name="uni030B" unicode="&#x30b;" 
d="M551 1139l82 295h256l-167 -295h-171zM205 1139l82 295h256l-168 -295h-170z" />
    <glyph glyph-name="uni030C" unicode="&#x30c;" 
d="M195 1137l-199 295h170l172 -198l168 198h171l-195 -295h-287z" />
    <glyph glyph-name="uni0312" unicode="&#x312;" 
d="M61 899l149 535h171l-64 -535h-256z" />
    <glyph glyph-name="dotbelowcomb" unicode="&#x323;" 
d="M543 -454q-57 0 -95 37.5t-38 93.5t38 94t95 38q55 0 93 -38.5t38 -93.5q0 -56 -37.5 -93.5t-93.5 -37.5z" />
    <glyph glyph-name="uni0326" unicode="&#x326;" 
d="M410 -452l63 347h256l-149 -347h-170z" />
    <glyph glyph-name="uni0327" unicode="&#x327;" 
d="M637 -385q-73 -20 -139 18t-86 111l129 35q5 -20 23 -30t38 -5t30 23t5 38q-10 40 -60 36l-134 -5l145 255l118 -67l-39 -67q78 -33 100 -118q20 -73 -18 -138.5t-112 -85.5z" />
    <glyph glyph-name="uni0328" unicode="&#x328;" 
d="M550 -465q-106 0 -174.5 74t-68.5 172q0 99 72 171l172 172l124 -124q-15 -15 -54 -53t-52.5 -52.5t-35 -40.5t-29 -45t-7.5 -38q0 -25 17.5 -45t45.5 -20q39 0 68 28t29 69h162q0 -109 -78 -188.5t-191 -79.5z" />
    <glyph glyph-name="uni0394" unicode="&#x394;" horiz-adv-x="1293" 
d="M1263 0h-1232l616 1434zM419 256h454l-226 530z" />
    <glyph glyph-name="uni03A9" unicode="&#x3a9;" horiz-adv-x="1536" 
d="M61 0v256h172q-81 92 -126.5 211t-45.5 250q0 202 95 373t258 270.5t354 99.5t354 -99.5t258 -270.5t95 -373q0 -131 -45 -250.5t-125 -210.5h170v-256h-548v261q130 53 211 178t81 278q0 131 -60.5 243.5t-164.5 178t-226 65.5q-186 0 -318.5 -143t-132.5 -344
q0 -154 81.5 -278.5t210.5 -177.5v-261h-548z" />
    <glyph glyph-name="uni03BC" unicode="&#x3bc;" horiz-adv-x="1166" 
d="M82 -442v1466h256v-522q0 -119 71.5 -201t181.5 -82q108 0 172.5 81t64.5 202v522h256v-1024h-256v119q-114 -148 -280 -148q-118 0 -210 74v-487h-256z" />
    <glyph glyph-name="pi" unicode="&#x3c0;" horiz-adv-x="1120" 
d="M165 0v768h-104v256h998v-256h-104v-422q0 -37 27 -63.5t65 -26.5v-256q-146 0 -247 101.5t-101 244.5v422h-278v-768h-256z" />
    <glyph glyph-name="uni1E04" unicode="&#x1e04;" horiz-adv-x="1205" 
d="M123 0v1434h573q140 0 239 -99t99 -239q0 -96 -50 -176.5t-132 -123.5q121 -42 196 -148t75 -238q0 -170 -120 -290t-289 -120h-591zM378 880h254q68 0 117 49t49 119q0 72 -48.5 121.5t-117.5 49.5h-254v-339zM378 215h295q92 0 157.5 65t65.5 158q0 95 -65.5 161
t-157.5 66h-295v-450zM604 -454q-57 0 -95 37.5t-38 93.5t38 94t95 38q55 0 93 -38.5t38 -93.5q0 -56 -37.5 -93.5t-93.5 -37.5z" />
    <glyph glyph-name="uni1E05" unicode="&#x1e05;" horiz-adv-x="1271" 
d="M671 1053q147 0 271 -72.5t196 -196.5t72 -270q0 -147 -72 -271.5t-196 -197t-271 -72.5q-180 0 -292 153v-126h-256v1536h256v-636q112 153 292 153zM667 221q117 0 199 85.5t82 207.5q0 121 -82.5 207t-198.5 86q-114 0 -190.5 -85.5t-76.5 -207.5q0 -123 76.5 -208
t190.5 -85zM637 -454q-56 0 -94.5 37.5t-38.5 93.5t38.5 94t94.5 38q55 0 93 -38.5t38 -93.5q0 -56 -37.5 -93.5t-93.5 -37.5z" />
    <glyph glyph-name="uni1E0C" unicode="&#x1e0c;" horiz-adv-x="1376" 
d="M123 0v1434h475q145 0 278 -57t229 -153t153 -229t57 -278t-57 -278t-153 -229t-229 -153t-278 -57h-475zM379 256h219q189 0 325 135t136 326q0 190 -136 325.5t-325 135.5h-219v-922zM673 -454q-56 0 -94 37.5t-38 93.5t38 94t94 38q55 0 93 -38t38 -94t-37.5 -93.5
t-93.5 -37.5z" />
    <glyph glyph-name="uni1E0D" unicode="&#x1e0d;" horiz-adv-x="1271" 
d="M893 1536h256v-1536h-256v125q-111 -152 -293 -152q-146 0 -270 72.5t-196.5 196.5t-72.5 270t72.5 270t196.5 196.5t270 72.5q182 0 293 -151v636zM603 219q116 0 192 85t76 208q0 124 -76 208.5t-192 84.5q-117 0 -198 -85.5t-81 -207.5t82 -207.5t197 -85.5zM632 -454
q-56 0 -94 37.5t-38 93.5t38 94t94 38q55 0 93 -38t38 -94t-37.5 -93.5t-93.5 -37.5z" />
    <glyph glyph-name="uni1E20" unicode="&#x1e20;" horiz-adv-x="1532" 
d="M421 1770h692v-190h-692v190zM766 -27q-147 0 -278 59.5t-224.5 160t-148 238t-54.5 288.5q0 158 59 297t157 235t227 151.5t267 55.5q159 0 303.5 -74t254.5 -221l-227 -122q-68 81 -155 122t-179 41q-88 0 -170.5 -37t-144.5 -101t-99 -156t-37 -196q0 -99 36 -189
t96.5 -154.5t144.5 -103t176 -38.5q126 0 234.5 75.5t164.5 208.5h-254v223h555q4 -154 -50 -295t-148.5 -243.5t-227 -163.5t-278.5 -61z" />
    <glyph glyph-name="uni1E21" unicode="&#x1e21;" horiz-adv-x="1258" 
d="M284 1361h692v-191h-692v191zM881 1024h255v-1042q0 -108 -46 -201.5t-123 -157t-179 -99.5t-213 -36q-161 0 -299.5 94.5t-199.5 242.5l233 106q31 -83 105.5 -134.5t160.5 -51.5q124 0 215 65t91 172v139q-109 -148 -287 -148q-144 0 -267 72.5t-194.5 196.5t-71.5 270
t71.5 270t194.5 196.5t267 72.5q178 0 287 -148v121zM598 219q114 0 189.5 85.5t75.5 207.5q0 123 -75.5 208t-189.5 85t-194 -85.5t-80 -207.5t80.5 -207.5t193.5 -85.5z" />
    <glyph glyph-name="uni1E24" unicode="&#x1e24;" horiz-adv-x="1341" 
d="M964 1434h255v-1434h-255v640h-585v-640h-256v1434h256v-538h585v538zM672 -454q-56 0 -94.5 37.5t-38.5 93.5t38.5 94t94.5 38q55 0 93 -38.5t38 -93.5q0 -56 -37.5 -93.5t-93.5 -37.5z" />
    <glyph glyph-name="uni1E25" unicode="&#x1e25;" horiz-adv-x="1144" 
d="M1063 648v-648h-256v580q0 89 -62.5 151.5t-151.5 62.5t-151.5 -62.5t-62.5 -151.5v-580h-255l-1 1536h256v-600q115 117 278 117q168 0 287 -119t119 -286zM627 -454q-57 0 -95 37.5t-38 93.5t38 94t95 38q55 0 93 -38.5t38 -93.5q0 -56 -37.5 -93.5t-93.5 -37.5z" />
    <glyph glyph-name="uni1E2E" unicode="&#x1e2e;" horiz-adv-x="563" 
d="M215 1843l82 295h255l-167 -295h-170zM78 1504q-57 0 -95.5 37t-38.5 94q0 55 38.5 93t95.5 38q55 0 93 -38t38 -93q0 -56 -38 -93.5t-93 -37.5zM487 1504q-57 0 -95 37t-38 94q0 55 38.5 93t94.5 38q55 0 93 -38t38 -93q0 -57 -37.5 -94t-93.5 -37zM154 0v1434h256
v-1434h-256z" />
    <glyph glyph-name="uni1E2F" unicode="&#x1e2f;" horiz-adv-x="501" 
d="M184 1434l82 295h255l-167 -295h-170zM47 1095q-57 0 -95.5 37t-38.5 94q0 55 38.5 93t95.5 38q55 0 93 -38t38 -93q0 -56 -38 -93.5t-93 -37.5zM457 1095q-57 0 -95 37t-38 94q0 55 38.5 93t94.5 38q55 0 93 -38t38 -93q0 -57 -37.5 -94t-93.5 -37zM123 1024h256v-1024
h-256v1024z" />
    <glyph glyph-name="uni1E36" unicode="&#x1e36;" horiz-adv-x="1074" 
d="M123 0v1434h256v-1178h593v-256h-849zM549 -454q-57 0 -95 37.5t-38 93.5t38 94t95 38q55 0 92.5 -38t37.5 -94t-37 -93.5t-93 -37.5z" />
    <glyph glyph-name="uni1E37" unicode="&#x1e37;" horiz-adv-x="522" 
d="M133 0v1536h256v-1536h-256zM262 -454q-57 0 -95 37.5t-38 93.5t38 94t95 38q55 0 93 -38.5t38 -93.5q0 -56 -37.5 -93.5t-93.5 -37.5z" />
    <glyph glyph-name="uni1E3E" unicode="&#x1e3e;" horiz-adv-x="1920" 
d="M893 1549l82 295h256l-167 -295h-171zM123 0l278 1434h212l348 -912l346 912h212l278 -1434h-261l-169 876l-319 -846h-176l-319 846l-170 -876h-260z" />
    <glyph glyph-name="uni1E3F" unicode="&#x1e3f;" horiz-adv-x="1819" 
d="M929 1140l82 295h256l-168 -295h-170zM123 0v1024h256v-88q114 117 278 117q104 0 193.5 -49.5t144.5 -133.5q55 84 144.5 133.5t193.5 49.5q167 0 286 -119t119 -286v-648h-256v580q0 88 -62 151t-149 63q-89 0 -151 -62t-62 -152v-580h-255v580q0 90 -62 152t-151 62
q-87 0 -149 -63t-62 -151v-580h-256z" />
    <glyph glyph-name="uni1E40" unicode="&#x1e40;" horiz-adv-x="1920" 
d="M962 1563q-57 0 -95.5 37.5t-38.5 93.5t38.5 93.5t95.5 37.5q55 0 92.5 -38t37.5 -93q0 -56 -37 -93.5t-93 -37.5zM123 0l278 1434h212l348 -912l346 912h212l278 -1434h-261l-169 876l-319 -846h-176l-319 846l-170 -876h-260z" />
    <glyph glyph-name="uni1E41" unicode="&#x1e41;" horiz-adv-x="1819" 
d="M996 1153q-56 0 -94 37.5t-38 93.5t38 93.5t94 37.5t93.5 -37.5t37.5 -93.5t-37.5 -93.5t-93.5 -37.5zM123 0v1024h256v-88q114 117 278 117q104 0 193.5 -49.5t144.5 -133.5q55 84 144.5 133.5t193.5 49.5q167 0 286 -119t119 -286v-648h-256v580q0 88 -62 151t-149 63
q-89 0 -151 -62t-62 -152v-580h-255v580q0 90 -62 152t-151 62q-87 0 -149 -63t-62 -151v-580h-256z" />
    <glyph glyph-name="uni1E42" unicode="&#x1e42;" horiz-adv-x="1920" 
d="M123 0l278 1434h212l348 -912l346 912h212l278 -1434h-261l-169 876l-319 -846h-176l-319 846l-170 -876h-260zM962 -454q-57 0 -95.5 37.5t-38.5 93.5t38.5 94t95.5 38q55 0 92.5 -38t37.5 -94t-37 -93.5t-93 -37.5z" />
    <glyph glyph-name="uni1E43" unicode="&#x1e43;" horiz-adv-x="1819" 
d="M123 0v1024h256v-88q114 117 278 117q104 0 193.5 -49.5t144.5 -133.5q55 84 144.5 133.5t193.5 49.5q167 0 286 -119t119 -286v-648h-256v580q0 88 -62 151t-149 63q-89 0 -151 -62t-62 -152v-580h-255v580q0 90 -62 152t-151 62q-87 0 -149 -63t-62 -151v-580h-256z
M931 -454q-56 0 -94 37.5t-38 93.5t38 94t94 38q55 0 93 -38t38 -94t-37.5 -93.5t-93.5 -37.5z" />
    <glyph glyph-name="uni1E44" unicode="&#x1e44;" horiz-adv-x="1375" 
d="M688 1563q-56 0 -94 37.5t-38 93.5t38 93.5t94 37.5t93.5 -37.5t37.5 -93.5t-37.5 -93.5t-93.5 -37.5zM123 0v1434h276l597 -972v972h256v-1434h-276l-597 972v-972h-256z" />
    <glyph glyph-name="uni1E45" unicode="&#x1e45;" horiz-adv-x="1144" 
d="M610 1153q-56 0 -94.5 37.5t-38.5 93.5q0 55 38.5 93t94.5 38q55 0 93 -38t38 -93q0 -56 -37.5 -93.5t-93.5 -37.5zM1063 648v-648h-256v580q0 89 -62.5 151.5t-151.5 62.5t-151.5 -62.5t-62.5 -151.5v-580h-255l-1 1024h256v-88q115 117 278 117q168 0 287 -119
t119 -286z" />
    <glyph glyph-name="uni1E46" unicode="&#x1e46;" horiz-adv-x="1375" 
d="M123 0v1434h276l597 -972v972h256v-1434h-276l-597 972v-972h-256zM688 -454q-56 0 -94 37.5t-38 93.5t38 94t94 38q55 0 93 -38t38 -94t-37.5 -93.5t-93.5 -37.5z" />
    <glyph glyph-name="uni1E47" unicode="&#x1e47;" horiz-adv-x="1144" 
d="M1063 648v-648h-256v580q0 89 -62.5 151.5t-151.5 62.5t-151.5 -62.5t-62.5 -151.5v-580h-255l-1 1024h256v-88q115 117 278 117q168 0 287 -119t119 -286zM594 -454q-56 0 -94 37.5t-38 93.5t38 94t94 38q55 0 93 -38t38 -94t-37.5 -93.5t-93.5 -37.5z" />
    <glyph glyph-name="uni1E50" unicode="&#x1e50;" horiz-adv-x="1536" 
d="M497 2178h256l82 -295h-171zM422 1770h692v-190h-692v190zM768 -27q-143 0 -274 59t-226 158.5t-151 237.5t-56 289q0 202 95 373t258 270.5t354 99.5t354 -99.5t258 -270.5t95 -373q0 -151 -56 -289t-151 -237.5t-226 -158.5t-274 -59zM768 229q122 0 226 66
t164.5 178.5t60.5 243.5t-60.5 243.5t-164.5 178t-226 65.5q-186 0 -318.5 -143t-132.5 -344q0 -132 60.5 -244.5t164.5 -178t226 -65.5z" />
    <glyph glyph-name="uni1E51" unicode="&#x1e51;" horiz-adv-x="1146" 
d="M302 1768h256l82 -294h-171zM227 1361h693v-191h-693v191zM573 -27q-139 0 -257 72.5t-186.5 196.5t-68.5 270q0 147 68.5 271.5t186.5 197t257 72.5t257 -72.5t186.5 -197t68.5 -271.5q0 -146 -68.5 -270t-186.5 -196.5t-257 -72.5zM573 229q108 0 182 83.5t74 199.5
q0 118 -75.5 201.5t-180.5 83.5q-107 0 -181.5 -84.5t-74.5 -200.5q0 -119 75.5 -201t180.5 -82z" />
    <glyph glyph-name="uni1E52" unicode="&#x1e52;" horiz-adv-x="1536" 
d="M701 1886l82 295h255l-167 -295h-170zM422 1770h692v-190h-692v190zM768 -27q-143 0 -274 59t-226 158.5t-151 237.5t-56 289q0 202 95 373t258 270.5t354 99.5t354 -99.5t258 -270.5t95 -373q0 -151 -56 -289t-151 -237.5t-226 -158.5t-274 -59zM768 229q122 0 226 66
t164.5 178.5t60.5 243.5t-60.5 243.5t-164.5 178t-226 65.5q-186 0 -318.5 -143t-132.5 -344q0 -132 60.5 -244.5t164.5 -178t226 -65.5z" />
    <glyph glyph-name="uni1E53" unicode="&#x1e53;" horiz-adv-x="1146" 
d="M507 1477l82 295h255l-167 -295h-170zM227 1361h693v-191h-693v191zM573 -27q-139 0 -257 72.5t-186.5 196.5t-68.5 270q0 147 68.5 271.5t186.5 197t257 72.5t257 -72.5t186.5 -197t68.5 -271.5q0 -146 -68.5 -270t-186.5 -196.5t-257 -72.5zM573 229q108 0 182 83.5
t74 199.5q0 118 -75.5 201.5t-180.5 83.5q-107 0 -181.5 -84.5t-74.5 -200.5q0 -119 75.5 -201t180.5 -82z" />
    <glyph glyph-name="uni1E62" unicode="&#x1e62;" horiz-adv-x="1148" 
d="M604 -27q-148 0 -306.5 84.5t-236.5 201.5l211 144q40 -58 140 -115.5t191 -57.5q89 0 159.5 49.5t70.5 127.5q0 77 -69 135.5t-175 78.5q-223 40 -348 157t-125 275q0 169 129 281.5t307 112.5q147 0 268.5 -76.5t174.5 -191.5l-232 -110q-27 58 -87.5 89.5t-124.5 31.5
q-69 0 -124.5 -39t-55.5 -98q0 -58 52 -104t122 -62q123 -30 216.5 -69t169.5 -95.5t116 -135.5t40 -178q0 -125 -66.5 -225.5t-177 -155.5t-239.5 -55zM697 -454q-56 0 -94 37.5t-38 93.5t38 94t94 38q55 0 93 -38t38 -94t-37.5 -93.5t-93.5 -37.5z" />
    <glyph glyph-name="uni1E63" unicode="&#x1e63;" horiz-adv-x="889" 
d="M425 -18q-125 9 -227.5 66.5t-146.5 152.5l216 93q22 -36 73 -66t113 -30t105.5 25t43.5 74q0 33 -27.5 55.5t-50.5 29.5t-74 18l-12 3q-76 15 -140 42t-115.5 66t-81 95t-29.5 123q0 147 112.5 238.5t269.5 91.5q122 0 224 -51t161 -142l-202 -120q-23 36 -67.5 63.5
t-94.5 31.5q-72 4 -118 -22.5t-46 -83.5q0 -27 20 -46t42 -26.5t64 -17.5t59 -16q73 -24 131 -52t108.5 -67.5t77.5 -93t25 -116.5q0 -96 -59 -173t-154 -115t-200 -30zM506 -454q-57 0 -95 37.5t-38 93.5t38 94t95 38q55 0 93 -38.5t38 -93.5q0 -56 -37.5 -93.5
t-93.5 -37.5z" />
    <glyph glyph-name="uni1E6C" unicode="&#x1e6c;" horiz-adv-x="1290" 
d="M1208 1434v-256h-436v-1178h-255v1178h-435v256h1126zM645 -454q-56 0 -94 37.5t-38 93.5t38 94t94 38q55 0 93 -38t38 -94t-37.5 -93.5t-93.5 -37.5z" />
    <glyph glyph-name="uni1E6D" unicode="&#x1e6d;" horiz-adv-x="734" 
d="M674 768h-197v-768h-256v768h-149v256h149v322h256v-322h197v-256zM350 -454q-57 0 -95 37.5t-38 93.5t38 94t95 38q55 0 92.5 -38t37.5 -94t-37 -93.5t-93 -37.5z" />
    <glyph glyph-name="Wgrave" unicode="&#x1e80;" horiz-adv-x="1918" 
d="M689 1841h255l82 -295h-170zM452 0l-367 1434h264l247 -969l247 969h233l247 -969l247 969h264l-365 -1434h-290l-220 856l-217 -856h-290z" />
    <glyph glyph-name="wgrave" unicode="&#x1e81;" horiz-adv-x="1751" 
d="M604 1432h256l82 -295h-171zM656 0h-253l-342 1024h250l220 -654l219 654h251l219 -654l219 654h251l-343 -1024h-253l-220 656z" />
    <glyph glyph-name="Wacute" unicode="&#x1e82;" horiz-adv-x="1918" 
d="M893 1549l82 295h256l-168 -295h-170zM452 0l-367 1434h264l247 -969l247 969h233l247 -969l247 969h264l-365 -1434h-290l-220 856l-217 -856h-290z" />
    <glyph glyph-name="wacute" unicode="&#x1e83;" horiz-adv-x="1751" 
d="M808 1140l82 295h256l-167 -295h-171zM656 0h-253l-342 1024h250l220 -654l219 654h251l219 -654l219 654h251l-343 -1024h-253l-220 656z" />
    <glyph glyph-name="Wdieresis" unicode="&#x1e84;" horiz-adv-x="1918" 
d="M756 1504q-57 0 -95 37t-38 94q0 55 38.5 93t94.5 38q55 0 93 -38t38 -93q0 -57 -37.5 -94t-93.5 -37zM1166 1504q-57 0 -95.5 37t-38.5 94q0 55 38.5 93t95.5 38q55 0 93 -38t38 -93q0 -56 -38 -93.5t-93 -37.5zM452 0l-367 1434h264l247 -969l247 969h233l247 -969
l247 969h264l-365 -1434h-290l-220 856l-217 -856h-290z" />
    <glyph glyph-name="wdieresis" unicode="&#x1e85;" horiz-adv-x="1751" 
d="M672 1095q-57 0 -95.5 37t-38.5 94q0 55 38.5 93t95.5 38q55 0 93 -38t38 -93q0 -56 -38 -93.5t-93 -37.5zM1081 1095q-57 0 -95 37t-38 94q0 55 38.5 93t94.5 38q55 0 93 -38t38 -93q0 -57 -37.5 -94t-93.5 -37zM656 0h-253l-342 1024h250l220 -654l219 654h251
l219 -654l219 654h251l-343 -1024h-253l-220 656z" />
    <glyph glyph-name="uni1E92" unicode="&#x1e92;" horiz-adv-x="1323" 
d="M82 0v256l814 922h-814v256h1159v-256l-814 -922h814v-256h-1159zM663 -454q-57 0 -95.5 37.5t-38.5 93.5q0 55 39 93.5t95 38.5q55 0 93 -38.5t38 -93.5q0 -56 -37.5 -93.5t-93.5 -37.5z" />
    <glyph glyph-name="uni1E93" unicode="&#x1e93;" horiz-adv-x="1038" 
d="M956 768l-505 -512h505v-256h-874v256l506 512h-506v256h874v-256zM520 -454q-56 0 -94.5 37.5t-38.5 93.5t38.5 94t94.5 38q55 0 93 -38.5t38 -93.5q0 -56 -37.5 -93.5t-93.5 -37.5z" />
    <glyph glyph-name="uni1E97" unicode="&#x1e97;" horiz-adv-x="734" 
d="M144 1416q-57 0 -95 37t-38 94q0 55 38.5 93t94.5 38q55 0 93 -38t38 -93q0 -57 -37.5 -94t-93.5 -37zM555 1416q-57 0 -95 37t-38 94q0 55 38.5 93t94.5 38q55 0 93 -38t38 -93q0 -56 -38 -93.5t-93 -37.5zM674 768h-197v-768h-256v768h-149v256h149v322h256v-322h197
v-256z" />
    <glyph glyph-name="uni1E9E" unicode="&#x1e9e;" horiz-adv-x="1238" 
d="M123 0v918q0 140 69 258.5t188 188t259 69.5q160 0 282.5 -94.5t122.5 -227.5q0 -28 -8.5 -53.5t-32.5 -60t-45.5 -61.5t-70 -85t-84.5 -103q67 12 136.5 -12t121 -72t84 -113.5t32.5 -132.5q0 -79 -28 -147.5t-75 -117.5t-109 -84.5t-130.5 -52.5t-138.5 -17h-59
l-53 218h87q48 0 94.5 11t88.5 33t68 63.5t26 95.5t-26 95t-68.5 63t-88.5 33t-94 11h-81l-1 96q-1 47 30 112.5t68 118t68 101t31 65.5q0 32 -15 52t-45 29.5t-59.5 12.5t-73.5 3q-85 0 -149.5 -68t-64.5 -163v-982h-256z" />
    <glyph glyph-name="uni1EA0" unicode="&#x1ea0;" horiz-adv-x="1498" 
d="M602 1434h294l520 -1434h-271l-91 251h-610l-91 -251h-271zM538 507h423l-212 579zM750 -454q-56 0 -94.5 37.5t-38.5 93.5t38.5 94t94.5 38q55 0 93 -38t38 -94t-37 -93.5t-94 -37.5z" />
    <glyph glyph-name="uni1EA1" unicode="&#x1ea1;" horiz-adv-x="1269" 
d="M892 1024h256v-1024h-257l-11 123q-44 -70 -112.5 -110t-157.5 -40q-149 0 -276 74t-200 200.5t-73 275.5q0 144 70 266t191.5 193t265.5 71q184 0 315 -157zM603 219q116 0 192 85t76 208q0 124 -76 208.5t-192 84.5q-117 0 -198 -85t-81 -208q0 -122 82 -207.5
t197 -85.5zM630 -454q-56 0 -94 37.5t-38 93.5t38 94t94 38q55 0 93 -38t38 -94t-37.5 -93.5t-93.5 -37.5z" />
    <glyph glyph-name="uni1EA4" unicode="&#x1ea4;" horiz-adv-x="1498" 
d="M682 1943l82 294h256l-167 -294h-171zM893 1841l198 -295h-170l-171 198l-169 -198h-171l195 295h288zM602 1434h294l520 -1434h-271l-91 251h-610l-91 -251h-271zM538 507h423l-212 579z" />
    <glyph glyph-name="uni1EA5" unicode="&#x1ea5;" horiz-adv-x="1269" 
d="M562 1533l82 295h256l-168 -295h-170zM773 1432l198 -295h-170l-171 197l-170 -197h-170l194 295h289zM892 1024h256v-1024h-257l-11 123q-44 -70 -112.5 -110t-157.5 -40q-149 0 -276 74t-200 200.5t-73 275.5q0 144 70 266t191.5 193t265.5 71q184 0 315 -157zM603 219
q116 0 192 85t76 208q0 124 -76 208.5t-192 84.5q-117 0 -198 -85t-81 -208q0 -122 82 -207.5t197 -85.5z" />
    <glyph glyph-name="uni1EA6" unicode="&#x1ea6;" horiz-adv-x="1498" 
d="M478 2233h255l82 -295h-170zM893 1841l198 -295h-170l-171 198l-169 -198h-171l195 295h288zM602 1434h294l520 -1434h-271l-91 251h-610l-91 -251h-271zM538 507h423l-212 579z" />
    <glyph glyph-name="uni1EA7" unicode="&#x1ea7;" horiz-adv-x="1269" 
d="M358 1824h255l82 -295h-170zM773 1432l198 -295h-170l-171 197l-170 -197h-170l194 295h289zM892 1024h256v-1024h-257l-11 123q-44 -70 -112.5 -110t-157.5 -40q-149 0 -276 74t-200 200.5t-73 275.5q0 144 70 266t191.5 193t265.5 71q184 0 315 -157zM603 219
q116 0 192 85t76 208q0 124 -76 208.5t-192 84.5q-117 0 -198 -85t-81 -208q0 -122 82 -207.5t197 -85.5z" />
    <glyph glyph-name="uni1EAA" unicode="&#x1eaa;" horiz-adv-x="1498" 
d="M908 1932q-34 0 -90.5 27.5t-103.5 59t-88.5 51t-52.5 7.5q-24 -29 -8 -89l-148 -41q-42 122 7.5 208t164.5 86q43 0 115 -36.5t133 -73.5t76 -37q50 0 19 87l150 49q41 -126 -11 -212t-163 -86zM893 1841l198 -295h-170l-171 198l-169 -198h-171l195 295h288zM602 1434
h294l520 -1434h-271l-91 251h-610l-91 -251h-271zM538 507h423l-212 579z" />
    <glyph glyph-name="uni1EAB" unicode="&#x1eab;" horiz-adv-x="1269" 
d="M788 1523q-43 0 -121 44.5t-139 79.5t-74 20q-26 -28 -9 -89l-148 -41q-42 122 7.5 208t164.5 86q43 0 115 -36.5t133.5 -73.5t76.5 -37q50 0 17 88l152 49q41 -125 -11.5 -211.5t-163.5 -86.5zM773 1432l198 -295h-170l-171 197l-170 -197h-170l194 295h289zM892 1024
h256v-1024h-257l-11 123q-44 -70 -112.5 -110t-157.5 -40q-149 0 -276 74t-200 200.5t-73 275.5q0 144 70 266t191.5 193t265.5 71q184 0 315 -157zM603 219q116 0 192 85t76 208q0 124 -76 208.5t-192 84.5q-117 0 -198 -85t-81 -208q0 -122 82 -207.5t197 -85.5z" />
    <glyph glyph-name="uni1EAC" unicode="&#x1eac;" horiz-adv-x="1498" 
d="M893 1841l198 -295h-170l-171 198l-169 -198h-171l195 295h288zM602 1434h294l520 -1434h-271l-91 251h-610l-91 -251h-271zM538 507h423l-212 579zM750 -454q-56 0 -94.5 37.5t-38.5 93.5t38.5 94t94.5 38q55 0 93 -38t38 -94t-37 -93.5t-94 -37.5z" />
    <glyph glyph-name="uni1EAD" unicode="&#x1ead;" horiz-adv-x="1269" 
d="M773 1432l198 -295h-170l-171 197l-170 -197h-170l194 295h289zM892 1024h256v-1024h-257l-11 123q-44 -70 -112.5 -110t-157.5 -40q-149 0 -276 74t-200 200.5t-73 275.5q0 144 70 266t191.5 193t265.5 71q184 0 315 -157zM603 219q116 0 192 85t76 208q0 124 -76 208.5
t-192 84.5q-117 0 -198 -85t-81 -208q0 -122 82 -207.5t197 -85.5zM630 -454q-56 0 -94 37.5t-38 93.5t38 94t94 38q55 0 93 -38t38 -94t-37.5 -93.5t-93.5 -37.5z" />
    <glyph glyph-name="uni1EB0" unicode="&#x1eb0;" horiz-adv-x="1498" 
d="M478 2271h255l82 -295h-170zM749 1524q-139 0 -239.5 100t-100.5 240h158q0 -74 54 -128t128 -54q75 0 128.5 53t53.5 129h158q0 -142 -99.5 -241t-240.5 -99zM602 1434h294l520 -1434h-271l-91 251h-610l-91 -251h-271zM538 507h423l-212 579z" />
    <glyph glyph-name="uni1EB1" unicode="&#x1eb1;" horiz-adv-x="1269" 
d="M358 1862h255l82 -295h-170zM629 1114q-139 0 -239.5 100t-100.5 240h158q0 -74 54 -127.5t128 -53.5q75 0 128 52.5t53 128.5h159q0 -142 -99.5 -241t-240.5 -99zM892 1024h256v-1024h-257l-11 123q-44 -70 -112.5 -110t-157.5 -40q-149 0 -276 74t-200 200.5t-73 275.5
q0 144 70 266t191.5 193t265.5 71q184 0 315 -157zM603 219q116 0 192 85t76 208q0 124 -76 208.5t-192 84.5q-117 0 -198 -85t-81 -208q0 -122 82 -207.5t197 -85.5z" />
    <glyph glyph-name="uni1EB6" unicode="&#x1eb6;" horiz-adv-x="1498" 
d="M749 1524q-139 0 -239.5 100t-100.5 240h158q0 -74 54 -128t128 -54q75 0 128.5 53t53.5 129h158q0 -142 -99.5 -241t-240.5 -99zM602 1434h294l520 -1434h-271l-91 251h-610l-91 -251h-271zM538 507h423l-212 579zM750 -454q-56 0 -94.5 37.5t-38.5 93.5t38.5 94
t94.5 38q55 0 93 -38t38 -94t-37 -93.5t-94 -37.5z" />
    <glyph glyph-name="uni1EB7" unicode="&#x1eb7;" horiz-adv-x="1269" 
d="M629 1114q-139 0 -239.5 100t-100.5 240h158q0 -74 54 -127.5t128 -53.5q75 0 128 52.5t53 128.5h159q0 -142 -99.5 -241t-240.5 -99zM892 1024h256v-1024h-257l-11 123q-44 -70 -112.5 -110t-157.5 -40q-149 0 -276 74t-200 200.5t-73 275.5q0 144 70 266t191.5 193
t265.5 71q184 0 315 -157zM603 219q116 0 192 85t76 208q0 124 -76 208.5t-192 84.5q-117 0 -198 -85t-81 -208q0 -122 82 -207.5t197 -85.5zM630 -454q-56 0 -94 37.5t-38 93.5t38 94t94 38q55 0 93 -38t38 -94t-37.5 -93.5t-93.5 -37.5z" />
    <glyph glyph-name="uni1EB8" unicode="&#x1eb8;" horiz-adv-x="1125" 
d="M123 0v1434h900v-256h-644v-282h510v-256h-510v-384h644v-256h-900zM564 -454q-57 0 -95 37.5t-38 93.5t38 94t95 38q55 0 93 -38.5t38 -93.5q0 -56 -37.5 -93.5t-93.5 -37.5z" />
    <glyph glyph-name="uni1EB9" unicode="&#x1eb9;" horiz-adv-x="1145" 
d="M573 -27q-139 0 -257 72.5t-186.5 196.5t-68.5 271t68.5 271t186.5 196.5t257 72.5q117 0 219.5 -52t170.5 -138t100 -201.5t14 -236.5h-740q21 -87 83 -141t153 -55q61 -1 114 29.5t89 84.5l261 -60q-64 -139 -188.5 -224.5t-275.5 -85.5zM328 616h492q-20 91 -89 152
t-158 61t-156.5 -60t-88.5 -153zM574 -454q-57 0 -95 37.5t-38 93.5t38 94t95 38q55 0 93.5 -38.5t38.5 -93.5q0 -56 -38 -93.5t-94 -37.5z" />
    <glyph glyph-name="uni1EBC" unicode="&#x1ebc;" horiz-adv-x="1125" 
d="M723 1540q-35 0 -91.5 27.5t-103.5 58.5t-88.5 50.5t-52.5 7.5q-24 -29 -8 -89l-149 -41q-41 122 8.5 207.5t164.5 85.5q43 0 115 -36.5t133 -72.5t77 -36q47 0 17 87l152 49q41 -126 -11.5 -212t-162.5 -86zM123 0v1434h900v-256h-644v-282h510v-256h-510v-384h644v-256
h-900z" />
    <glyph glyph-name="uni1EBD" unicode="&#x1ebd;" horiz-adv-x="1145" 
d="M733 1130q-35 0 -91.5 27.5t-103.5 59t-88.5 51t-52.5 7.5q-24 -29 -8 -89l-148 -41q-41 122 8.5 207.5t164.5 85.5q43 0 114.5 -36.5t132.5 -73t76 -36.5q49 0 19 87l151 49q41 -126 -11.5 -212t-162.5 -86zM573 -27q-139 0 -257 72.5t-186.5 196.5t-68.5 271t68.5 271
t186.5 196.5t257 72.5q117 0 219.5 -52t170.5 -138t100 -201.5t14 -236.5h-740q21 -87 83 -141t153 -55q61 -1 114 29.5t89 84.5l261 -60q-64 -139 -188.5 -224.5t-275.5 -85.5zM328 616h492q-20 91 -89 152t-158 61t-156.5 -60t-88.5 -153z" />
    <glyph glyph-name="uni1EC6" unicode="&#x1ec6;" horiz-adv-x="1125" 
d="M707 1841l197 -295h-170l-171 198l-169 -198h-171l195 295h289zM123 0v1434h900v-256h-644v-282h510v-256h-510v-384h644v-256h-900zM564 -454q-57 0 -95 37.5t-38 93.5t38 94t95 38q55 0 93 -38.5t38 -93.5q0 -56 -37.5 -93.5t-93.5 -37.5z" />
    <glyph glyph-name="uni1EC7" unicode="&#x1ec7;" horiz-adv-x="1145" 
d="M717 1432l197 -295h-170l-171 197l-170 -197h-170l195 295h289zM573 -27q-139 0 -257 72.5t-186.5 196.5t-68.5 271t68.5 271t186.5 196.5t257 72.5q117 0 219.5 -52t170.5 -138t100 -201.5t14 -236.5h-740q21 -87 83 -141t153 -55q61 -1 114 29.5t89 84.5l261 -60
q-64 -139 -188.5 -224.5t-275.5 -85.5zM328 616h492q-20 91 -89 152t-158 61t-156.5 -60t-88.5 -153zM574 -454q-57 0 -95 37.5t-38 93.5t38 94t95 38q55 0 93.5 -38.5t38.5 -93.5q0 -56 -38 -93.5t-94 -37.5z" />
    <glyph glyph-name="uni1ECA" unicode="&#x1eca;" horiz-adv-x="563" 
d="M154 0v1434h256v-1434h-256zM283 -454q-57 0 -95 37.5t-38 93.5t38 94t95 38q55 0 93 -38.5t38 -93.5q0 -56 -37.5 -93.5t-93.5 -37.5z" />
    <glyph glyph-name="uni1ECB" unicode="&#x1ecb;" horiz-adv-x="501" 
d="M252 1153q-57 0 -95 37.5t-38 93.5t38 93.5t95 37.5q55 0 93 -38t38 -93q0 -56 -37.5 -93.5t-93.5 -37.5zM123 1024h256v-1024h-256v1024zM253 -454q-57 0 -95 37.5t-38 93.5t38 94t95 38q55 0 93 -38.5t38 -93.5q0 -56 -37.5 -93.5t-93.5 -37.5z" />
    <glyph glyph-name="uni1ECC" unicode="&#x1ecc;" horiz-adv-x="1536" 
d="M768 -27q-143 0 -274 59t-226 158.5t-151 237.5t-56 289q0 202 95 373t258 270.5t354 99.5t354 -99.5t258 -270.5t95 -373q0 -151 -56 -289t-151 -237.5t-226 -158.5t-274 -59zM768 229q122 0 226 66t164.5 178.5t60.5 243.5t-60.5 243.5t-164.5 178t-226 65.5
q-186 0 -318.5 -143t-132.5 -344q0 -132 60.5 -244.5t164.5 -178t226 -65.5zM769 -454q-56 0 -94.5 37.5t-38.5 93.5t38.5 94t94.5 38q55 0 93 -38.5t38 -93.5q0 -56 -37.5 -93.5t-93.5 -37.5z" />
    <glyph glyph-name="uni1ECD" unicode="&#x1ecd;" horiz-adv-x="1146" 
d="M573 -27q-139 0 -257 72.5t-186.5 196.5t-68.5 270q0 147 68.5 271.5t186.5 197t257 72.5t257 -72.5t186.5 -197t68.5 -271.5q0 -146 -68.5 -270t-186.5 -196.5t-257 -72.5zM573 229q108 0 182 83.5t74 199.5q0 118 -75.5 201.5t-180.5 83.5q-107 0 -181.5 -84.5
t-74.5 -200.5q0 -119 75.5 -201t180.5 -82zM574 -454q-56 0 -94.5 37.5t-38.5 93.5t38.5 94t94.5 38q55 0 93.5 -38.5t38.5 -93.5q0 -56 -38 -93.5t-94 -37.5z" />
    <glyph glyph-name="uni1ED8" unicode="&#x1ed8;" horiz-adv-x="1536" 
d="M911 1841l199 -295h-171l-171 198l-169 -198h-171l196 295h287zM768 -27q-143 0 -274 59t-226 158.5t-151 237.5t-56 289q0 202 95 373t258 270.5t354 99.5t354 -99.5t258 -270.5t95 -373q0 -151 -56 -289t-151 -237.5t-226 -158.5t-274 -59zM768 229q122 0 226 66
t164.5 178.5t60.5 243.5t-60.5 243.5t-164.5 178t-226 65.5q-186 0 -318.5 -143t-132.5 -344q0 -132 60.5 -244.5t164.5 -178t226 -65.5zM769 -454q-56 0 -94.5 37.5t-38.5 93.5t38.5 94t94.5 38q55 0 93 -38.5t38 -93.5q0 -56 -37.5 -93.5t-93.5 -37.5z" />
    <glyph glyph-name="uni1ED9" unicode="&#x1ed9;" horiz-adv-x="1146" 
d="M717 1432l198 -295h-171l-171 197l-169 -197h-171l196 295h288zM573 -27q-139 0 -257 72.5t-186.5 196.5t-68.5 270q0 147 68.5 271.5t186.5 197t257 72.5t257 -72.5t186.5 -197t68.5 -271.5q0 -146 -68.5 -270t-186.5 -196.5t-257 -72.5zM573 229q108 0 182 83.5
t74 199.5q0 118 -75.5 201.5t-180.5 83.5q-107 0 -181.5 -84.5t-74.5 -200.5q0 -119 75.5 -201t180.5 -82zM574 -454q-56 0 -94.5 37.5t-38.5 93.5t38.5 94t94.5 38q55 0 93.5 -38.5t38.5 -93.5q0 -56 -38 -93.5t-94 -37.5z" />
    <glyph glyph-name="uni1EE4" unicode="&#x1ee4;" horiz-adv-x="1394" 
d="M698 -27q-126 0 -234.5 49t-182.5 133.5t-116 199t-42 243.5v836h256v-836q0 -158 86 -263.5t233 -105.5q99 0 172.5 50.5t109.5 133t36 185.5v836h256v-836q0 -173 -71 -315t-203 -226t-300 -84zM698 -454q-57 0 -95 37.5t-38 93.5t38 94t95 38q55 0 93 -38.5t38 -93.5
q0 -56 -37.5 -93.5t-93.5 -37.5z" />
    <glyph glyph-name="uni1EE5" unicode="&#x1ee5;" horiz-adv-x="1103" 
d="M82 378v646h256v-578q0 -89 62.5 -151.5t151.5 -62.5t151 62.5t62 151.5v578h256l1 -1024h-256l-1 90q-114 -117 -279 -117q-167 0 -285.5 119t-118.5 286zM584 -452q-57 0 -94.5 37t-37.5 94q0 55 38 93t94 38q55 0 93 -38t38 -93q0 -57 -37.5 -94t-93.5 -37z" />
    <glyph glyph-name="Ygrave" unicode="&#x1ef2;" horiz-adv-x="1364" 
d="M412 1841h255l82 -295h-170zM1001 1434h303l-494 -788v-646h-256v646l-493 788h303l318 -509z" />
    <glyph glyph-name="ygrave" unicode="&#x1ef3;" horiz-adv-x="1178" 
d="M318 1432h256l82 -295h-171zM825 1024h272l-560 -1536h-272l186 512l-369 1024h279l217 -675z" />
    <glyph glyph-name="uni1EF4" unicode="&#x1ef4;" horiz-adv-x="1363" 
d="M1001 1434h303l-494 -788v-646h-256v646l-493 788h303l318 -509zM683 -454q-56 0 -94.5 37.5t-38.5 93.5t38.5 94t94.5 38q55 0 93 -38.5t38 -93.5q0 -56 -37.5 -93.5t-93.5 -37.5z" />
    <glyph glyph-name="uni1EF5" unicode="&#x1ef5;" horiz-adv-x="1178" 
d="M825 1024h272l-560 -1536h-272l186 512l-369 1024h279l217 -675zM837 -454q-57 0 -95.5 37.5t-38.5 93.5t38.5 94t95.5 38q55 0 93 -38.5t38 -93.5q0 -56 -37.5 -93.5t-93.5 -37.5z" />
    <glyph glyph-name="uni1EF8" unicode="&#x1ef8;" horiz-adv-x="1363" 
d="M842 1540q-34 0 -90.5 27.5t-104 58.5t-88.5 50.5t-52 7.5q-25 -28 -8 -89l-149 -41q-42 122 7.5 207.5t164.5 85.5q43 0 115 -36.5t133.5 -72.5t76.5 -36q49 0 17 87l152 49q41 -126 -11 -212t-163 -86zM1001 1434h303l-494 -788v-646h-256v646l-493 788h303l318 -509z
" />
    <glyph glyph-name="uni1EF9" unicode="&#x1ef9;" horiz-adv-x="1178" 
d="M750 1130q-35 0 -91.5 27.5t-103.5 59t-88.5 51t-52.5 7.5q-24 -29 -8 -89l-149 -41q-41 122 8.5 207.5t164.5 85.5q43 0 115 -36.5t133 -73t77 -36.5q47 0 17 87l152 49q41 -126 -11.5 -212t-162.5 -86zM825 1024h272l-560 -1536h-272l186 512l-369 1024h279l217 -675z
" />
    <glyph glyph-name="uni2002" unicode="&#x2002;" horiz-adv-x="1024" 
 />
    <glyph glyph-name="uni2009" unicode="&#x2009;" horiz-adv-x="409" 
 />
    <glyph glyph-name="uni200B" unicode="&#x200b;" 
 />
    <glyph glyph-name="endash" unicode="&#x2013;" horiz-adv-x="1269" 
d="M123 742h1024v-256h-1024v256z" />
    <glyph glyph-name="emdash" unicode="&#x2014;" horiz-adv-x="2088" 
d="M123 742h1843v-256h-1843v256z" />
    <glyph glyph-name="quoteright" unicode="&#x2032;" horiz-adv-x="421" 
d="M41 899l63 535h256l-149 -535h-170z" />
    <glyph glyph-name="quoteright" unicode="&#x2019;" horiz-adv-x="421" 
d="M41 899l63 535h256l-149 -535h-170z" />
    <glyph glyph-name="quotesinglbase" unicode="&#x201a;" horiz-adv-x="474" 
d="M74 -115l63 346h256l-149 -346h-170z" />
    <glyph glyph-name="quotedblleft" unicode="&#x201c;" horiz-adv-x="831" 
d="M472 903l149 535h170l-64 -535h-255zM123 899l148 535h171l-63 -535h-256z" />
    <glyph glyph-name="quotedblright" unicode="&#x2033;" horiz-adv-x="831" 
d="M41 899l63 535h256l-149 -535h-170zM390 899l64 535h255l-149 -535h-170z" />
    <glyph glyph-name="quotedblright" unicode="&#x201d;" horiz-adv-x="831" 
d="M41 899l63 535h256l-149 -535h-170zM390 899l64 535h255l-149 -535h-170z" />
    <glyph glyph-name="quotedblbase" unicode="&#x201e;" horiz-adv-x="857" 
d="M74 -115l63 346h256l-149 -346h-170zM456 -115l63 346h256l-148 -346h-171z" />
    <glyph glyph-name="dagger" unicode="&#x2020;" horiz-adv-x="882" 
d="M82 1102v255h231v179h256v-179h232v-255h-232v-589h-256v589h-231z" />
    <glyph glyph-name="daggerdbl" unicode="&#x2021;" horiz-adv-x="882" 
d="M82 711v254h231v137h-231v255h231v179h256v-179h232v-255h-232v-137h232v-254h-232v-198h-256v198h-231z" />
    <glyph glyph-name="bullet" unicode="&#x2022;" horiz-adv-x="513" 
d="M256 439q-73 0 -123.5 51t-50.5 124q0 72 51 124t123 52t123.5 -52t51.5 -124q0 -73 -51 -124t-124 -51z" />
    <glyph glyph-name="ellipsis" unicode="&#x2026;" horiz-adv-x="1299" 
d="M213 -27q-55 0 -93 37.5t-38 93.5q0 54 38 93t93 39q54 0 92.5 -39t38.5 -93q0 -55 -38.5 -93t-92.5 -38zM629 -27q-55 0 -93 38t-38 93q0 54 38.5 93t92.5 39t92.5 -39t38.5 -93q0 -55 -38.5 -93t-92.5 -38zM1044 -27q-55 0 -92.5 38t-37.5 93q0 54 38 93t92 39
q55 0 94 -39t39 -93q0 -55 -39 -93t-94 -38z" />
    <glyph glyph-name="perthousand" unicode="&#x2030;" horiz-adv-x="2227" 
d="M217 0l827 1434h295l-827 -1434h-295zM393 808q-128 0 -219.5 90.5t-91.5 219.5q0 132 92 221t219 89q128 0 219 -90.5t91 -219.5q0 -130 -92 -220t-218 -90zM393 983q56 0 95.5 39t39.5 96t-39.5 96t-95.5 39q-57 0 -96.5 -39t-39.5 -96t39.5 -96t96.5 -39zM1151 3
q-129 0 -219.5 93t-90.5 217q0 131 92 222t218 91q131 0 221 -93t90 -220q0 -128 -91.5 -219t-219.5 -91zM1834 3q-128 0 -219 93t-91 217q0 131 92 222t218 91q131 0 221 -93t90 -220q0 -128 -91 -219t-220 -91zM1151 178q56 0 96 39.5t40 95.5q0 57 -40 97.5t-96 40.5
t-96 -40.5t-40 -97.5q0 -56 40 -95.5t96 -39.5zM1834 178q57 0 97 39.5t40 95.5q0 57 -40 97.5t-97 40.5q-56 0 -95.5 -40.5t-39.5 -97.5q0 -55 39.5 -95t95.5 -40z" />
    <glyph glyph-name="uni2035" unicode="&#x2035;" horiz-adv-x="565" 
d="M271 899l-148 535h256l63 -535h-171z" />
    <glyph glyph-name="guilsinglleft" unicode="&#x2039;" horiz-adv-x="792" 
d="M430 267l-307 348l307 347h260l-306 -347l306 -348h-260z" />
    <glyph glyph-name="guilsinglright" unicode="&#x203a;" horiz-adv-x="792" 
d="M102 267l306 348l-306 347h260l308 -347l-308 -348h-260z" />
    <glyph glyph-name="fraction" unicode="&#x2215;" horiz-adv-x="460" 
d="M-289 0l828 1434h211l-828 -1434h-211z" />
    <glyph glyph-name="fraction" unicode="&#x2044;" horiz-adv-x="460" 
d="M-289 0l828 1434h211l-828 -1434h-211z" />
    <glyph glyph-name="uni2070" unicode="&#x2070;" horiz-adv-x="663" 
d="M332 817q-108 0 -183 99t-75 245q0 145 75.5 243.5t182.5 98.5t182.5 -98.5t75.5 -243.5q0 -146 -75 -245t-183 -99zM332 959q32 0 57.5 34.5t37 79.5t11.5 88q0 47 -12.5 92t-37.5 77t-56 32q-34 0 -59.5 -33.5t-36.5 -78t-11 -89.5q0 -76 29.5 -139t77.5 -63z" />
    <glyph glyph-name="uni2074" unicode="&#x2074;" horiz-adv-x="707" 
d="M349 838v99h-251v182l232 365h171v-395h59v-152h-59v-99h-152zM247 1089h117v184z" />
    <glyph glyph-name="uni2075" unicode="&#x2075;" horiz-adv-x="714" 
d="M327 817q-100 0 -170.5 65.5t-70.5 163.5h152q0 -37 25.5 -62t63.5 -25q37 0 63.5 25.5t26.5 61.5q0 35 -26 60t-64 28q-84 6 -207 -15l34 365h351v-132h-213l-3 -69q126 4 202 -61.5t76 -175.5q0 -99 -70 -164t-170 -65z" />
    <glyph glyph-name="uni2076" unicode="&#x2076;" horiz-adv-x="722" 
d="M337 817q-102 0 -170.5 63.5t-68.5 162.5q0 49 26.5 104.5t137.5 245.5q33 56 52 88h176l-120 -206q95 -18 150 -82t55 -152q0 -98 -69.5 -161t-168.5 -63zM337 959q39 0 65 29t20 68q-4 32 -28.5 52.5t-56.5 20.5q-43 0 -67.5 -31.5t-18.5 -68.5q5 -35 29.5 -52.5
t56.5 -17.5z" />
    <glyph glyph-name="uni2077" unicode="&#x2077;" horiz-adv-x="686" 
d="M156 838l282 492h-315v152h490v-148l-284 -496h-173z" />
    <glyph glyph-name="uni2078" unicode="&#x2078;" horiz-adv-x="642" 
d="M319 817q-93 0 -157 58.5t-64 149.5q0 87 60 152q-46 56 -46 129q0 86 60 142.5t147 56.5q88 0 149.5 -56.5t61.5 -142.5q0 -73 -46 -129q60 -65 60 -152q0 -91 -65 -149.5t-160 -58.5zM319 1248q25 0 42.5 17t17.5 41q0 25 -17 40.5t-43 15.5q-24 0 -40 -16t-16 -40
q0 -23 16.5 -40.5t39.5 -17.5zM319 957q31 0 52 19.5t21 48.5q0 30 -21 51t-52 21q-29 0 -49 -21t-20 -51q0 -29 20 -48.5t49 -19.5z" />
    <glyph glyph-name="uni2079" unicode="&#x2079;" horiz-adv-x="673" 
d="M158 838l120 209q-97 7 -156 85.5t-41 169.5q7 89 72.5 145t158.5 56q109 0 178 -75.5t54 -175.5q0 -47 -27 -95l-185 -319h-174zM312 1190q38 0 64 29.5t22 68.5q-3 31 -29.5 52.5t-56.5 21.5q-41 0 -65.5 -29t-20.5 -66q3 -38 30 -57.5t56 -19.5z" />
    <glyph glyph-name="uni2080" unicode="&#x2080;" horiz-adv-x="663" 
d="M332 -32q-107 0 -182.5 103.5t-75.5 250.5q0 145 75.5 247.5t182.5 102.5t182.5 -102.5t75.5 -247.5q0 -147 -75.5 -250.5t-182.5 -103.5zM332 120q32 0 57.5 34.5t37 79.5t11.5 88q0 73 -29.5 136t-76.5 63q-34 0 -59.5 -33t-36.5 -77.5t-11 -88.5q0 -76 29.5 -139
t77.5 -63z" />
    <glyph glyph-name="uni2081" unicode="&#x2081;" horiz-adv-x="462" 
d="M165 0v495h-67l22 151h195v-646h-150z" />
    <glyph glyph-name="uni2082" unicode="&#x2082;" horiz-adv-x="732" 
d="M98 0v134q18 12 71.5 47t82 55.5t69.5 54.5t68 69t44 74q0 39 -26 64.5t-64 25.5q-39 0 -66 -25.5t-27 -64.5h-152q0 100 72 171t173 71q100 0 171 -71t71 -171q0 -32 -14.5 -65.5t-30.5 -57t-52.5 -59t-53.5 -49.5t-61 -51h202v-152h-477z" />
    <glyph glyph-name="uni2083" unicode="&#x2083;" horiz-adv-x="591" 
d="M297 -32q-92 0 -157.5 64.5t-65.5 155.5h151q0 -30 20.5 -49t51.5 -19q30 0 50 19t20 49q0 39 -33 67.5t-91 28.5v101q56 0 81 24t25 58q0 23 -16.5 38.5t-40.5 15.5q-23 0 -39.5 -15.5t-16.5 -38.5h-152q0 86 60.5 145.5t147.5 59.5t148 -59.5t61 -145.5q0 -74 -45 -127
q62 -62 62 -152q0 -91 -65.5 -155.5t-155.5 -64.5z" />
    <glyph glyph-name="uni2084" unicode="&#x2084;" horiz-adv-x="707" 
d="M349 0v99h-251v183l232 364h171v-395h59v-152h-59v-99h-152zM247 251h117v184z" />
    <glyph glyph-name="uni2085" unicode="&#x2085;" horiz-adv-x="714" 
d="M327 -32q-100 0 -170.5 69t-70.5 168h152q0 -36 25.5 -60.5t63.5 -24.5q37 0 63.5 24.5t26.5 60.5q0 37 -26.5 62.5t-63.5 25.5l-208 -7l35 357h351v-133h-213l-3 -68l40 2q112 0 175 -67t63 -172q0 -99 -70.5 -168t-169.5 -69z" />
    <glyph glyph-name="uni2086" unicode="&#x2086;" horiz-adv-x="698" 
d="M337 -32q-101 0 -170 68.5t-69 168.5q0 48 21.5 93.5t129.5 230.5q41 71 65 113h176l-120 -207q95 -17 150 -80.5t55 -152.5q0 -99 -70 -166.5t-168 -67.5zM337 120q39 0 65 28.5t20 66.5q-4 33 -28.5 53.5t-56.5 20.5q-43 0 -66.5 -31t-19.5 -69q5 -34 29.5 -51.5
t56.5 -17.5z" />
    <glyph glyph-name="uni2087" unicode="&#x2087;" horiz-adv-x="686" 
d="M153 0l285 495h-315v151h490v-147l-287 -499h-173z" />
    <glyph glyph-name="uni2088" unicode="&#x2088;" horiz-adv-x="642" 
d="M319 -32q-92 0 -156.5 62.5t-64.5 153.5q0 90 60 153q-46 56 -46 128q0 88 60 148t147 60q88 0 149.5 -60t61.5 -148q0 -72 -46 -128q60 -63 60 -153q0 -91 -65.5 -153.5t-159.5 -62.5zM319 408q25 0 42.5 17t17.5 40q0 25 -17 40.5t-43 15.5q-24 0 -40 -16t-16 -40
q0 -23 16.5 -40t39.5 -17zM319 117q31 0 52 19.5t21 47.5q0 31 -21 52t-52 21q-29 0 -49 -21t-20 -52q0 -28 20 -47.5t49 -19.5z" />
    <glyph glyph-name="uni2089" unicode="&#x2089;" horiz-adv-x="673" 
d="M158 0l120 209q-97 7 -156 86t-41 170q7 90 73 150.5t158 60.5q66 0 121.5 -32.5t84 -84t32.5 -114.5t-32 -123l-186 -322h-174zM312 353q38 0 64 29.5t22 68.5q-3 31 -29.5 52t-56.5 21q-41 0 -65.5 -29t-20.5 -66q3 -38 30 -57t56 -19z" />
    <glyph glyph-name="Euro" unicode="&#x20ac;" horiz-adv-x="1144" 
d="M1063 -16q-272 -44 -494 101t-301 408h-186v175h155v95h-155v175h186q50 174 168.5 301.5t283 184t343.5 26.5v-263q-164 45 -306.5 -26.5t-211.5 -222.5h274v-175h-326l2 -95h324v-175h-272q72 -152 214 -221t302 -24v-264z" />
    <glyph glyph-name="trademark" unicode="&#x2122;" horiz-adv-x="1408" 
d="M584 1434v-135h-194v-533h-134v533h-195v135h523zM1219 1434l128 -668h-137l-73 384l-120 -317h-129l-119 317l-75 -384h-136l128 668h119l147 -393l148 393h119z" />
    <glyph glyph-name="oneeighth" unicode="&#x215b;" horiz-adv-x="1565" 
d="M165 838v494h-67l22 152h195v-646h-150zM175 0l827 1434h210l-827 -1434h-210zM1244 -32q-93 0 -157.5 62.5t-64.5 153.5t59 153q-46 57 -46 128q0 88 61 148t148 60t148.5 -60t61.5 -148q0 -72 -46 -128q59 -61 59 -153q0 -91 -64.5 -153.5t-158.5 -62.5zM1244 408
q25 0 42.5 17t17.5 40q0 24 -17.5 40t-42.5 16q-24 0 -40.5 -16t-16.5 -40q0 -23 17 -40t40 -17zM1244 117q30 0 51.5 19.5t21.5 47.5q0 31 -21.5 52t-51.5 21q-29 0 -49.5 -21t-20.5 -52q0 -28 20.5 -47.5t49.5 -19.5z" />
    <glyph glyph-name="threeeighths" unicode="&#x215c;" horiz-adv-x="1694" 
d="M297 817q-93 0 -158 60.5t-65 151.5h151q0 -31 20.5 -50.5t51.5 -19.5q30 0 50 20t20 50q0 39 -33 67t-91 28v101q56 0 81 24t25 58q0 23 -16.5 38.5t-40.5 15.5q-23 0 -39.5 -15.5t-16.5 -38.5h-152q0 85 60.5 140.5t147.5 55.5q88 0 148.5 -55.5t60.5 -140.5
q0 -73 -45 -128q62 -59 62 -150t-65 -151.5t-156 -60.5zM303 0l827 1434h211l-827 -1434h-211zM1372 -32q-93 0 -157 62.5t-64 153.5q0 92 59 153q-46 56 -46 128q0 88 60.5 148t147.5 60q88 0 149.5 -60t61.5 -148q0 -72 -46 -128q59 -62 59 -153t-65 -153.5t-159 -62.5z
M1372 408q25 0 42.5 17t17.5 40q0 24 -17.5 40t-42.5 16q-24 0 -40 -16t-16 -40q0 -23 16.5 -40t39.5 -17zM1372 117q31 0 52 19.5t21 47.5q0 31 -21 52t-52 21q-29 0 -49 -21t-20 -52q0 -28 20 -47.5t49 -19.5z" />
    <glyph glyph-name="fiveeighths" unicode="&#x215d;" horiz-adv-x="1817" 
d="M327 817q-100 0 -170.5 65.5t-70.5 163.5h152q0 -37 25.5 -62t63.5 -25q37 0 63.5 25.5t26.5 61.5q0 35 -26 60t-64 28q-84 6 -207 -15l34 365h351v-132h-213l-3 -69q126 4 202 -61.5t76 -175.5q0 -99 -70 -164t-170 -65zM426 0l828 1434h210l-827 -1434h-211zM1496 -32
q-93 0 -157.5 62.5t-64.5 153.5t59 153q-46 57 -46 128q0 88 61 148t148 60t148.5 -60t61.5 -148q0 -72 -46 -128q59 -61 59 -153q0 -91 -64.5 -153.5t-158.5 -62.5zM1496 408q24 0 41 17t17 40q0 25 -16.5 40.5t-41.5 15.5q-24 0 -40.5 -16t-16.5 -40q0 -23 17 -40t40 -17z
M1496 117q30 0 51.5 19.5t21.5 47.5q0 31 -21.5 52t-51.5 21q-29 0 -50 -21t-21 -52q0 -28 21 -47.5t50 -19.5z" />
    <glyph glyph-name="seveneighths" unicode="&#x215e;" horiz-adv-x="1788" 
d="M156 838l282 492h-315v152h490v-148l-284 -496h-173zM398 0l828 1434h210l-828 -1434h-210zM1467 -32q-93 0 -157 62.5t-64 153.5t60 153q-46 56 -46 128q0 88 60 148t147 60q88 0 149 -60t61 -148q0 -72 -46 -128q61 -63 61 -153q0 -91 -65.5 -153.5t-159.5 -62.5z
M1467 408q25 0 42.5 17t17.5 40q0 24 -17.5 40t-42.5 16q-24 0 -40.5 -16t-16.5 -40q0 -23 17 -40t40 -17zM1467 117q30 0 51.5 19.5t21.5 47.5q0 31 -21.5 52t-51.5 21q-29 0 -49.5 -21t-20.5 -52q0 -28 20.5 -47.5t49.5 -19.5z" />
    <glyph glyph-name="arrowleft" unicode="&#x2190;" horiz-adv-x="1441" 
d="M629 221l-547 547l547 547l180 -180l-239 -239h791v-256h-791l239 -238z" />
    <glyph glyph-name="arrowup" unicode="&#x2191;" horiz-adv-x="1257" 
d="M502 128v790l-239 -238l-181 181l548 547l546 -547l-181 -181l-238 238v-790h-255z" />
    <glyph glyph-name="arrowright" unicode="&#x2192;" horiz-adv-x="1443" 
d="M815 221l-181 181l236 238h-788v256h788l-236 239l181 180l547 -547z" />
    <glyph glyph-name="arrowdown" unicode="&#x2193;" horiz-adv-x="1256" 
d="M628 128l-546 547l180 181l238 -238v790h255v-790l238 238l182 -181z" />
    <glyph glyph-name="arrowboth" unicode="&#x2194;" horiz-adv-x="1895" 
d="M629 221l-547 547l547 547l180 -180l-239 -239h753l-237 239l181 180l547 -547l-547 -547l-181 181l237 238h-753l239 -238z" />
    <glyph glyph-name="arrowupdn" unicode="&#x2195;" horiz-adv-x="1257" 
d="M629 -98l-547 548l180 180l239 -238v752l-239 -238l-180 181l547 547l547 -547l-181 -181l-238 238v-752l238 238l181 -180z" />
    <glyph glyph-name="uni2196" unicode="&#x2196;" horiz-adv-x="1159" 
d="M897 270l-559 559v-336h-256v773h773v-256h-337l559 -558z" />
    <glyph glyph-name="uni2197" unicode="&#x2197;" horiz-adv-x="1158" 
d="M262 271l-180 181l558 557h-338v256h774v-773h-255v336z" />
    <glyph glyph-name="uni2198" unicode="&#x2198;" horiz-adv-x="1158" 
d="M303 271v256h337l-558 557l180 181l559 -557v336h255v-773h-773z" />
    <glyph glyph-name="uni2199" unicode="&#x2199;" horiz-adv-x="1158" 
d="M82 271v773h256v-336l558 557l180 -181l-558 -557h337v-256h-773z" />
    <glyph glyph-name="partialdiff" unicode="&#x2202;" horiz-adv-x="1193" 
d="M598 -27q-140 0 -259 69t-188 187.5t-69 257.5q0 140 69 259t188 188.5t259 69.5q90 0 155 -57q-20 57 -40 101t-54.5 95.5t-74.5 85t-100.5 56.5t-131.5 23l-1 256q113 0 216 -39t186 -108.5t150.5 -166.5t113 -212t70.5 -245.5t25 -266.5q0 -243 -144.5 -398
t-369.5 -155zM598 229q106 0 182 76.5t76 181.5q0 107 -76 184t-182 77q-108 0 -184 -77t-76 -184q0 -105 76 -181.5t184 -76.5z" />
    <glyph glyph-name="emptyset" unicode="&#x2205;" horiz-adv-x="1187" 
d="M373 -78l-180 104l54 92q-77 75 -121 177.5t-44 216.5q0 147 68.5 271.5t186.5 197t257 72.5q94 0 172 -33l50 85l179 -104l-53 -93q77 -75 120.5 -177.5t43.5 -218.5q0 -146 -68.5 -270t-186.5 -196.5t-257 -72.5q-86 0 -173 33zM373 334l278 483q-84 16 -161.5 -23.5
t-124.5 -119.5t-47 -176q0 -93 55 -164zM537 210q86 -16 163.5 23t123.5 118t46 175q0 91 -54 167z" />
    <glyph glyph-name="uni2206" unicode="&#x2206;" horiz-adv-x="1293" 
d="M1263 0h-1232l616 1434zM419 256h454l-226 530z" />
    <glyph glyph-name="product" unicode="&#x220f;" horiz-adv-x="1310" 
d="M82 1434h1147v-256h-138v-1178h-256v1178h-359v-1178h-256v1178h-138v256z" />
    <glyph glyph-name="summation" unicode="&#x2211;" horiz-adv-x="944" 
d="M82 0v256l235 459l-235 459v256h800v-256h-512l233 -459l-233 -459h512v-256h-800z" />
    <glyph glyph-name="minus" unicode="&#x2212;" horiz-adv-x="1187" 
d="M82 486v256h1024v-256h-1024z" />
    <glyph glyph-name="radical" unicode="&#x221a;" horiz-adv-x="1381" 
d="M925 1434h374v-256h-196l-430 -1178h-327l-264 725h271l157 -426z" />
    <glyph glyph-name="infinity" unicode="&#x221e;" horiz-adv-x="1560" 
d="M452 257q-170 15 -270 120t-100 256q0 159 103.5 266t266.5 109q99 0 175.5 -44t152.5 -136q78 92 155.5 136t169.5 44q172 -2 273 -110t101 -265q0 -159 -102.5 -266t-265.5 -110q-99 0 -175.5 42.5t-155.5 135.5q-79 -96 -155.5 -139.5t-172.5 -38.5zM1113 490
q61 3 98.5 45t37.5 98q0 57 -36.5 98.5t-94.5 43.5q-55 0 -98 -36t-96 -106q52 -69 96 -106.5t93 -36.5zM450 490q51 0 96.5 39.5t92.5 103.5q-50 67 -94.5 104.5t-94.5 35.5q-62 -3 -99.5 -44.5t-37.5 -95.5q0 -60 38.5 -100.5t98.5 -42.5z" />
    <glyph glyph-name="integral" unicode="&#x222b;" horiz-adv-x="1110" 
d="M368 -27q-127 0 -210 85.5t-76 213.5l162 -12q3 -28 6.5 -42.5t15 -27t32.5 -13.5q33 -1 56 17.5t27 50.5l98 1003q12 89 95 151t180 61q121 -1 202.5 -92t70.5 -209l-146 15q-6 45 -29.5 64.5t-57.5 14.5q-26 -2 -44.5 -20.5t-22.5 -49.5l-97 -1000q-24 -107 -95 -158.5
t-167 -51.5z" />
    <glyph glyph-name="approxequal" unicode="&#x2248;" horiz-adv-x="1341" 
d="M947 694q-60 0 -144.5 28t-155 61t-147 60.5t-123.5 27.5q-45 1 -66 -33.5t-16 -81.5l-251 3q-14 89 24 171t114.5 131.5t168.5 49.5q59 0 136.5 -28.5t139.5 -63t132.5 -63t118.5 -28.5q47 0 69 34t17 84l249 -4q23 -141 -53 -244.5t-213 -103.5zM947 133
q-60 0 -144.5 28t-155 61t-147 60.5t-123.5 27.5q-45 1 -66 -33.5t-16 -81.5l-251 3q-14 89 24 171t114.5 131.5t168.5 49.5q59 0 136.5 -28.5t139.5 -63t132.5 -63t118.5 -28.5q47 0 69 33.5t17 83.5l249 -3q23 -141 -53 -244.5t-213 -103.5z" />
    <glyph glyph-name="notequal" unicode="&#x2260;" horiz-adv-x="1187" 
d="M900 1210l-72 -246h278v-256h-353l-54 -187h407v-255h-482l-73 -248h-265l72 248h-276v255h351l54 187h-405v256h480l73 246h265z" />
    <glyph glyph-name="lessequal" unicode="&#x2264;" horiz-adv-x="1187" 
d="M1106 340l-1024 291v426l1024 293v-266l-840 -238l840 -240v-266zM82 0v256h1024v-256h-1024z" />
    <glyph glyph-name="greaterequal" unicode="&#x2265;" horiz-adv-x="1187" 
d="M82 359v267l840 229l-840 229v266l1024 -283v-426zM82 0v256h1024v-256h-1024z" />
    <glyph glyph-name="lozenge" unicode="&#x25ca;" horiz-adv-x="1120" 
d="M336 0l-275 719l273 715h452l273 -715l-275 -719h-448zM560 137l232 582l-232 581l-229 -581z" />
    <glyph glyph-name="uni25CC" unicode="&#x25cc;" horiz-adv-x="2004" 
d="M786 1517q-35 -9 -66 9t-41 52q-9 35 9 66.5t52 41.5q122 35 262 35q141 0 262 -35q35 -10 52.5 -41.5t8.5 -66.5q-9 -34 -40 -52t-66 -9q-105 29 -217 29q-111 0 -216 -29zM127 886q-35 9 -53.5 40t-10.5 66q68 266 264 454q25 26 61 26t62 -26t25.5 -62.5t-26.5 -61.5
q-162 -158 -217 -374q-9 -35 -39.5 -52.5t-65.5 -9.5zM1878 886q-35 -8 -66 9.5t-40 52.5q-55 216 -217 374q-26 25 -26.5 61.5t25.5 62.5t62 26t62 -26q194 -190 262 -454q9 -35 -9.5 -66t-52.5 -40zM327 61q-195 186 -264 453q-8 35 10.5 66.5t53.5 40.5t65.5 -9.5
t39.5 -53.5q56 -218 217 -374q26 -25 26.5 -61.5t-25.5 -61.5q-26 -26 -62 -26t-61 26zM1564 61q-26 22 -29 55t19 59q113 121 160 285q29 50 73 92t84 63q32 -6 51 -33.5t13 -60.5q-51 -207 -196 -355q-29 -53 -78 -81t-97 -24zM1002 -216q-132 0 -262 37q-34 9 -52 40.5
t-9 66.5q10 35 41 53t66 9q107 -31 216 -31q110 0 217 31q35 9 66 -9t40 -53q9 -36 -8.5 -67t-52.5 -40q-128 -37 -262 -37z" />
    <glyph glyph-name="uniA78B" unicode="&#xa78b;" horiz-adv-x="378" 
d="M317 1536l-43 -919h-170l-43 919h256z" />
    <glyph glyph-name="uniA78C" unicode="&#xa78c;" horiz-adv-x="378" 
d="M317 1536l-43 -560h-170l-43 560h256z" />
    <glyph glyph-name="uniFFFD" unicode="&#xfffd;" horiz-adv-x="1669" 
d="M836 -27q-121 0 -205 84l-424 424q-84 84 -84 205q0 119 84 203l424 424q84 84 205 84q118 0 202 -84l424 -424q84 -84 84 -203q0 -121 -84 -205l-424 -424q-84 -84 -202 -84zM748 526h175v2q0 36 30 52q61 35 97 96t36 133q0 107 -76 183t-183 76t-183 -76t-76 -183h174
q0 35 25 59.5t60 24.5t60 -24.5t25 -59.5q0 -55 -41 -76q-58 -29 -90.5 -84t-32.5 -121v-2zM841 261q37 0 62 25.5t25 63.5q0 36 -25 61t-62 25t-62.5 -25.5t-25.5 -60.5q0 -37 25.5 -63t62.5 -26z" />
    <glyph glyph-name="copyleft" unicode="&#x1f12f;" horiz-adv-x="1517" 
d="M759 1414q141 0 270 -55t222.5 -148.5t149 -222.5t55.5 -271t-55.5 -271t-148.5 -222.5t-222.5 -149t-270.5 -55.5q-142 0 -271 55.5t-222.5 149t-149 222.5t-55.5 271t55.5 271t149 222.5t222.5 148.5t271 55zM1281 717q0 141 -69.5 261.5t-190 190.5t-262.5 70
q-107 0 -204 -41.5t-166.5 -111.5t-110.5 -166.5t-41 -202.5q0 -144 70.5 -264.5t190.5 -189t261 -68.5q106 0 202.5 41t166.5 110.5t111.5 166.5t41.5 204zM1111 717q0 -154 -103 -263t-249 -109q-85 0 -158.5 40t-123.5 109l122 65q63 -80 160 -80q91 0 154.5 71.5
t63.5 166.5t-62.5 166t-155.5 71q-96 0 -161 -78l-121 65q50 69 123.5 108.5t158.5 39.5q146 0 249 -108.5t103 -263.5z" />
    <glyph glyph-name="uni004A0301" horiz-adv-x="914" 
d="M597 1549l82 295h255l-167 -295h-170zM334 -27q-168 0 -293 107l164 196q55 -47 129 -47q83 0 142.5 61t59.5 145v999h256v-999q0 -124 -61.5 -230.5t-167 -169t-229.5 -62.5z" />
    <glyph glyph-name="uni013B.loclMAH" horiz-adv-x="1074" 
d="M123 0v1434h256v-1178h593v-256h-849zM356 -452l64 347h255l-149 -347h-170z" />
    <glyph glyph-name="uni0145.loclMAH" horiz-adv-x="1375" 
d="M123 0v1434h276l597 -972v972h256v-1434h-276l-597 972v-972h-256zM497 -452l63 347h255l-148 -347h-170z" />
    <glyph glyph-name="i.001" horiz-adv-x="501" 
d="M252 1153q-57 0 -95 37.5t-38 93.5t38 93.5t95 37.5q55 0 93 -38t38 -93q0 -56 -37.5 -93.5t-93.5 -37.5zM123 1024h256v-1024h-256v1024z" />
    <glyph glyph-name="i.loclTRK" horiz-adv-x="501" 
d="M252 1153q-57 0 -95 37.5t-38 93.5t38 93.5t95 37.5q55 0 93 -38t38 -93q0 -56 -37.5 -93.5t-93.5 -37.5zM123 1024h256v-1024h-256v1024z" />
    <glyph glyph-name="uni006A0301" horiz-adv-x="501" 
d="M183 1140l83 295h255l-167 -295h-171zM-82 -512v256q86 0 145.5 58.5t59.5 143.5v1078h256v-1078q0 -190 -134 -324t-327 -134z" />
    <glyph glyph-name="uni013C.loclMAH" horiz-adv-x="522" 
d="M133 0v1536h256v-1536h-256zM70 -452l63 347h256l-149 -347h-170z" />
    <glyph glyph-name="uni0146.loclMAH" horiz-adv-x="1144" 
d="M1063 648v-648h-256v580q0 89 -62.5 151.5t-151.5 62.5t-151.5 -62.5t-62.5 -151.5v-580h-255l-1 1024h256v-88q115 117 278 117q168 0 287 -119t119 -286zM401 -452l64 347h256l-149 -347h-171z" />
    <glyph glyph-name="periodcentered.loclCAT" 
d="M114 939q0 -47 -33.5 -81t-80.5 -34t-80.5 34t-33.5 81t34 80.5t80 33.5t80 -33.5t34 -80.5z" />
    <glyph glyph-name="periodcentered.loclCAT.case" 
d="M-141 939q0 -47 -33.5 -81t-80.5 -34t-80.5 34t-33.5 81t33.5 80.5t80.5 33.5t80.5 -33.5t33.5 -80.5z" />
    <glyph glyph-name="uni030C.alt" 
d="M431 1139l82 295h256l-167 -295h-171z" />
    <glyph glyph-name="uni0326.loclMAH" 
d="M410 -452l63 347h256l-149 -347h-170z" />
    <glyph glyph-name="enghook" horiz-adv-x="522" 
d="M31 -256q86 0 145.5 58.5t59.5 143.5v74h256v-74q0 -190 -134 -324t-327 -134v256z" />
    <glyph glyph-name="horizontalBar" horiz-adv-x="1464" 
d="M82 660v216h1300v-216h-1300z" />
    <glyph glyph-name="shortHorizontalBar" horiz-adv-x="814" 
d="M82 660v216h650v-216h-650z" />
    </font>
</defs>
</svg>
