<svg width="110" height="70" viewBox="0 0 110 70" fill="none" xmlns="http://www.w3.org/2000/svg">
<rect x="4" y="4" width="102" height="62" fill="white"/>
<path d="M88.4705 12H98.0002V57.1613H88.4705V37.8065H72.7148V57.1613H63.1851V12H72.7148V28.129H88.4705V12Z" fill="black"/>
<path d="M50.7966 57.9999C49.4624 57.9999 48.3295 57.5376 47.3977 56.6128C46.487 55.6666 46.0317 54.5161 46.0317 53.1612C46.0317 51.8279 46.487 50.6881 47.3977 49.7419C48.3295 48.7956 49.4624 48.3225 50.7966 48.3225C52.1096 48.3225 53.2319 48.7956 54.1637 49.7419C55.0955 50.6881 55.5614 51.8279 55.5614 53.1612C55.5614 54.5161 55.0955 55.6666 54.1637 56.6128C53.2319 57.5376 52.1096 57.9999 50.7966 57.9999Z" fill="black"/>
<path d="M12 57.1613V12H40.3349V21.6774H21.5297V28.129H36.0148V37.8065H21.5297V47.4839H40.3349V57.1613H12Z" fill="black"/>
<rect x="1" y="1" width="108" height="68" stroke="white" stroke-width="2"/>
</svg>
