<svg width="110" height="70" viewBox="0 0 110 70" fill="none" xmlns="http://www.w3.org/2000/svg">
<rect x="4" y="4" width="102" height="62" fill="black"/>
<path d="M88.4705 12H98.0002V57.1613H88.4705V37.8065H72.7148V57.1613H63.1851V12H72.7148V28.129H88.4705V12Z" fill="white"/>
<path d="M50.7963 57.9999C49.4622 57.9999 48.3292 57.5376 47.3974 56.6128C46.4868 55.6666 46.0315 54.5161 46.0315 53.1612C46.0315 51.8279 46.4868 50.6881 47.3974 49.7419C48.3292 48.7956 49.4622 48.3225 50.7963 48.3225C52.1093 48.3225 53.2317 48.7956 54.1635 49.7419C55.0953 50.6881 55.5612 51.8279 55.5612 53.1612C55.5612 54.5161 55.0953 55.6666 54.1635 56.6128C53.2317 57.5376 52.1093 57.9999 50.7963 57.9999Z" fill="white"/>
<path d="M12 57.1613V12H40.3349V21.6774H21.5297V28.129H36.0148V37.8065H21.5297V47.4839H40.3349V57.1613H12Z" fill="white"/>
<rect x="1" y="1" width="108" height="68" stroke="black" stroke-width="2"/>
</svg>
